<svg id="Layer_1" data-name="Layer 1" xmlns="http://www.w3.org/2000/svg" viewBox="0 0 855.46 453.54"><defs><style>.cls-1{fill:#009bd9;}.cls-2{fill:#fff;}.cls-3{fill:#1d1d1b;}</style></defs><title>dropapp</title><rect class="cls-1" width="453.54" height="453.54" rx="22.68" ry="22.68"/><rect class="cls-2" x="66.68" y="64.4" width="129.61" height="129.61"/><rect class="cls-2" x="66.68" y="260.26" width="129.61" height="129.61"/><rect class="cls-2" x="263.26" y="260.26" width="129.61" height="129.61"/><polygon class="cls-3" points="46.57 46.57 46.57 79.33 46.57 177.63 79.33 177.63 79.33 79.33 177.63 79.33 177.63 177.63 210.39 177.63 210.39 79.33 210.39 46.57 46.57 46.57"/><rect class="cls-3" x="46.57" y="177.63" width="163.82" height="32.76"/><rect class="cls-3" x="112.1" y="112.1" width="32.76" height="32.76"/><polygon class="cls-3" points="46.57 243.15 46.57 275.92 46.57 374.21 79.33 374.21 79.33 275.92 177.63 275.92 177.63 374.21 210.39 374.21 210.39 275.92 210.39 243.15 46.57 243.15"/><rect class="cls-3" x="46.57" y="374.21" width="163.82" height="32.76"/><rect class="cls-3" x="112.1" y="308.68" width="32.76" height="32.76"/><polygon class="cls-3" points="243.15 243.15 243.15 275.92 243.15 374.21 275.92 374.21 275.92 275.92 374.21 275.92 374.21 374.21 406.97 374.21 406.97 275.92 406.97 243.15 243.15 243.15"/><rect class="cls-3" x="243.15" y="374.21" width="163.82" height="32.76"/><rect class="cls-3" x="308.68" y="308.68" width="32.76" height="32.76"/><rect class="cls-3" x="112.1" y="112.1" width="32.73" height="32.73"/><path class="cls-3" d="M583.27,129.52c-6.79,10.95-17.19,16.64-32,16.64h-36.6V47.43h36.6c14.84,0,25.24,5.69,32,16.64,4.86,7.91,4.86,15.67,4.86,32.72S588.13,121.61,583.27,129.52Zm-22-54.91c-2.22-3.33-5.55-5.55-11.65-5.55H538.9v55.47h10.68c6.1,0,9.43-2.22,11.65-5.55,1.94-2.77,2.63-5.41,2.63-22.19S563.17,77.38,561.23,74.61Z"/><path class="cls-3" d="M654.82,146.16l-17.47-36.75h-8.18v36.75H604.9V47.43H644c21.9,0,33.69,15.53,33.69,31.76,0,13.44-8.32,21.9-16.09,25.79L683,146.16Zm-11.92-77H629.17v20H642.9c6.65,0,10.53-4.85,10.53-10S649.55,69.2,642.9,69.2Z"/><path class="cls-3" d="M755.76,136.17c-7.07,7.07-15.39,10.82-27.45,10.82s-20.38-3.75-27.45-10.82c-10.13-10.12-10.13-22.74-10.13-39.38s0-29.25,10.13-39.37c7.07-7.07,15.39-10.82,27.45-10.82s20.38,3.75,27.45,10.82c10.13,10.12,10.13,22.74,10.13,39.37S765.89,126.05,755.76,136.17ZM738,72.53a13.1,13.1,0,0,0-19.41,0c-2.22,2.91-3.61,6.24-3.61,24.26s1.39,21.22,3.61,24.13a12.83,12.83,0,0,0,19.41,0c2.21-2.91,3.6-6.1,3.6-24.13S740.23,75.44,738,72.53Z"/><path class="cls-3" d="M821.77,110.94H806.93v35.22H782.67V47.43h39.1c21.9,0,33.69,15.53,33.69,31.76S843.67,110.94,821.77,110.94ZM820.66,69.2H806.93v20h13.73c6.65,0,10.53-4.85,10.53-10S827.31,69.2,820.66,69.2Z"/><path class="cls-3" d="M569.82,276.15l-4.57-14.7H534.88L530,276.15H504.66l35.91-98.72h18.72l35.91,98.72Zm-19.27-61.29-8.87,26.35h17.19Z"/><path class="cls-3" d="M644.28,240.93H629.45v35.22H605.18V177.43h39.1c21.91,0,33.7,15.53,33.7,31.75S666.19,240.93,644.28,240.93Zm-1.1-41.73H629.45v20h13.73c6.65,0,10.53-4.85,10.53-10S649.83,199.2,643.18,199.2Z"/><path class="cls-3" d="M731.22,240.93H716.39v35.22H692.12V177.43h39.1c21.91,0,33.7,15.53,33.7,31.75S753.13,240.93,731.22,240.93Zm-1.1-41.73H716.39v20h13.73c6.65,0,10.53-4.85,10.53-10S736.77,199.2,730.12,199.2Z"/><path class="cls-3" d="M512,406.14V385.62l35.78-38.82c3.6-3.88,5-6.38,5-10.54,0-5.41-3-9.15-8.88-9.15-4.15,0-9.15,1.94-9.15,9.57H512c0-19.41,14.7-30.09,31.89-30.09,18.31,0,31.62,11.23,31.62,29.81,0,10.4-4.3,15.94-12.2,24.26l-23.57,25h35.77v20.52Z"/><path class="cls-3" d="M589.65,406.14V381.19h25v24.95Z"/><path class="cls-3" d="M661.06,407c-16.36,0-31.75-10.39-31.75-30.78V337.37c0-20.38,15.39-30.78,31.75-30.78s31.75,10.4,31.75,30.78v38.82C692.81,396.58,677.42,407,661.06,407Zm9-69.6c0-6.93-4.15-10.26-9-10.26s-9,3.33-9,10.26v39c0,6.93,4.16,10.12,9,10.12s9-3.19,9-10.12Z"/></svg>