<svg version="1" xmlns="http://www.w3.org/2000/svg" width="1210.667" height="1210.667" viewBox="0 0 908.000000 908.000000"><path d="M0 206.5V413h413V0H0v206.5zm330 0V330H83V83h247v123.5z"/><path d="M165 206.5V248h83v-83h-83v41.5zM.2 701.2l.3 206.3h412l.3-206.3.2-206.2H0l.2 206.2zm329.8.3V825H83V578h247v123.5z"/><path d="M165.2 701.2l.3 41.3 41.3.3 41.2.2v-83h-83l.2 41.2zM495 701.5V908l206.3-.2 206.2-.3.3-206.3.2-206.2H495v206.5zm330 0V825H578V578h247v123.5z"/><path d="M660 701.5V743l41.3-.2 41.2-.3.3-41.3.2-41.2h-83v41.5z"/></svg>