<?xml version="1.0" standalone="no"?>
<!DOCTYPE svg PUBLIC "-//W3C//DTD SVG 1.1//EN" "http://www.w3.org/Graphics/SVG/1.1/DTD/svg11.dtd" >
<svg xmlns="http://www.w3.org/2000/svg">
<metadata></metadata>
<defs>
<font id="zinnebeeldregular" horiz-adv-x="520" >
<font-face units-per-em="1000" ascent="800" descent="-200" />
<missing-glyph horiz-adv-x="213" />
<glyph unicode="&#xa3;Z" horiz-adv-x="480" d="M0 480h480v-480h-480v480z" />
<glyph unicode="ff" horiz-adv-x="677" d="M436 0v413h-227v-413h-76v413h-103v68h103v119q0 91 38.5 137t110.5 46q39 0 72.5 -13t49.5 -28l-33 -59q-37 28 -86 28q-76 0 -76 -125v-105h227v119q0 91 38.5 137t110.5 46q39 0 72.5 -13t49.5 -28l-33 -59q-37 28 -86 28q-76 0 -76 -125v-105h143v-68h-143v-413h-76z " />
<glyph unicode="fi" horiz-adv-x="594" d="M484 704q53 0 53 -53t-53 -53t-53 53t53 53zM526 0h-76v481h76v-481zM352 413h-143v-413h-76v413h-103v68h103v119q0 91 38.5 137t110.5 46q39 0 72.5 -13t49.5 -28l-33 -59q-37 28 -86 28q-76 0 -76 -125v-105h143v-68z" />
<glyph unicode="fl" horiz-adv-x="579" d="M433 770h76v-770h-76v770zM352 413h-143v-413h-76v413h-103v68h103v119q0 91 38.5 137t110.5 46q39 0 72.5 -13t49.5 -28l-33 -59q-37 28 -86 28q-76 0 -76 -125v-105h143v-68z" />
<glyph unicode="ffi" horiz-adv-x="898" d="M787 704q53 0 53 -53t-53 -53t-53 53t53 53zM754 481h76v-481h-76v481zM436 0v413h-227v-413h-76v413h-103v68h103v119q0 91 38.5 137t110.5 46q39 0 72.5 -13t49.5 -28l-33 -59q-37 28 -86 28q-76 0 -76 -125v-105h227v119q0 91 38.5 137t110.5 46q39 0 72.5 -13 t49.5 -28l-33 -59q-37 28 -86 28q-76 0 -76 -125v-105h143v-68h-143v-413h-76z" />
<glyph unicode="ffl" horiz-adv-x="892" d="M761 770h76v-770h-76v770zM436 0v413h-227v-413h-76v413h-103v68h103v119q0 91 38.5 137t110.5 46q39 0 72.5 -13t49.5 -28l-33 -59q-37 28 -86 28q-76 0 -76 -125v-105h227v119q0 91 38.5 137t110.5 46q39 0 72.5 -13t49.5 -28l-33 -59q-37 28 -86 28q-76 0 -76 -125 v-105h143v-68h-143v-413h-76z" />
<glyph unicode=" "  horiz-adv-x="213" />
<glyph unicode="&#x09;" horiz-adv-x="213" />
<glyph unicode="&#xa0;" horiz-adv-x="213" />
<glyph unicode="!" horiz-adv-x="283" d="M85 681h94l-14 -486h-66zM128 -13q-64 0 -64 65q0 66 64 66q67 0 67 -66q0 -65 -67 -65z" />
<glyph unicode="&#x22;" horiz-adv-x="376" d="M148 743l-22 -273h-50l-20 273h92zM320 743l-22 -273h-50l-20 273h92z" />
<glyph unicode="#" horiz-adv-x="599" d="M375 415h-108l-24 -138h108zM117 0l36 209h-88v68h100l24 138h-88v68h100l34 199h78l-34 -199h108l34 199h78l-34 -199h79v-68h-91l-24 -138h79v-68h-91l-36 -209h-78l36 209h-108l-36 -209h-78z" />
<glyph unicode="$" horiz-adv-x="600" d="M176 511q0 -69 91 -107v213q-40 -11 -65.5 -41.5t-25.5 -64.5zM437 178q0 44 -27.5 71t-78.5 47v-235q45 7 75.5 36.5t30.5 80.5zM331 -91h-64v78q-48 4 -85 20.5t-57.5 36.5t-34.5 46.5t-18.5 44.5t-6.5 36l78 16q22 -109 124 -126v259q-40 14 -64.5 25.5t-53 32t-42 50 t-13.5 69.5q0 82 46 133t127 62v78h64v-76q51 -3 90 -19t60 -41t31.5 -45t15.5 -42l-73 -23q-3 10 -7.5 19t-17.5 28.5t-39 33t-60 17.5v-241q45 -16 69.5 -27t56.5 -33.5t47 -55t15 -77.5q0 -84 -49.5 -138t-138.5 -62v-79z" />
<glyph unicode="%" horiz-adv-x="808" d="M581 690l69 -34l-442 -674l-66 37zM195 683q68 0 108.5 -43.5t40.5 -117.5t-40.5 -118t-108.5 -44q-69 0 -109.5 44t-40.5 118t40.5 117.5t109.5 43.5zM195 429q36 0 56.5 25t20.5 68q0 44 -20.5 68t-56.5 24q-37 0 -57.5 -24t-20.5 -68t20.5 -68.5t57.5 -24.5zM606 -12 q-68 0 -109 44t-41 118t41 118t109 44t109 -44t41 -118t-41 -118t-109 -44zM606 58q36 0 56.5 24.5t20.5 67.5q0 45 -20.5 68.5t-56.5 23.5q-37 0 -57.5 -24t-20.5 -68q0 -43 21 -67.5t57 -24.5z" />
<glyph unicode="&#x26;" horiz-adv-x="636" d="M279 0q-231 0 -231 172q0 131 110 181q-30 20 -46 57t-16 78q0 82 56 138t165 56h53v-69h-53q-60 0 -102.5 -31t-42.5 -93q0 -53 33.5 -83.5t97.5 -30.5h320v-68h-110v-307h-234zM295 68h142v239h-164q-33 0 -65 -11t-58 -42t-26 -76q0 -110 171 -110z" />
<glyph unicode="'" horiz-adv-x="250" d="M169 743l-22 -273h-50l-20 273h92z" />
<glyph unicode="(" horiz-adv-x="420" d="M363 790l44 -36q-88 -96 -137 -229t-49 -264q0 -127 51.5 -261t137.5 -238l-47 -40q-225 246 -225 541q0 294 225 527z" />
<glyph unicode=")" horiz-adv-x="421" d="M13 755l43 33q227 -229 227 -525q0 -149 -62 -290t-165 -250l-46 41q86 101 138 236.5t52 260.5q0 128 -50 263.5t-137 230.5z" />
<glyph unicode="*" horiz-adv-x="365" d="M206 422l-44 129l-104 -83l-38 50l98 77l-92 64l35 51l97 -67l39 116l59 -18l-40 -118l127 1l2 -62h-121l41 -119z" />
<glyph unicode="+" d="M225 54v182h-182v70h182v182h70v-182h182v-70h-182v-182h-70z" />
<glyph unicode="," horiz-adv-x="195" d="M44 -145l-24 28q8 6 20.5 15.5t33 38t21.5 54.5q-3 0 -7 0.5t-15 4t-19.5 10t-15.5 21t-7 33.5q0 65 62 65q67 0 67 -70q0 -42 -12 -78t-29 -57.5t-34 -37t-29 -21.5z" />
<glyph unicode="-" horiz-adv-x="364" d="M32 297h300v-70h-300v70z" />
<glyph unicode="." horiz-adv-x="201" d="M99 118q67 0 67 -66q0 -65 -67 -65q-64 0 -64 65q0 66 64 66z" />
<glyph unicode="/" horiz-adv-x="536" d="M435 770h83l-446 -902h-83z" />
<glyph unicode="0" horiz-adv-x="580" d="M294 -12q-246 0 -246 342q0 178 62 270t184 92t184 -92t62 -270q0 -342 -246 -342zM294 59q88 0 127.5 63.5t39.5 207.5q0 151 -39.5 220.5t-127.5 69.5t-127.5 -69.5t-39.5 -220.5q0 -144 39.5 -207.5t127.5 -63.5z" />
<glyph unicode="1" horiz-adv-x="424" d="M223 0v585h-11l-110 -66l-37 63l158 100h80v-682h-80z" />
<glyph unicode="2" horiz-adv-x="511" d="M462 0h-440v66q187 157 266.5 250t79.5 169q0 58 -41 93.5t-114 35.5q-44 0 -84 -13t-59 -25l-18 -13l-32 66q98 65 208 65q105 0 164.5 -56t59.5 -147q0 -26 -4 -50.5t-17 -50.5t-22 -45t-33.5 -48t-35.5 -43t-45 -46.5t-45.5 -43.5t-53 -48.5t-51.5 -46.5q82 7 167 7 h150v-76z" />
<glyph unicode="3" horiz-adv-x="534" d="M244 -14q-110 0 -213 57l31 64q75 -44 171 -44q154 0 154 115q0 67 -56.5 100t-187.5 33v64q230 0 230 131q0 56 -38 84.5t-101 28.5q-67 0 -134 -29l-28 60q68 43 162 43q97 0 157.5 -52t60.5 -134q0 -52 -25.5 -94t-72.5 -65q53 -23 82.5 -67.5t29.5 -101.5 q0 -84 -60.5 -138.5t-161.5 -54.5z" />
<glyph unicode="4" horiz-adv-x="554" d="M334 0v168h-291v74l317 440h52v-440h97v-74h-97v-168h-78zM334 242v250q0 38 8 76q-16 -51 -34 -75l-184 -251h210z" />
<glyph unicode="5" horiz-adv-x="538" d="M42 35l29 71q84 -40 187 -40q62 0 105 35t43 101q0 74 -63.5 107.5t-201.5 26.5l-64 -3l18 349h366v-76h-291l-10 -194q160 7 243 -44.5t83 -159.5q0 -96 -62 -157.5t-177 -61.5q-52 0 -103.5 11.5t-76.5 23.5z" />
<glyph unicode="6" horiz-adv-x="543" d="M493 224q0 -104 -52 -170.5t-159 -66.5q-221 0 -221 308q0 210 65 303.5t190 93.5q73 0 135 -31l-28 -70q-46 24 -110 24q-80 0 -121 -54.5t-50 -183.5q73 48 162 48q92 0 140.5 -59t48.5 -142zM283 62q58 0 95 39t37 110q0 58 -30.5 97.5t-102.5 39.5q-81 0 -142 -61 q4 -225 143 -225z" />
<glyph unicode="7" horiz-adv-x="479" d="M44 606v76h409v-76l-297 -606h-86l296 606h-322z" />
<glyph unicode="8" horiz-adv-x="583" d="M300 -13q-118 0 -180 51t-62 133q0 65 35 111.5t93 71.5q-107 55 -107 158q0 88 65.5 136t157.5 48q87 0 150 -48.5t63 -127.5q0 -50 -28 -98t-85 -77q128 -61 128 -171q0 -83 -62.5 -135t-167.5 -52zM159 514q0 -28 10.5 -48.5t34 -35.5t43 -23.5t56.5 -21.5 q133 37 133 129q0 50 -36.5 79t-98.5 29q-24 0 -46.5 -5t-45 -16.5t-36.5 -33.5t-14 -53zM301 63q57 0 101.5 28t44.5 83q0 51 -40 82t-113 57q-156 -37 -156 -134q0 -61 47 -88.5t116 -27.5z" />
<glyph unicode="9" horiz-adv-x="540" d="M273 329q78 0 140 42q-1 131 -36 189.5t-107 58.5q-62 0 -96.5 -40t-34.5 -113q0 -137 134 -137zM219 -13q-71 0 -129 25l14 71q60 -21 116 -21q86 0 133 52.5t57 172.5q-76 -33 -158 -33q-94 0 -142 61t-48 148q0 42 11.5 81.5t35 73.5t65.5 54.5t97 20.5 q120 0 170.5 -86t50.5 -242q0 -378 -273 -378z" />
<glyph unicode=":" horiz-adv-x="213" d="M105 424q67 0 67 -66q0 -65 -67 -65q-64 0 -64 65q0 66 64 66zM105 -13q-64 0 -64 65q0 66 64 66q67 0 67 -66q0 -65 -67 -65z" />
<glyph unicode=";" horiz-adv-x="207" d="M99 424q67 0 67 -66q0 -65 -67 -65q-64 0 -64 65q0 66 64 66zM48 -145l-24 28q8 6 20.5 15.5t33 38t21.5 54.5q-3 0 -7 0.5t-15 4t-19.5 10t-15.5 21t-7 33.5q0 65 62 65q67 0 67 -70q0 -42 -12 -78t-29 -57.5t-34 -37t-29 -21.5z" />
<glyph unicode="&#x3c;" d="M477 64l-434 172v70l434 172v-70l-346 -137l346 -137v-70z" />
<glyph unicode="=" d="M477 306h-434v70h434v-70zM43 166v70h434v-70h-434z" />
<glyph unicode="&#x3e;" d="M43 64v70l346 137l-346 137v70l434 -172v-70z" />
<glyph unicode="?" horiz-adv-x="427" d="M397 541q0 -54 -17.5 -90.5t-42.5 -57.5t-49 -43t-40 -62.5t-14 -100.5h-76q-2 57 8.5 100t28.5 66.5t39.5 45t40.5 36t31.5 38t12.5 53.5q0 51 -27.5 78t-73.5 27q-48 0 -81.5 -25t-50.5 -63l-56 41q20 51 72.5 86.5t127.5 35.5q73 0 120 -43t47 -122zM196 -12 q-57 0 -57 59t57 59q60 0 60 -59q0 -31 -14.5 -45t-45.5 -14z" />
<glyph unicode="@" horiz-adv-x="849" d="M464 -162q-205 0 -309.5 106t-104.5 301q0 182 101.5 293t273.5 111q183 0 278.5 -97t95.5 -263q0 -245 -192 -245q-73 0 -101 49q-41 -50 -105 -50q-75 0 -116.5 54.5t-41.5 148.5t54.5 152t146.5 58q28 0 57 -6t45 -12l15 -6v-234q0 -88 46 -88q122 0 122 179 q0 141 -75 217.5t-228 76.5q-133 0 -216.5 -85.5t-83.5 -252.5q0 -172 92.5 -254.5t246.5 -82.5q136 0 248 66l24 -62q-129 -74 -273 -74zM409 112q49 0 83 42v222q-22 9 -53 9q-58 0 -91 -38t-33 -101q0 -59 22 -96.5t72 -37.5z" />
<glyph unicode="A" horiz-adv-x="659" d="M290 440l-78 -184h235l-79 185q-19 44 -39 101q-12 -37 -39 -102zM557 0l-82 190h-291l-82 -190h-84l293 682h37l293 -682h-84z" />
<glyph unicode="B" horiz-adv-x="589" d="M297 0h-213v682h187q123 0 172.5 -47t49.5 -137q0 -52 -29.5 -92t-76.5 -61q138 -39 138 -162q0 -77 -59.5 -130t-168.5 -53zM256 381q78 0 117.5 27.5t39.5 94.5q0 47 -38 74.5t-103 27.5h-108v-224h92zM164 77h134q64 0 104.5 28.5t40.5 78.5q0 63 -42 91t-128 28h-109 v-226z" />
<glyph unicode="C" horiz-adv-x="646" d="M124 332q0 -131 65 -198t168 -67q56 0 99 7.5t66 17t60 28.5l29 -61q-103 -71 -261 -71q-144 0 -226 93t-82 251q0 164 82.5 263.5t234.5 99.5q146 0 236 -64l-34 -62q-79 49 -205 49q-102 0 -167 -70t-65 -216z" />
<glyph unicode="D" horiz-adv-x="669" d="M294 0h-210v682h209q166 0 250 -89.5t84 -255.5q0 -161 -84 -249t-249 -88zM274 610h-111v-538h110q275 0 275 269q0 147 -67.5 208t-206.5 61z" />
<glyph unicode="E" horiz-adv-x="566" d="M84 0v682h422v-72h-343v-231h291v-72h-291v-235h343v-72h-422z" />
<glyph unicode="F" horiz-adv-x="527" d="M162 306v-306h-78v682h401v-72h-323v-232h271v-72h-271z" />
<glyph unicode="G" horiz-adv-x="670" d="M611 59q-103 -71 -261 -71q-144 0 -226 93t-82 251q0 164 82.5 263.5t234.5 99.5q146 0 236 -64l-34 -62q-79 49 -205 49q-102 0 -167 -70t-65 -216q0 -131 65 -198t168 -67q106 0 178 30v179h-174v78h254v-295h-4z" />
<glyph unicode="H" horiz-adv-x="684" d="M162 308v-308h-78v682h78v-302h360v302h78v-682h-78v308h-360z" />
<glyph unicode="I" horiz-adv-x="246" d="M162 0h-78v682h78v-682z" />
<glyph unicode="J" horiz-adv-x="265" d="M103 27v655h78v-653q0 -95 -42.5 -147.5t-119.5 -79.5l-27 71q53 17 82 51.5t29 102.5z" />
<glyph unicode="K" horiz-adv-x="602" d="M162 183v-183h-78v682h78v-389l300 389h94l-256 -334l260 -348h-97l-214 286z" />
<glyph unicode="L" horiz-adv-x="499" d="M84 0v682h78v-610h313v-72h-391z" />
<glyph unicode="M" horiz-adv-x="833" d="M162 475v-475h-78v682h76l257 -485l256 485h76v-682h-78v475q0 5 0.5 21.5t0.5 25.5q-12 -28 -17 -37l-208 -394h-61l-208 394q-7 11 -17 36q0 -9 0.5 -25t0.5 -21z" />
<glyph unicode="N" horiz-adv-x="702" d="M162 506v-506h-78v682h78l362 -511q8 -12 19 -36q0 5 -1 13.5t-1.5 15.5t-0.5 12v506h78v-682h-78l-354 511q-10 16 -26 48q2 -34 2 -53z" />
<glyph unicode="O" horiz-adv-x="733" d="M46 345q0 167 90.5 258.5t229.5 91.5t230.5 -91.5t90.5 -258.5q-1 -180 -89.5 -267.5t-231.5 -87.5t-231.5 87.5t-88.5 267.5zM366 59q111 0 177 79t66 207q0 119 -67 198.5t-176 79.5t-175.5 -79.5t-66.5 -198.5q0 -128 66 -207t176 -79z" />
<glyph unicode="P" horiz-adv-x="564" d="M162 610v-293h109q94 0 133.5 38.5t39.5 110.5q0 73 -39.5 108.5t-134.5 35.5h-108zM271 245h-109v-245h-78v682h187q72 0 123.5 -18t78 -50t38 -68t11.5 -79q0 -41 -11.5 -77.5t-38 -70.5t-78.5 -54t-123 -20z" />
<glyph unicode="Q" horiz-adv-x="772" d="M717 -21q-70 14 -132 16.5t-132.5 -1.5t-91.5 -4q-141 0 -228 95t-87 259q0 169 90 260t230 91t231 -91.5t91 -258.5q0 -159 -72 -238q-29 -32 -68 -54q34 13 74 13q49 0 95 -11v-76zM366 60q111 0 177 75.5t66 208.5q0 131 -69.5 205t-173.5 74q-103 0 -172.5 -74 t-69.5 -205q0 -130 65 -207t177 -77z" />
<glyph unicode="R" horiz-adv-x="603" d="M162 610v-293h109q94 0 133.5 38.5t39.5 110.5q0 73 -39.5 108.5t-134.5 35.5h-108zM271 245h-109v-245h-78v682h187q72 0 123.5 -18t78 -50t38 -68t11.5 -79q0 -156 -135 -204l192 -263h-97l-178 246q-11 -1 -33 -1z" />
<glyph unicode="S" horiz-adv-x="569" d="M510 624l-41 -60q-7 7 -21.5 16.5t-61.5 26t-98 16.5q-58 0 -94 -31t-36 -81q0 -39 26.5 -66t66 -40t85.5 -30t85.5 -35.5t66 -57.5t26.5 -94q0 -92 -62.5 -145t-180.5 -53q-72 0 -130.5 21t-80.5 41l-23 21l43 59q8 -8 23 -20t64.5 -32t103.5 -20q72 0 119 29t47 89 q0 48 -37 78t-89.5 47t-105 36t-89.5 58t-37 100q0 92 57.5 145t151.5 53q76 0 136 -23.5t86 -47.5z" />
<glyph unicode="T" horiz-adv-x="558" d="M317 610v-610h-78v610h-229v72h538v-72h-231z" />
<glyph unicode="U" horiz-adv-x="671" d="M69 282v400h78v-402q0 -114 44.5 -167t144.5 -53t144 53t44 168v401h78v-400q0 -142 -61.5 -217t-204.5 -75t-205 75t-62 217z" />
<glyph unicode="V" horiz-adv-x="643" d="M356 0h-73l-269 682h82l191 -470q11 -28 20 -57t12.5 -44.5t3.5 -18.5q0 42 32 120l191 470h83z" />
<glyph unicode="W" horiz-adv-x="966" d="M467 524l-156 -524h-76l-221 682h83l162 -505q14 -43 14 -70q2 28 14 70l150 504l-1 1h86l163 -505q14 -43 14 -70q2 30 14 70l156 505h83l-212 -682h-79l-169 525q-8 24 -13 54q-7 -39 -12 -55z" />
<glyph unicode="X" horiz-adv-x="643" d="M124 0h-95l245 351l-240 331h95l192 -262l1 -1l192 263h95l-239 -332l244 -350h-95l-197 284z" />
<glyph unicode="Y" horiz-adv-x="565" d="M246 0v312l-232 370h94l167 -275l9 -17l9 17l166 275h92l-227 -369v-313h-78z" />
<glyph unicode="Z" horiz-adv-x="512" d="M480 0h-448v70l350 540h-346v72h436v-74l-346 -536h354v-72z" />
<glyph unicode="[" horiz-adv-x="420" d="M131 -219v992h191v-66h-111v-860h111v-66h-191z" />
<glyph unicode="\" horiz-adv-x="509" d="M-15 771h92l447 -903h-92z" />
<glyph unicode="]" horiz-adv-x="420" d="M98 773h191v-992h-191v66h111v860h-111v66z" />
<glyph unicode="^" horiz-adv-x="439" d="M419 196h-83l-117 179l-116 -179h-83l168 251h62z" />
<glyph unicode="_" horiz-adv-x="550" d="M10 -20h530v-70h-530v70z" />
<glyph unicode="`" horiz-adv-x="270" d="M49 706l88 40l100 -163l-55 -23z" />
<glyph unicode="a" horiz-adv-x="476" d="M202 54q55 0 86 28t43 64v85q-116 10 -165 -16t-49 -82q0 -79 85 -79zM358 0l-24 59q-52 -69 -139 -69q-76 0 -113 38.5t-37 101.5q0 81 66 127t220 35v27q0 53 -23 79t-74 26q-80 0 -141 -41l-28 52q78 59 175 59q86 0 126.5 -43t40.5 -134v-317h-49z" />
<glyph unicode="b" horiz-adv-x="543" d="M283 -10q-44 0 -78 14.5t-45.5 26t-17.5 21.5h-1l-18 -52h-47v770h76v-330h2q5 6 15.5 15t47 24t77.5 15q95 0 149 -68.5t54 -185.5q0 -115 -57 -182.5t-157 -67.5zM281 55q64 0 100.5 51t36.5 134q0 81 -36 131t-104 50q-55 0 -90.5 -32.5t-35.5 -80.5v-143 q0 -53 40 -81.5t89 -28.5z" />
<glyph unicode="c" horiz-adv-x="489" d="M447 440l-41 -53q-46 33 -122 33q-72 0 -117 -43.5t-45 -133.5q0 -53 17 -91.5t44.5 -56.5t53.5 -26t53 -8q63 0 137 30l26 -62q-96 -39 -178 -39q-108 0 -168.5 66.5t-60.5 183.5q0 112 56 183t174 71q117 0 171 -54z" />
<glyph unicode="d" horiz-adv-x="548" d="M271 421q-66 0 -103.5 -47.5t-37.5 -129.5q0 -81 35 -132t98 -51q57 0 95 37.5t38 87.5v125q0 53 -38 81.5t-87 28.5zM423 0l-22 57q-57 -67 -152 -67q-91 0 -144.5 68.5t-53.5 185.5q0 115 57 182.5t157 67.5q84 0 131 -47v323h76v-770h-49z" />
<glyph unicode="e" horiz-adv-x="516" d="M260 425q-59 0 -96 -36t-44 -106h263q0 71 -32 106.5t-91 35.5zM456 41q-30 -22 -79.5 -36.5t-100.5 -14.5q-108 0 -169 69.5t-61 183.5q0 107 56.5 179t163.5 72q54 0 93 -19.5t59.5 -52.5t29.5 -70.5t9 -80.5q0 -25 -3 -51h-335q13 -158 170 -158q37 0 72 9t51 19l16 9 z" />
<glyph unicode="f" horiz-adv-x="384" d="M352 413h-143v-413h-76v413h-103v68h103v119q0 91 38.5 137t110.5 46q39 0 72.5 -13t49.5 -28l-33 -59q-37 28 -86 28q-76 0 -76 -125v-105h143v-68z" />
<glyph unicode="g" horiz-adv-x="543" d="M266 421q-67 0 -104 -47t-37 -130q0 -81 35 -132t98 -51q60 0 96.5 33t36.5 82v135q0 53 -37 81.5t-88 28.5zM251 -213q-101 0 -170 40l29 65q66 -30 143 -30q68 0 104.5 35.5t36.5 103.5v44q-29 -34 -64.5 -44.5t-85.5 -10.5q-91 0 -144.5 68.5t-53.5 185.5 q0 115 57 182.5t157 67.5q44 0 79 -14.5t47 -26.5t18 -21l20 49h43v-509q0 -79 -49.5 -132t-166.5 -53z" />
<glyph unicode="h" horiz-adv-x="544" d="M76 0v770h76v-344h2q52 68 147 68q77 0 125.5 -49t48.5 -119v-326h-76v279q0 142 -118 142q-65 0 -97 -43t-32 -111v-267h-76z" />
<glyph unicode="i" horiz-adv-x="258" d="M129 704q53 0 53 -53t-53 -53t-53 53t53 53zM91 481h76v-481h-76v481z" />
<glyph unicode="j" horiz-adv-x="257" d="M128 704q53 0 53 -53t-53 -53t-53 53t53 53zM17 -213l-26 65q61 21 79.5 57.5t18.5 119.5v452h76v-469q0 -97 -35.5 -149.5t-112.5 -75.5z" />
<glyph unicode="k" horiz-adv-x="496" d="M152 172v-173h-76v770h76v-513l204 225h95l-194 -215l197 -266h-96l-157 215z" />
<glyph unicode="l" horiz-adv-x="248" d="M85 770h76v-770h-76v770z" />
<glyph unicode="m" horiz-adv-x="867" d="M152 267v-267h-76v481h57l23 -59h2q54 72 143 72q53 0 93.5 -24.5t61.5 -65.5q58 90 166 90q79 0 127.5 -49t48.5 -119v-326h-76v279q0 142 -118 142q-65 0 -97 -43t-32 -111v-267h-76v279q0 142 -118 142q-65 0 -97 -43t-32 -111z" />
<glyph unicode="n" horiz-adv-x="544" d="M76 0v481h57l23 -59h2q51 72 143 72q77 0 125.5 -49t48.5 -119v-326h-76v279q0 142 -119 142q-64 0 -96 -43t-32 -111v-267h-76z" />
<glyph unicode="o" horiz-adv-x="551" d="M505 237q0 -125 -63 -186t-165 -61t-166.5 61t-64.5 186q0 119 66 188t164 69t163.5 -68.5t65.5 -188.5zM279 58q67 0 108.5 44.5t41.5 134.5q0 85 -44 135t-109 50q-64 0 -109 -50t-45 -135q0 -89 45.5 -134t111.5 -45z" />
<glyph unicode="p" horiz-adv-x="548" d="M277 55q67 0 104 50.5t37 134.5q0 81 -35 131.5t-98 50.5q-60 0 -96.5 -32.5t-36.5 -81.5v-143q0 -52 39 -81t86 -29zM152 36v-236h-76v681h54l19 -56h2q18 25 56 47t92 22q91 0 144.5 -68.5t53.5 -185.5q0 -115 -57 -182.5t-157 -67.5q-82 0 -131 46z" />
<glyph unicode="q" horiz-adv-x="543" d="M467 -199h-73v238q-49 -49 -150 -49q-91 0 -144.5 68.5t-53.5 185.5q0 115 57 182.5t157 67.5q44 0 79 -14.5t47 -26.5t18 -21l20 49h43v-680zM266 421q-67 0 -104 -47t-37 -130q0 -81 35 -132t98 -51q60 0 96.5 33t36.5 82v135q0 52 -39 81t-86 29z" />
<glyph unicode="r" horiz-adv-x="358" d="M76 481h56l22 -64h3q42 77 118 77q32 0 60 -13l-25 -78q-24 7 -51 7q-107 0 -107 -166v-244h-76v481z" />
<glyph unicode="s" horiz-adv-x="440" d="M355 379q-6 5 -16.5 13t-42 21t-60.5 13q-45 0 -74 -19t-29 -57q0 -9 2 -16t4.5 -12t8.5 -10t9.5 -8t13 -6.5t14 -5l16.5 -5.5t17 -5q51 -14 86 -29t63.5 -46t28.5 -73q0 -24 -8.5 -47.5t-27 -46t-53.5 -36.5t-82 -14q-53 0 -99 16t-66 32l-20 16l35 52q7 -6 19.5 -14.5 t49 -23t72.5 -14.5q49 0 77 22.5t28 54.5q0 33 -33 51.5t-101 36.5q-27 8 -44.5 15.5t-39.5 21.5t-33 37t-11 54q0 64 46.5 105.5t122.5 41.5q44 0 85 -15t61 -31l19 -15z" />
<glyph unicode="t" horiz-adv-x="353" d="M311 5q-56 -15 -90 -15q-55 0 -79.5 33t-24.5 115v275h-82v68h82v131h76v-131h118v-68h-118v-281q0 -67 59 -67l55 4z" />
<glyph unicode="u" horiz-adv-x="544" d="M468 481v-481h-52l-24 59h-2q-52 -69 -147 -69q-78 0 -126 47.5t-48 117.5v326h76v-279q0 -142 119 -142q64 0 96 43t32 111v267h76z" />
<glyph unicode="v" horiz-adv-x="498" d="M211 0l-195 481h82l133 -336q11 -26 16 -48q4 20 16 48l138 336h81l-199 -481h-72z" />
<glyph unicode="w" horiz-adv-x="780" d="M381 335l-120 -335h-69l-176 481h81l125 -342q6 -18 7 -30q2 13 8 30l120 342h63l126 -342q6 -17 9 -33q3 16 9 33l122 342h78l-175 -481h-70l-123 335q-3 7 -7 29q-3 -13 -8 -29z" />
<glyph unicode="x" horiz-adv-x="492" d="M247 179l-119 -179h-92l167 240l-167 241h87l124 -182l122 182h86l-165 -243l166 -238h-90z" />
<glyph unicode="y" horiz-adv-x="494" d="M269 -42q-22 -61 -60.5 -92.5t-77 -31t-77.5 12.5l23 61q42 -15 76 5.5t47 57t1 67.5l-184 443h79l140 -345q7 -15 13 -40q3 14 13 40l137 345h79z" />
<glyph unicode="z" horiz-adv-x="425" d="M389 0h-353v64l252 349h-250v68h339v-65l-252 -348h264v-68z" />
<glyph unicode="{" horiz-adv-x="420" d="M335 -214v-76q-87 23 -133.5 74.5t-46.5 159.5v138q0 74 -26.5 108t-79.5 51v80q53 17 79.5 51t26.5 108v138q0 108 46.5 159.5t133.5 74.5v-76q-54 -17 -80 -49.5t-26 -106.5v-138q0 -144 -90 -201q90 -57 90 -201v-138q0 -74 26 -106.5t80 -49.5z" />
<glyph unicode="|" horiz-adv-x="420" d="M174 -211v970h72v-970h-72z" />
<glyph unicode="}" horiz-adv-x="420" d="M85 -214q54 17 80 49.5t26 106.5v138q0 144 90 201q-90 57 -90 201v138q0 74 -26 106.5t-80 49.5v76q87 -23 133.5 -74.5t46.5 -159.5v-138q0 -74 26.5 -108t79.5 -51v-80q-53 -17 -79.5 -51t-26.5 -108v-138q0 -108 -46.5 -159.5t-133.5 -74.5v76z" />
<glyph unicode="~" horiz-adv-x="448" d="M18 276q7 11 59 36.5t88 25.5q25 0 68 -22t66 -22q26 0 57.5 12t42.5 20l30 -58q-88 -56 -134 -56q-26 0 -70 22t-68 22q-25 0 -59.5 -13.5t-47.5 -23.5z" />
<glyph unicode="&#xa1;" horiz-adv-x="249" d="M195 454q0 -66 -67 -66q-64 0 -64 66q0 65 64 65q67 0 67 -65zM179 -175h-94l14 486h66z" />
<glyph unicode="&#xa2;" horiz-adv-x="600" d="M499 29q-77 -30 -130 -36v-106h-78v104q-94 10 -146.5 75.5t-52.5 173.5q0 104 48.5 173.5t150.5 79.5v117h78v-119q84 -11 124 -51l-41 -53q-46 33 -122 33q-72 0 -117 -43.5t-45 -133.5q0 -53 17 -91.5t44.5 -56.5t53.5 -26t53 -8q63 0 137 30z" />
<glyph unicode="&#xa3;" horiz-adv-x="600" d="M490 0h-405v70h79v271h-79v70h79v79q0 104 61 154.5t158 50.5q52 0 96 -13.5t62 -27.5l18 -14l-38 -58q-6 5 -18 12.5t-48.5 20t-74.5 12.5q-139 0 -139 -151v-65h193l-38 -70h-155v-271h249v-70z" />
<glyph unicode="&#xa4;" horiz-adv-x="600" d="M426 91l-36 36q-32 -19 -90 -19q-57 0 -90 21l-36 -36l-29 29l36 36q-21 33 -21 90q0 58 20 89l-36 37l29 29l35 -35q34 23 92 23q59 0 92 -21l35 34l29 -29l-35 -34q21 -32 21 -93q0 -59 -21 -92l35 -35zM300 332q-45 0 -64 -19t-19 -65q0 -45 19 -64t64 -19q46 0 65 19 t19 64q0 46 -19 65t-65 19z" />
<glyph unicode="&#xa5;" horiz-adv-x="600" d="M264 0v157h-157v70h157v70h-157v70h123l-198 315h94l167 -275l9 -17l9 17l166 275h92l-194 -315h124v-70h-157v-70h157v-70h-157v-157h-78z" />
<glyph unicode="&#xa6;" horiz-adv-x="420" d="M174 332v352h72v-352h-72zM174 -182v380h72v-380h-72z" />
<glyph unicode="&#xa7;" horiz-adv-x="600" d="M297 266q47 -2 76.5 18t30.5 55q2 34 -25 54t-76 22q-103 3 -107 -65q-2 -36 25 -59t76 -25zM482 120q-3 -56 -55 -95t-148 -34q-53 3 -95 18.5t-58 29.5l-15 14l44 54q4 -5 12.5 -12t42 -20.5t75.5 -15.5q104 -5 109 55q1 31 -31 52.5t-82 26.5q-70 11 -117 49.5 t-44 105.5q4 65 62 111q-67 36 -64 102q3 56 55 95t148 34q52 -3 94 -18.5t58 -29.5l16 -14l-44 -54q-4 5 -12.5 12t-42 20.5t-75.5 15.5q-105 5 -108 -54q-2 -32 30 -53.5t82 -27.5q54 -9 90 -29.5t49.5 -45.5t18 -44t2.5 -37q-3 -63 -61 -109q67 -36 64 -102z" />
<glyph unicode="&#xa8;" horiz-adv-x="355" d="M76 704q53 0 53 -53t-53 -53t-53 53t53 53zM279 704q53 0 53 -53t-53 -53t-53 53t53 53z" />
<glyph unicode="&#xa9;" horiz-adv-x="848" d="M777 340q0 -189 -84.5 -271.5t-268.5 -82.5t-268.5 82.5t-84.5 271.5q0 181 86 266.5t267 85.5t267 -85.5t86 -266.5zM562 231q-51 -27 -123 -27q-133 0 -133 134q0 140 124 140q32 0 60.5 -8t41.5 -16l12 -9l27 48q-50 51 -140 51q-96 0 -148 -57t-52 -153 q0 -193 205 -193q44 0 82 9.5t54 18.5l16 9z" />
<glyph unicode="&#xaa;" horiz-adv-x="477" d="M202 398q77 0 93 58v48q-80 7 -113.5 -9t-33.5 -54q0 -18 14 -30.5t40 -12.5zM302 386q-38 -50 -105 -50q-56 0 -85.5 28.5t-29.5 71.5q0 60 49 97.5t164 30.5v5q0 33 -16.5 45t-53.5 12q-68 0 -106 -29l-24 53q58 42 135 42q127 0 127 -123v-225h-37zM67 211v58h325v-58 h-325z" />
<glyph unicode="&#xab;" horiz-adv-x="538" d="M442 85l-56 -39l-132 196l132 196l56 -39l-105 -157zM269 85l-56 -39l-132 196l132 196l56 -39l-105 -157z" />
<glyph unicode="&#xac;" d="M407 166v140h-364v70h434v-210h-70z" />
<glyph unicode="&#xad;" horiz-adv-x="364" d="M32 297h300v-70h-300v70z" />
<glyph unicode="&#xae;" horiz-adv-x="848" d="M777 340q0 -189 -84.5 -271.5t-268.5 -82.5t-268.5 82.5t-84.5 271.5q0 181 86 266.5t267 85.5t267 -85.5t86 -266.5zM352 337v146h61q52 0 77 -16t25 -61q0 -36 -19 -52.5t-68 -16.5h-76zM352 279h66l97 -118h79l-106 128q92 28 92 119q0 55 -38.5 93t-114.5 38h-138 v-378h63v118z" />
<glyph unicode="&#xb0;" horiz-adv-x="408" d="M205 451q-67 0 -115.5 48.5t-48.5 115.5t48.5 115.5t115.5 48.5t115.5 -48.5t48.5 -115.5t-48.5 -115.5t-115.5 -48.5zM205 530q35 0 60 25t25 60t-25 60t-60 25t-60 -25t-25 -60t25 -60t60 -25z" />
<glyph unicode="&#xb1;" d="M225 134v182h-182v70h182v182h70v-182h182v-70h-182v-182h-70zM477 0h-434v70h434v-70z" />
<glyph unicode="&#xb2;" horiz-adv-x="389" d="M329 307h-276l10 62q7 5 19 13.5t43 33.5t54.5 48t42.5 52t19 51q0 29 -22 45.5t-59 16.5q-20 0 -40 -6.5t-30 -13.5l-10 -7l-29 56q63 34 127 34q67 0 99.5 -28.5t32.5 -78.5q0 -62 -46 -122t-99 -97q34 5 75 6.5t65 0.5l24 -1v-65z" />
<glyph unicode="&#xb3;" horiz-adv-x="376" d="M172 297q-37 0 -67 9.5t-42 19.5l-12 9l28 51q30 -28 96 -28q31 0 51.5 18t20.5 44q0 30 -32.5 46.5t-64.5 18.5l-33 2v29l99 108q-56 -3 -87 -3h-64v61h244l-5 -46l-94 -102q16 -4 31 -10.5t34.5 -18.5t31.5 -33t12 -47q0 -60 -38.5 -94t-108.5 -34z" />
<glyph unicode="&#xb4;" horiz-adv-x="265" d="M39 581l100 163l87 -40l-133 -146z" />
<glyph unicode="&#xb6;" horiz-adv-x="614" d="M398 594v-794h-71v423q-265 3 -265 230q0 229 285 229h167v-882h-71v794h-45z" />
<glyph unicode="&#xb7;" horiz-adv-x="201" d="M99 295q67 0 67 -66q0 -65 -67 -65q-64 0 -64 65q0 66 64 66z" />
<glyph unicode="&#xb8;" horiz-adv-x="205" d="M80 -222q-19 3 -39 9t-30 11l-10 4l18 43q5 -2 12.5 -4.5t28 -7t36.5 -4.5t30.5 9t17.5 27q3 30 -29.5 49.5t-83.5 24.5l9 42q88 -6 129 -37t34 -83q-5 -45 -39.5 -65.5t-83.5 -17.5z" />
<glyph unicode="&#xb9;" horiz-adv-x="417" d="M342 307h-276v64h114v242l-109 -25v58l146 42h27v-317h98v-64z" />
<glyph unicode="&#xba;" horiz-adv-x="459" d="M399 509q0 -89 -46.5 -132.5t-121.5 -43.5t-123 43.5t-48 132.5q0 86 48 134.5t121 48.5q74 0 122 -48.5t48 -134.5zM233 395q42 0 68 28t26 86q0 55 -27.5 86t-70.5 31q-41 0 -70 -31.5t-29 -85.5q0 -57 29.5 -85.5t73.5 -28.5zM67 211v58h325v-58h-325z" />
<glyph unicode="&#xbb;" horiz-adv-x="538" d="M152 47l-56 39l105 157l-105 157l56 39l132 -196zM325 46l-56 39l105 157l-105 157l56 39l132 -196z" />
<glyph unicode="&#xbf;" horiz-adv-x="427" d="M231 400q-60 0 -60 59q0 31 14.5 45t45.5 14q57 0 57 -59t-57 -59zM30 -35q0 54 17.5 90.5t42.5 57.5t49 43t40 62.5t14 100.5h76q2 -57 -8.5 -100t-28.5 -66.5t-39.5 -45t-40.5 -36t-31.5 -38t-12.5 -53.5q0 -51 27.5 -78t73.5 -27q48 0 81.5 25t50.5 63l56 -41 q-20 -51 -72.5 -86.5t-127.5 -35.5q-73 0 -120 43t-47 122z" />
<glyph unicode="&#xc0;" horiz-adv-x="659" d="M197 874l88 40l100 -163l-55 -23zM290 440l-78 -184h235l-79 185q-19 44 -39 101q-12 -37 -39 -102zM557 0l-82 190h-291l-82 -190h-84l293 682h37l293 -682h-84z" />
<glyph unicode="&#xc1;" horiz-adv-x="659" d="M291 757l100 163l87 -40l-133 -146zM290 440l-78 -184h235l-79 185q-19 44 -39 101q-12 -37 -39 -102zM557 0l-82 190h-291l-82 -190h-84l293 682h37l293 -682h-84z" />
<glyph unicode="&#xc2;" horiz-adv-x="659" d="M431 754l-102 93l-94 -92l-55 48l110 104h76l119 -106zM290 440l-78 -184h235l-79 185q-19 44 -39 101q-12 -37 -39 -102zM557 0l-82 190h-291l-82 -190h-84l293 682h37l293 -682h-84z" />
<glyph unicode="&#xc3;" horiz-adv-x="659" d="M181 808q56 56 100 56q27 0 58 -20.5t51 -20.5q10 0 20.5 2t20 6t15.5 7t13.5 7t9.5 5l21 -42q-61 -54 -100 -54q-26 0 -57 20.5t-52 20.5q-45 0 -74 -22zM290 440l-78 -184h235l-79 185q-19 44 -39 101q-12 -37 -39 -102zM557 0l-82 190h-291l-82 -190h-84l293 682h37 l293 -682h-84z" />
<glyph unicode="&#xc4;" horiz-adv-x="659" d="M209 871q53 0 53 -53t-53 -53t-53 53t53 53zM505 818q0 -53 -53 -53t-53 53t53 53t53 -53zM290 440l-78 -184h235l-79 185q-19 44 -39 101q-12 -37 -39 -102zM557 0l-82 190h-291l-82 -190h-84l293 682h37l293 -682h-84z" />
<glyph unicode="&#xc5;" horiz-adv-x="659" d="M227 826q0 49 27.5 76.5t76.5 27.5t76.5 -27.5t27.5 -76.5t-27.5 -76.5t-76.5 -27.5t-76.5 27.5t-27.5 76.5zM331 777q49 0 49 49t-49 49t-49 -49t49 -49zM290 440l-78 -184h235l-79 185q-19 44 -39 101q-12 -37 -39 -102zM557 0l-82 190h-291l-82 -190h-84l293 682h37 l293 -682h-84z" />
<glyph unicode="&#xc6;" horiz-adv-x="963" d="M403 451l-129 -198h187v292q-38 -65 -58 -94zM460 176h-236l-115 -176h-91l443 682h442v-77h-362v-224h310v-77h-310v-227h362v-77h-442v178z" />
<glyph unicode="&#xc7;" horiz-adv-x="646" d="M124 332q0 -131 65 -198t168 -67q56 0 99 7.5t66 17t60 28.5l29 -61q-103 -71 -261 -71q-144 0 -226 93t-82 251q0 164 82.5 263.5t234.5 99.5q146 0 236 -64l-34 -62q-79 49 -205 49q-102 0 -167 -70t-65 -216zM473 -166q-5 -45 -39.5 -65.5t-83.5 -17.5q-19 3 -39 9 t-30 10l-10 5l18 43q5 -2 12.5 -4.5t28 -7t36.5 -4.5t30.5 9t17.5 27q3 30 -29.5 49.5t-83.5 24.5l9 42q88 -6 129 -37t34 -83z" />
<glyph unicode="&#xc8;" horiz-adv-x="566" d="M179 874l88 40l100 -163l-55 -23zM84 0v682h422v-72h-343v-231h291v-72h-291v-235h343v-72h-422z" />
<glyph unicode="&#xc9;" horiz-adv-x="566" d="M231 757l100 163l87 -40l-133 -146zM84 0v682h422v-72h-343v-231h291v-72h-291v-235h343v-72h-422z" />
<glyph unicode="&#xca;" horiz-adv-x="566" d="M410 754l-102 93l-94 -92l-55 48l110 104h76l119 -106zM84 0v682h422v-72h-343v-231h291v-72h-291v-235h343v-72h-422z" />
<glyph unicode="&#xcb;" horiz-adv-x="566" d="M174 871q53 0 53 -53t-53 -53t-53 53t53 53zM470 818q0 -53 -53 -53t-53 53t53 53t53 -53zM84 0v682h422v-72h-343v-231h291v-72h-291v-235h343v-72h-422z" />
<glyph unicode="&#xcc;" horiz-adv-x="356" d="M48 874l88 40l100 -163l-55 -23zM238 0h-78v682h78v-682z" />
<glyph unicode="&#xcd;" horiz-adv-x="355" d="M128 757l100 163l87 -40l-133 -146zM207 0h-78v682h78v-682z" />
<glyph unicode="&#xce;" horiz-adv-x="473" d="M345 754l-102 93l-94 -92l-55 48l110 104h76l119 -106zM281 0h-78v682h78v-682z" />
<glyph unicode="&#xcf;" horiz-adv-x="517" d="M137 871q53 0 53 -53t-53 -53t-53 53t53 53zM433 818q0 -53 -53 -53t-53 53t53 53t53 -53zM306 0h-78v682h78v-682z" />
<glyph unicode="&#xd0;" horiz-adv-x="661" d="M273 72q275 0 275 269q0 147 -67.5 208t-206.5 61h-111v-247h138v-79h-138v-212h110zM84 0v284h-83v79h83v319h209q166 0 250 -89.5t84 -255.5q0 -161 -84 -249t-249 -88h-210z" />
<glyph unicode="&#xd1;" horiz-adv-x="702" d="M212 808q56 56 100 56q27 0 58 -20.5t51 -20.5q10 0 20.5 2t20 6t15.5 7t13.5 7t9.5 5l21 -42q-61 -54 -100 -54q-26 0 -57 20.5t-52 20.5q-45 0 -74 -22zM162 506v-506h-78v682h78l362 -511q8 -12 19 -36q0 5 -1 13.5t-1.5 15.5t-0.5 12v506h78v-682h-78l-354 511 q-10 16 -26 48q2 -34 2 -53z" />
<glyph unicode="&#xd2;" horiz-adv-x="733" d="M228 874l88 40l100 -163l-55 -23zM46 345q0 167 90.5 258.5t229.5 91.5t230.5 -91.5t90.5 -258.5q-1 -180 -89.5 -267.5t-231.5 -87.5t-231.5 87.5t-88.5 267.5zM366 59q111 0 177 79t66 207q0 119 -67 198.5t-176 79.5t-175.5 -79.5t-66.5 -198.5q0 -128 66 -207 t176 -79z" />
<glyph unicode="&#xd3;" horiz-adv-x="733" d="M304 757l100 163l87 -40l-133 -146zM46 345q0 167 90.5 258.5t229.5 91.5t230.5 -91.5t90.5 -258.5q-1 -180 -89.5 -267.5t-231.5 -87.5t-231.5 87.5t-88.5 267.5zM366 59q111 0 177 79t66 207q0 119 -67 198.5t-176 79.5t-175.5 -79.5t-66.5 -198.5q0 -128 66 -207 t176 -79z" />
<glyph unicode="&#xd4;" horiz-adv-x="733" d="M470 754l-102 93l-94 -92l-55 48l110 104h76l119 -106zM46 345q0 167 90.5 258.5t229.5 91.5t230.5 -91.5t90.5 -258.5q-1 -180 -89.5 -267.5t-231.5 -87.5t-231.5 87.5t-88.5 267.5zM366 59q111 0 177 79t66 207q0 119 -67 198.5t-176 79.5t-175.5 -79.5t-66.5 -198.5 q0 -128 66 -207t176 -79z" />
<glyph unicode="&#xd5;" horiz-adv-x="733" d="M222 808q56 56 100 56q27 0 58 -20.5t51 -20.5q10 0 20.5 2t20 6t15.5 7t13.5 7t9.5 5l21 -42q-61 -54 -100 -54q-26 0 -57 20.5t-52 20.5q-45 0 -74 -22zM46 345q0 167 90.5 258.5t229.5 91.5t230.5 -91.5t90.5 -258.5q-1 -180 -89.5 -267.5t-231.5 -87.5t-231.5 87.5 t-88.5 267.5zM366 59q111 0 177 79t66 207q0 119 -67 198.5t-176 79.5t-175.5 -79.5t-66.5 -198.5q0 -128 66 -207t176 -79z" />
<glyph unicode="&#xd6;" horiz-adv-x="733" d="M244 871q53 0 53 -53t-53 -53t-53 53t53 53zM540 818q0 -53 -53 -53t-53 53t53 53t53 -53zM46 345q0 167 90.5 258.5t229.5 91.5t230.5 -91.5t90.5 -258.5q-1 -180 -89.5 -267.5t-231.5 -87.5t-231.5 87.5t-88.5 267.5zM366 59q111 0 177 79t66 207q0 119 -67 198.5 t-176 79.5t-175.5 -79.5t-66.5 -198.5q0 -128 66 -207t176 -79z" />
<glyph unicode="&#xd7;" d="M389 93l-129 129l-129 -129l-49 49l129 129l-129 129l49 49l129 -129l129 129l49 -49l-129 -129l129 -129z" />
<glyph unicode="&#xd8;" horiz-adv-x="763" d="M380 -13q-120 0 -201 59l-44 -54h-89l84 102q-72 90 -72 246q0 167 91.5 261t230.5 94q112 0 194 -61l54 65h89l-93 -112q79 -95 79 -247q-1 -180 -90 -266.5t-233 -86.5zM136 340q0 -109 48 -180l339 412q-60 46 -143 46q-110 0 -177 -79t-67 -199zM380 64q113 0 179 74 t66 202q0 108 -54 182l-339 -412q60 -46 148 -46z" />
<glyph unicode="&#xd9;" horiz-adv-x="671" d="M210 874l88 40l100 -163l-55 -23zM69 282v400h78v-402q0 -114 44.5 -167t144.5 -53t144 53t44 168v401h78v-400q0 -142 -61.5 -217t-204.5 -75t-205 75t-62 217z" />
<glyph unicode="&#xda;" horiz-adv-x="671" d="M262 757l100 163l87 -40l-133 -146zM69 282v400h78v-402q0 -114 44.5 -167t144.5 -53t144 53t44 168v401h78v-400q0 -142 -61.5 -217t-204.5 -75t-205 75t-62 217z" />
<glyph unicode="&#xdb;" horiz-adv-x="671" d="M437 754l-102 93l-94 -92l-55 48l110 104h76l119 -106zM69 282v400h78v-402q0 -114 44.5 -167t144.5 -53t144 53t44 168v401h78v-400q0 -142 -61.5 -217t-204.5 -75t-205 75t-62 217z" />
<glyph unicode="&#xdc;" horiz-adv-x="671" d="M214 871q53 0 53 -53t-53 -53t-53 53t53 53zM510 818q0 -53 -53 -53t-53 53t53 53t53 -53zM69 282v400h78v-402q0 -114 44.5 -167t144.5 -53t144 53t44 168v401h78v-400q0 -142 -61.5 -217t-204.5 -75t-205 75t-62 217z" />
<glyph unicode="&#xdd;" horiz-adv-x="565" d="M237 757l100 163l87 -40l-133 -146zM246 0v312l-232 370h94l167 -275l9 -17l9 17l166 275h92l-227 -369v-313h-78z" />
<glyph unicode="&#xde;" horiz-adv-x="570" d="M160 532v-273h116q94 0 133.5 35.5t39.5 101.5q0 68 -39 102t-135 34h-115zM276 179h-116v-179h-80v770h80v-158h116q75 0 128 -18t80.5 -50t39.5 -68t12 -79q0 -41 -12 -77t-39.5 -69t-81 -52.5t-127.5 -19.5z" />
<glyph unicode="&#xdf;" horiz-adv-x="568" d="M156 481v-481h-76v487q0 102 53.5 158.5t151.5 56.5q96 0 149.5 -52t53.5 -137q0 -101 -83 -158q108 -43 108 -166q0 -82 -62.5 -135.5t-176.5 -53.5h-26v76h18q67 0 116 28t49 91q0 110 -150 118l-33 2v76l33 2q62 3 92 37t30 81q0 50 -34.5 81t-92.5 31 q-120 0 -120 -142z" />
<glyph unicode="&#xe0;" horiz-adv-x="476" d="M103 706l88 40l100 -163l-55 -23zM202 54q55 0 86 28t43 64v85q-116 10 -165 -16t-49 -82q0 -79 85 -79zM358 0l-24 59q-52 -69 -139 -69q-76 0 -113 38.5t-37 101.5q0 81 66 127t220 35v27q0 53 -23 79t-74 26q-80 0 -141 -41l-28 52q78 59 175 59q86 0 126.5 -43 t40.5 -134v-317h-49z" />
<glyph unicode="&#xe1;" horiz-adv-x="476" d="M191 581l100 163l87 -40l-133 -146zM202 54q55 0 86 28t43 64v85q-116 10 -165 -16t-49 -82q0 -79 85 -79zM358 0l-24 59q-52 -69 -139 -69q-76 0 -113 38.5t-37 101.5q0 81 66 127t220 35v27q0 53 -23 79t-74 26q-80 0 -141 -41l-28 52q78 59 175 59q86 0 126.5 -43 t40.5 -134v-317h-49z" />
<glyph unicode="&#xe2;" horiz-adv-x="476" d="M118 577l-43 51l120 108h87l120 -108l-43 -51l-121 106zM202 54q55 0 86 28t43 64v85q-116 10 -165 -16t-49 -82q0 -79 85 -79zM358 0l-24 59q-52 -69 -139 -69q-76 0 -113 38.5t-37 101.5q0 81 66 127t220 35v27q0 53 -23 79t-74 26q-80 0 -141 -41l-28 52q78 59 175 59 q86 0 126.5 -43t40.5 -134v-317h-49z" />
<glyph unicode="&#xe3;" horiz-adv-x="476" d="M81 619q56 56 100 56q27 0 58 -20.5t51 -20.5q10 0 20.5 2t20 6t15.5 7t13.5 7t9.5 5l21 -42q-61 -54 -100 -54q-26 0 -57 20.5t-52 20.5q-45 0 -74 -22zM202 54q55 0 86 28t43 64v85q-116 10 -165 -16t-49 -82q0 -79 85 -79zM358 0l-24 59q-52 -69 -139 -69 q-76 0 -113 38.5t-37 101.5q0 81 66 127t220 35v27q0 53 -23 79t-74 26q-80 0 -141 -41l-28 52q78 59 175 59q86 0 126.5 -43t40.5 -134v-317h-49z" />
<glyph unicode="&#xe4;" horiz-adv-x="476" d="M136 704q53 0 53 -53t-53 -53t-53 53t53 53zM339 704q53 0 53 -53t-53 -53t-53 53t53 53zM202 54q55 0 86 28t43 64v85q-116 10 -165 -16t-49 -82q0 -79 85 -79zM358 0l-24 59q-52 -69 -139 -69q-76 0 -113 38.5t-37 101.5q0 81 66 127t220 35v27q0 53 -23 79t-74 26 q-80 0 -141 -41l-28 52q78 59 175 59q86 0 126.5 -43t40.5 -134v-317h-49z" />
<glyph unicode="&#xe5;" horiz-adv-x="476" d="M242 566q-49 0 -76.5 27.5t-27.5 76.5t27.5 76.5t76.5 27.5t76.5 -27.5t27.5 -76.5t-27.5 -76.5t-76.5 -27.5zM242 621q49 0 49 49t-49 49t-49 -49t49 -49zM202 54q55 0 86 28t43 64v85q-116 10 -165 -16t-49 -82q0 -79 85 -79zM358 0l-24 59q-52 -69 -139 -69 q-76 0 -113 38.5t-37 101.5q0 81 66 127t220 35v27q0 53 -23 79t-74 26q-80 0 -141 -41l-28 52q78 59 175 59q86 0 126.5 -43t40.5 -134v-317h-49z" />
<glyph unicode="&#xe6;" horiz-adv-x="791" d="M546 420q-56 0 -92.5 -33.5t-45.5 -98.5h252q0 132 -114 132zM201 54q59 0 93.5 32t36.5 65v50q-1 4 -1.5 11.5t-0.5 11.5q-113 13 -162.5 -14.5t-50.5 -80.5q1 -75 85 -75zM739 41q-30 -22 -79.5 -36.5t-99.5 -14.5q-124 0 -187 91q-24 -38 -69 -64.5t-109 -26.5 q-76 0 -113 38.5t-37 101.5q0 81 66 126t220 34v29q0 53 -23 79t-74 26q-80 0 -141 -41l-28 52q76 58 175 58q111 0 147 -71q56 69 162 69q51 0 88.5 -17t57.5 -44.5t32 -63t12 -73t-2 -73.5h-330q4 -45 21.5 -77t43 -47.5t50.5 -22t52 -6.5q34 0 68 9.5t50 18.5l17 9z" />
<glyph unicode="&#xe7;" horiz-adv-x="489" d="M447 440l-41 -53q-46 33 -122 33q-72 0 -117 -43.5t-45 -133.5q0 -53 17 -91.5t44.5 -56.5t53.5 -26t53 -8q63 0 137 30l26 -62q-96 -39 -178 -39q-108 0 -168.5 66.5t-60.5 183.5q0 112 56 183t174 71q117 0 171 -54zM371 -164q-5 -45 -39.5 -65.5t-83.5 -17.5 q-19 3 -39 9t-30 10l-10 5l18 43q5 -2 12.5 -4.5t28 -7t36.5 -4.5t30.5 9t17.5 27q3 30 -29.5 49.5t-83.5 24.5l9 42q88 -6 129 -37t34 -83z" />
<glyph unicode="&#xe8;" horiz-adv-x="516" d="M143 706l88 40l100 -163l-55 -23zM260 425q-59 0 -96 -36t-44 -106h263q0 71 -32 106.5t-91 35.5zM456 41q-30 -22 -79.5 -36.5t-100.5 -14.5q-108 0 -169 69.5t-61 183.5q0 107 56.5 179t163.5 72q54 0 93 -19.5t59.5 -52.5t29.5 -70.5t9 -80.5q0 -25 -3 -51h-335 q13 -158 170 -158q37 0 72 9t51 19l16 9z" />
<glyph unicode="&#xe9;" horiz-adv-x="516" d="M211 581l100 163l87 -40l-133 -146zM260 425q-59 0 -96 -36t-44 -106h263q0 71 -32 106.5t-91 35.5zM456 41q-30 -22 -79.5 -36.5t-100.5 -14.5q-108 0 -169 69.5t-61 183.5q0 107 56.5 179t163.5 72q54 0 93 -19.5t59.5 -52.5t29.5 -70.5t9 -80.5q0 -25 -3 -51h-335 q13 -158 170 -158q37 0 72 9t51 19l16 9z" />
<glyph unicode="&#xea;" horiz-adv-x="516" d="M144 576l-43 51l120 108h87l120 -108l-43 -51l-121 106zM260 425q-59 0 -96 -36t-44 -106h263q0 71 -32 106.5t-91 35.5zM456 41q-30 -22 -79.5 -36.5t-100.5 -14.5q-108 0 -169 69.5t-61 183.5q0 107 56.5 179t163.5 72q54 0 93 -19.5t59.5 -52.5t29.5 -70.5t9 -80.5 q0 -25 -3 -51h-335q13 -158 170 -158q37 0 72 9t51 19l16 9z" />
<glyph unicode="&#xeb;" horiz-adv-x="516" d="M162 704q53 0 53 -53t-53 -53t-53 53t53 53zM365 704q53 0 53 -53t-53 -53t-53 53t53 53zM260 425q-59 0 -96 -36t-44 -106h263q0 71 -32 106.5t-91 35.5zM456 41q-30 -22 -79.5 -36.5t-100.5 -14.5q-108 0 -169 69.5t-61 183.5q0 107 56.5 179t163.5 72q54 0 93 -19.5 t59.5 -52.5t29.5 -70.5t9 -80.5q0 -25 -3 -51h-335q13 -158 170 -158q37 0 72 9t51 19l16 9z" />
<glyph unicode="&#xec;" horiz-adv-x="228" d="M-39 706l88 40l100 -163l-55 -23zM152 0h-76v481h76v-481z" />
<glyph unicode="&#xed;" horiz-adv-x="228" d="M69 581l100 163l87 -40l-133 -146zM76 481h76v-481h-76v481z" />
<glyph unicode="&#xee;" horiz-adv-x="228" d="M-3 575l-43 51l120 108h87l120 -108l-43 -51l-121 106zM76 481h76v-481h-76v481z" />
<glyph unicode="&#xef;" horiz-adv-x="228" d="M12 704q53 0 53 -53t-53 -53t-53 53t53 53zM215 704q53 0 53 -53t-53 -53t-53 53t53 53zM76 481h76v-481h-76v481z" />
<glyph unicode="&#xf1;" horiz-adv-x="544" d="M122 619q56 56 100 56q27 0 58 -20.5t51 -20.5q10 0 20.5 2t20 6t15.5 7t13.5 7t9.5 5l21 -42q-61 -54 -100 -54q-26 0 -57 20.5t-52 20.5q-45 0 -74 -22zM76 0v481h57l23 -59h2q51 72 143 72q77 0 125.5 -49t48.5 -119v-326h-76v279q0 142 -119 142q-64 0 -96 -43 t-32 -111v-267h-76z" />
<glyph unicode="&#xf2;" horiz-adv-x="551" d="M161 706l88 40l100 -163l-55 -23zM277 -10q-102 0 -166.5 61t-64.5 186q0 119 66 188t164 69t163.5 -68.5t65.5 -188.5q0 -125 -63 -186t-165 -61zM279 58q67 0 108.5 44.5t41.5 134.5q0 85 -44 135t-109 50q-64 0 -109 -50t-45 -135q0 -89 45.5 -134t111.5 -45z" />
<glyph unicode="&#xf3;" horiz-adv-x="551" d="M215 581l100 163l87 -40l-133 -146zM277 -10q-102 0 -166.5 61t-64.5 186q0 119 66 188t164 69t163.5 -68.5t65.5 -188.5q0 -125 -63 -186t-165 -61zM279 58q67 0 108.5 44.5t41.5 134.5q0 85 -44 135t-109 50q-64 0 -109 -50t-45 -135q0 -89 45.5 -134t111.5 -45z" />
<glyph unicode="&#xf4;" horiz-adv-x="551" d="M156 576l-43 51l120 108h87l120 -108l-43 -51l-121 106zM505 237q0 -125 -63 -186t-165 -61t-166.5 61t-64.5 186q0 119 66 188t164 69t163.5 -68.5t65.5 -188.5zM279 58q67 0 108.5 44.5t41.5 134.5q0 85 -44 135t-109 50q-64 0 -109 -50t-45 -135q0 -89 45.5 -134 t111.5 -45z" />
<glyph unicode="&#xf5;" horiz-adv-x="551" d="M129 620q56 56 100 56q27 0 58 -20.5t51 -20.5q10 0 20.5 2t20 6t15.5 7t13.5 7t9.5 5l21 -42q-61 -54 -100 -54q-26 0 -57 20.5t-52 20.5q-45 0 -74 -22zM505 237q0 -125 -63 -186t-165 -61t-166.5 61t-64.5 186q0 119 66 188t164 69t163.5 -68.5t65.5 -188.5zM279 58 q67 0 108.5 44.5t41.5 134.5q0 85 -44 135t-109 50q-64 0 -109 -50t-45 -135q0 -89 45.5 -134t111.5 -45z" />
<glyph unicode="&#xf6;" horiz-adv-x="551" d="M165 704q53 0 53 -53t-53 -53t-53 53t53 53zM368 704q53 0 53 -53t-53 -53t-53 53t53 53zM277 -10q-102 0 -166.5 61t-64.5 186q0 119 66 188t164 69t163.5 -68.5t65.5 -188.5q0 -125 -63 -186t-165 -61zM279 58q67 0 108.5 44.5t41.5 134.5q0 85 -44 135t-109 50 q-64 0 -109 -50t-45 -135q0 -89 45.5 -134t111.5 -45z" />
<glyph unicode="&#xf7;" d="M260 491q53 0 53 -53t-53 -53t-53 53t53 53zM477 245h-434v70h434v-70zM260 69q-53 0 -53 53t53 53t53 -53t-53 -53z" />
<glyph unicode="&#xf8;" horiz-adv-x="590" d="M299 -10q-84 0 -140 39l-24 -29h-89l65 77q-43 61 -43 160q0 119 65.5 186.5t164.5 67.5q75 0 133 -40l25 30h88l-65 -77q48 -67 48 -167q0 -125 -63 -186t-165 -61zM144 237q0 -60 20 -98l218 255q-36 27 -84 27q-64 0 -109 -49.5t-45 -134.5zM299 60q67 0 109.5 44 t42.5 133q0 61 -24 106l-218 -256q37 -27 90 -27z" />
<glyph unicode="&#xf9;" horiz-adv-x="544" d="M135 706l88 40l100 -163l-55 -23zM390 59q-52 -69 -147 -69q-78 0 -126 47.5t-48 117.5v326h76v-279q0 -142 119 -142q64 0 96 43t32 111v267h76v-481h-52l-24 59h-2z" />
<glyph unicode="&#xfa;" horiz-adv-x="544" d="M205 581l100 163l87 -40l-133 -146zM468 481v-481h-52l-24 59h-2q-52 -69 -147 -69q-78 0 -126 47.5t-48 117.5v326h76v-279q0 -142 119 -142q64 0 96 43t32 111v267h76z" />
<glyph unicode="&#xfb;" horiz-adv-x="544" d="M141 576l-43 51l120 108h87l120 -108l-43 -51l-121 106zM468 481v-481h-52l-24 59h-2q-52 -69 -147 -69q-78 0 -126 47.5t-48 117.5v326h76v-279q0 -142 119 -142q64 0 96 43t32 111v267h76z" />
<glyph unicode="&#xfc;" horiz-adv-x="544" d="M164 704q53 0 53 -53t-53 -53t-53 53t53 53zM367 704q53 0 53 -53t-53 -53t-53 53t53 53zM390 59q-52 -69 -147 -69q-78 0 -126 47.5t-48 117.5v326h76v-279q0 -142 119 -142q64 0 96 43t32 111v267h76v-481h-52l-24 59h-2z" />
<glyph unicode="&#xfd;" horiz-adv-x="494" d="M194 581l100 163l87 -40l-133 -146zM269 -42q-22 -61 -60.5 -92.5t-77 -31t-77.5 12.5l23 61q42 -15 76 5.5t47 57t1 67.5l-184 443h79l140 -345q7 -15 13 -40q3 14 13 40l137 345h79z" />
<glyph unicode="&#xfe;" horiz-adv-x="537" d="M271 55q67 0 104 50.5t37 134.5q0 81 -35 131.5t-98 50.5q-60 0 -96.5 -32.5t-36.5 -81.5v-143q0 -52 39 -81t86 -29zM146 -200h-76v900h76v-258q52 52 147 52q91 0 144.5 -68.5t53.5 -185.5q0 -115 -57 -182.5t-157 -67.5q-82 0 -131 46v-236z" />
<glyph unicode="&#xff;" horiz-adv-x="494" d="M142 704q53 0 53 -53t-53 -53t-53 53t53 53zM345 704q53 0 53 -53t-53 -53t-53 53t53 53zM269 -42q-22 -61 -60.5 -92.5t-77 -31t-77.5 12.5l23 61q42 -15 76 5.5t47 57t1 67.5l-184 443h79l140 -345q7 -15 13 -40q3 14 13 40l137 345h79z" />
<glyph unicode="&#x131;" horiz-adv-x="228" d="M76 481h76v-481h-76v481z" />
<glyph unicode="&#x152;" horiz-adv-x="1017" d="M368 67q102 0 167 62v422q-65 62 -167 62q-111 0 -176.5 -73t-65.5 -200t65.5 -200t176.5 -73zM535 0v24q-73 -37 -167 -37q-85 0 -148.5 28t-100.5 77.5t-55 111.5t-18 136q0 180 89.5 266.5t232.5 86.5q94 0 167 -37v26h422v-72h-343v-231h291v-72h-291v-235h343v-72 h-422z" />
<glyph unicode="&#x153;" horiz-adv-x="888" d="M278 60q66 0 108.5 43t42.5 130q0 88 -43.5 138t-108.5 50t-110 -50t-45 -137t44.5 -130.5t111.5 -43.5zM644 420q-57 0 -94 -34t-45 -98h252q0 132 -113 132zM836 41q-30 -22 -79.5 -36.5t-101.5 -14.5q-125 0 -187 93q-59 -93 -191 -93q-102 0 -166.5 60.5t-64.5 182.5 t65.5 190t164.5 68q125 0 187 -97q58 97 182 97q51 0 89 -17t58 -44.5t32 -63t12 -73t-2 -73.5h-329q9 -85 57 -119t109 -34q34 0 68 9.5t51 18.5l16 9z" />
<glyph unicode="&#x178;" horiz-adv-x="565" d="M157 871q53 0 53 -53t-53 -53t-53 53t53 53zM453 818q0 -53 -53 -53t-53 53t53 53t53 -53zM246 0v312l-232 370h94l167 -275l9 -17l9 17l166 275h92l-227 -369v-313h-78z" />
<glyph unicode="&#x192;" horiz-adv-x="600" d="M153 -120q-35 0 -63 9l17 67q22 -6 50 -6q46 0 65.5 28t19.5 95v340h-103v68h103v119q0 168 171 170q45 -2 77 -12l-15 -66q-21 7 -60 7q-50 0 -73.5 -24.5t-23.5 -88.5v-105h148v-68h-148v-354q0 -88 -42 -133.5t-123 -45.5z" />
<glyph unicode="&#x2c6;" horiz-adv-x="357" d="M58 576l-43 51l120 108h87l120 -108l-43 -51l-121 106z" />
<glyph unicode="&#x2c7;" horiz-adv-x="357" d="M17 656l43 51l120 -106l121 106l43 -51l-120 -108h-87z" />
<glyph unicode="&#x2d9;" horiz-adv-x="266" d="M133 712q53 0 53 -53t-53 -53t-53 53t53 53z" />
<glyph unicode="&#x2da;" horiz-adv-x="408" d="M204 566q-49 0 -76.5 27.5t-27.5 76.5t27.5 76.5t76.5 27.5t76.5 -27.5t27.5 -76.5t-27.5 -76.5t-76.5 -27.5zM204 621q49 0 49 49t-49 49t-49 -49t49 -49z" />
<glyph unicode="&#x2dc;" horiz-adv-x="379" d="M32 619q56 56 100 56q27 0 58 -20.5t51 -20.5q10 0 20.5 2t20 6t15.5 7t13.5 7t9.5 5l21 -42q-61 -54 -100 -54q-26 0 -57 20.5t-52 20.5q-45 0 -74 -22z" />
<glyph unicode="&#x3bc;" horiz-adv-x="531" d="M236 -11q-54 0 -98 26v-215h-76v681h76v-279q0 -142 119 -142q64 0 96 43t32 111v267h76v-481h-52l-24 55h-2q-50 -66 -147 -66z" />
<glyph unicode="&#x2000;" horiz-adv-x="465" />
<glyph unicode="&#x2001;" horiz-adv-x="930" />
<glyph unicode="&#x2002;" horiz-adv-x="465" />
<glyph unicode="&#x2003;" horiz-adv-x="930" />
<glyph unicode="&#x2004;" horiz-adv-x="310" />
<glyph unicode="&#x2005;" horiz-adv-x="232" />
<glyph unicode="&#x2006;" horiz-adv-x="155" />
<glyph unicode="&#x2007;" horiz-adv-x="155" />
<glyph unicode="&#x2008;" horiz-adv-x="116" />
<glyph unicode="&#x2009;" horiz-adv-x="186" />
<glyph unicode="&#x200a;" horiz-adv-x="51" />
<glyph unicode="&#x2010;" horiz-adv-x="364" d="M32 297h300v-70h-300v70z" />
<glyph unicode="&#x2011;" horiz-adv-x="364" d="M32 297h300v-70h-300v70z" />
<glyph unicode="&#x2012;" horiz-adv-x="364" d="M32 297h300v-70h-300v70z" />
<glyph unicode="&#x2013;" horiz-adv-x="480" d="M0 247v50h480v-50h-480z" />
<glyph unicode="&#x2014;" horiz-adv-x="1000" d="M11 247v50h978v-50h-978z" />
<glyph unicode="&#x2018;" horiz-adv-x="181" d="M131 800l24 -28q-8 -6 -20.5 -15.5t-33 -38t-21.5 -54.5q3 0 7 -0.5t15 -4t19.5 -10t15.5 -21t7 -33.5q0 -65 -62 -65q-67 0 -67 70q0 42 12 78t29 57.5t34 37t29 21.5z" />
<glyph unicode="&#x2019;" horiz-adv-x="181" d="M39 500l-24 28q8 6 20.5 15.5t33 38t21.5 54.5q-3 0 -7 0.5t-15 4t-19.5 10t-15.5 21t-7 33.5q0 65 62 65q67 0 67 -70q0 -42 -12 -78t-29 -57.5t-34 -37t-29 -21.5z" />
<glyph unicode="&#x201c;" horiz-adv-x="394" d="M131 800l24 -28q-8 -6 -20.5 -15.5t-33 -38t-21.5 -54.5q3 0 7 -0.5t15 -4t19.5 -10t15.5 -21t7 -33.5q0 -65 -62 -65q-67 0 -67 70q0 42 12 78t29 57.5t34 37t29 21.5zM344 800l24 -28q-8 -6 -20.5 -15.5t-33 -38t-21.5 -54.5q3 0 7 -0.5t15 -4t19.5 -10t15.5 -21 t7 -33.5q0 -65 -62 -65q-67 0 -67 70q0 42 12 78t29 57.5t34 37t29 21.5z" />
<glyph unicode="&#x201d;" horiz-adv-x="393" d="M37 500l-24 28q8 6 20.5 15.5t33 38t21.5 54.5q-3 0 -7 0.5t-15 4t-19.5 10t-15.5 21t-7 33.5q0 65 62 65q67 0 67 -70q0 -42 -12 -78t-29 -57.5t-34 -37t-29 -21.5zM249 500l-24 28q8 6 20.5 15.5t33 38t21.5 54.5q-3 0 -7 0.5t-15 4t-19.5 10t-15.5 21t-7 33.5 q0 65 62 65q67 0 67 -70q0 -42 -12 -78t-29 -57.5t-34 -37t-29 -21.5z" />
<glyph unicode="&#x2020;" horiz-adv-x="598" d="M328 422l4 -582h-66l4 582l-189 -5v64l189 -5l-4 185h66l-4 -185l189 5v-64z" />
<glyph unicode="&#x2026;" horiz-adv-x="1000" d="M193 118q67 0 67 -66q0 -65 -67 -65q-64 0 -64 65q0 66 64 66zM507 118q67 0 67 -66q0 -65 -67 -65q-64 0 -64 65q0 66 64 66zM825 118q67 0 67 -66q0 -65 -67 -65q-64 0 -64 65q0 66 64 66z" />
<glyph unicode="&#x202f;" horiz-adv-x="186" />
<glyph unicode="&#x2039;" horiz-adv-x="365" d="M269 85l-56 -39l-132 196l132 196l56 -39l-105 -157z" />
<glyph unicode="&#x203a;" horiz-adv-x="365" d="M152 46l-56 39l105 157l-105 157l56 39l132 -196z" />
<glyph unicode="&#x205f;" horiz-adv-x="232" />
<glyph unicode="&#x20ac;" horiz-adv-x="600" d="M596 59q-103 -71 -261 -71q-144 0 -226 93t-82 251q0 164 82.5 263.5t234.5 99.5q146 0 236 -64l-34 -62q-79 49 -205 49q-83 0 -142 -45.5t-80 -141.5h343l-34 -62h-318q-1 -12 -1 -37q0 -22 1 -32h278l-34 -62h-234q21 -85 80.5 -128t141.5 -43q56 0 99 7.5t66 17 t60 28.5z" />
<glyph unicode="&#x2122;" horiz-adv-x="871" d="M246 618v-279h-70v279h-126v64h315v-64h-119zM477 542v-203h-70v343h59l109 -196q6 -12 13 -28q10 26 12 28l108 196h58v-343h-68v203l5 23l-100 -193h-35l-97 193q6 -16 6 -23z" />
<glyph unicode="&#x2190;" horiz-adv-x="323" d="M228 15l-161 167l-49 51l49 51l161 167l50 -48l-162 -170l162 -170z" />
<glyph unicode="&#x2191;" horiz-adv-x="458" d="M399 176l-170 162l-170 -162l-48 50l167 161l51 49l51 -49l167 -161z" />
<glyph unicode="&#x2192;" horiz-adv-x="323" d="M256 182l-161 -167l-50 48l162 170l-162 170l50 48l161 -167l49 -51z" />
<glyph unicode="&#x2193;" horiz-adv-x="458" d="M229 65l-51 49l-167 161l48 50l170 -162l170 162l48 -50l-167 -161z" />
<glyph unicode="&#x2212;" d="M477 236h-434v70h434v-70z" />
<glyph horiz-adv-x="575" d="M331 516q0 -7 -2 -21q-2 -13 -13.5 -46t-14.5 -47q13 0 51.5 16.5t66.5 16.5q57 0 89 -48.5t32 -109.5t-22 -118q-24 -60 -66.5 -110t-94.5 -50q-12 0 -35 5.5t-35 5.5t-35 -5.5t-34 -5.5q-52 0 -96 48.5t-66 111.5t-22 118q0 62 32.5 110t90.5 48q27 0 70.5 -16.5 t56.5 -16.5q12 40 19 60q-16 4 -47 22q-34 20 -52.5 52.5t-23 62.5t-17 65.5t-34.5 58.5q43 -4 82 -26q50 -29 85 -79.5t35 -101.5zM85 205q21 0 52.5 51t35.5 75v6q0 36 -37 41q-2 0 -5.5 0.5t-4.5 0.5q-31 0 -46 -25.5t-17 -58.5q0 -5 -0.5 -12.5t-0.5 -11.5q0 -66 23 -66 z" />
<glyph horiz-adv-x="286" d="M142 704q53 0 53 -53t-53 -53t-53 53t53 53z" />
<glyph horiz-adv-x="489" d="M44 0v501h401z" />
<glyph horiz-adv-x="489" d="M445 501v-501h-401z" />
<glyph horiz-adv-x="0" d="M99 754l-102 93l-94 -92l-55 48l110 104h76l119 -106z" />
<glyph horiz-adv-x="0" d="M-92 874l88 40l100 -163l-55 -23z" />
<glyph horiz-adv-x="0" d="M-122 871q53 0 53 -53t-53 -53t-53 53t53 53zM174 818q0 -53 -53 -53t-53 53t53 53t53 -53z" />
<glyph horiz-adv-x="0" d="M-91 757l100 163l87 -40l-133 -146z" />
<glyph horiz-adv-x="653" d="M222 826q0 49 27.5 76.5t76.5 27.5t76.5 -27.5t27.5 -76.5t-27.5 -76.5t-76.5 -27.5t-76.5 27.5t-27.5 76.5zM326 777q49 0 49 49t-49 49t-49 -49t49 -49z" />
<glyph horiz-adv-x="0" d="M-152 808q56 56 100 56q27 0 58 -20.5t51 -20.5q10 0 20.5 2t20 6t15.5 7t13.5 7t9.5 5l21 -42q-61 -54 -100 -54q-26 0 -57 20.5t-52 20.5q-45 0 -74 -22z" />
<glyph horiz-adv-x="828" d="M456 -136q-204 0 -305 106t-101 285q0 166 98.5 269t270.5 103q180 0 275.5 -93t95.5 -245q0 -39 -3.5 -69.5t-14.5 -63t-29 -54t-50.5 -35.5t-75.5 -14q-96 0 -124 72l-5 -5q-5 -5 -8 -7t-9.5 -7.5t-12 -9t-14 -8t-17 -7.5t-18.5 -6t-22 -4.5t-24 -1.5q-49 0 -78.5 25.5 t-29.5 75.5q0 139 228 139v11q0 36 -16.5 52.5t-56.5 16.5q-57 0 -108 -37l-29 52q53 55 144 55q140 0 140 -142v-133q0 -67 60 -67q101 0 101 172q0 122 -76.5 198t-222.5 76q-136 0 -215.5 -77.5t-79.5 -230.5q0 -317 334 -317q153 0 253 50l25 -65q-37 -22 -109 -40.5 t-171 -18.5zM385 134q68 0 102 59v57q-88 -4 -127 -19t-39 -48q0 -24 18.5 -36.5t45.5 -12.5z" />
<glyph horiz-adv-x="848" d="M777 340q0 -189 -84.5 -271.5t-268.5 -82.5t-268.5 82.5t-84.5 271.5q0 181 86 266.5t267 85.5t267 -85.5t86 -266.5zM424 57q152 0 217 63.5t65 219.5q0 144 -67 212.5t-215 68.5q-149 0 -215.5 -66t-66.5 -215q0 -156 65.5 -219.5t216.5 -63.5zM434 211q30 0 59 6.5 t43 12.5l14 6l25 -50q-51 -35 -144 -35q-96 0 -145 47t-49 136q0 90 49.5 144.5t140.5 54.5q86 0 131 -49l-25 -45q-40 32 -107 32q-118 0 -118 -133q0 -67 31.5 -97t94.5 -30z" />
<glyph horiz-adv-x="848" d="M777 340q0 -189 -84.5 -271.5t-268.5 -82.5t-268.5 82.5t-84.5 271.5q0 181 86 266.5t267 85.5t267 -85.5t86 -266.5zM424 57q152 0 217 63.5t65 219.5q0 144 -67 212.5t-215 68.5q-149 0 -215.5 -66t-66.5 -215q0 -156 65.5 -219.5t216.5 -63.5zM356 477v-142h72 q47 0 65 16.5t18 50.5q0 44 -23.5 59.5t-73.5 15.5h-58zM415 279h-59v-115h-60v368h131q73 0 109 -37t37 -91q-2 -89 -87 -115l101 -125h-76l-92 115h-4z" />
<glyph horiz-adv-x="580" d="M294 -12q-246 0 -246 342q0 178 62 270t184 92t184 -92t62 -270q0 -342 -246 -342zM294 59q88 0 127.5 63.5t39.5 207.5q0 151 -39.5 220.5t-127.5 69.5t-127.5 -69.5t-39.5 -220.5q0 -144 39.5 -207.5t127.5 -63.5z" />
<glyph horiz-adv-x="424" d="M223 0v585h-11l-110 -66l-37 63l158 100h80v-682h-80z" />
<glyph horiz-adv-x="511" d="M462 0h-440v66q187 157 266.5 250t79.5 169q0 58 -41 93.5t-114 35.5q-44 0 -84 -13t-59 -25l-18 -13l-32 66q98 65 208 65q105 0 164.5 -56t59.5 -147q0 -26 -4 -50.5t-17 -50.5t-22 -45t-33.5 -48t-35.5 -43t-45 -46.5t-45.5 -43.5t-53 -48.5t-51.5 -46.5q82 7 167 7 h150v-76z" />
<glyph horiz-adv-x="534" d="M244 -14q-110 0 -213 57l31 64q75 -44 171 -44q154 0 154 115q0 67 -56.5 100t-187.5 33v64q230 0 230 131q0 56 -38 84.5t-101 28.5q-67 0 -134 -29l-28 60q68 43 162 43q97 0 157.5 -52t60.5 -134q0 -52 -25.5 -94t-72.5 -65q53 -23 82.5 -67.5t29.5 -101.5 q0 -84 -60.5 -138.5t-161.5 -54.5z" />
<glyph horiz-adv-x="554" d="M334 0v168h-291v74l317 440h52v-440h97v-74h-97v-168h-78zM334 242v250q0 38 8 76q-16 -51 -34 -75l-184 -251h210z" />
<glyph horiz-adv-x="538" d="M42 35l29 71q84 -40 187 -40q62 0 105 35t43 101q0 74 -63.5 107.5t-201.5 26.5l-64 -3l18 349h366v-76h-291l-10 -194q160 7 243 -44.5t83 -159.5q0 -96 -62 -157.5t-177 -61.5q-52 0 -103.5 11.5t-76.5 23.5z" />
<glyph horiz-adv-x="543" d="M493 224q0 -104 -52 -170.5t-159 -66.5q-221 0 -221 308q0 210 65 303.5t190 93.5q73 0 135 -31l-28 -70q-46 24 -110 24q-80 0 -121 -54.5t-50 -183.5q73 48 162 48q92 0 140.5 -59t48.5 -142zM283 62q58 0 95 39t37 110q0 58 -30.5 97.5t-102.5 39.5q-81 0 -142 -61 q4 -225 143 -225z" />
<glyph horiz-adv-x="479" d="M44 606v76h409v-76l-297 -606h-86l296 606h-322z" />
<glyph horiz-adv-x="583" d="M300 -13q-118 0 -180 51t-62 133q0 65 35 111.5t93 71.5q-107 55 -107 158q0 88 65.5 136t157.5 48q87 0 150 -48.5t63 -127.5q0 -50 -28 -98t-85 -77q128 -61 128 -171q0 -83 -62.5 -135t-167.5 -52zM159 514q0 -28 10.5 -48.5t34 -35.5t43 -23.5t56.5 -21.5 q133 37 133 129q0 50 -36.5 79t-98.5 29q-24 0 -46.5 -5t-45 -16.5t-36.5 -33.5t-14 -53zM301 63q57 0 101.5 28t44.5 83q0 51 -40 82t-113 57q-156 -37 -156 -134q0 -61 47 -88.5t116 -27.5z" />
<glyph horiz-adv-x="540" d="M273 329q78 0 140 42q-1 131 -36 189.5t-107 58.5q-62 0 -96.5 -40t-34.5 -113q0 -137 134 -137zM219 -13q-71 0 -129 25l14 71q60 -21 116 -21q86 0 133 52.5t57 172.5q-76 -33 -158 -33q-94 0 -142 61t-48 148q0 42 11.5 81.5t35 73.5t65.5 54.5t97 20.5 q120 0 170.5 -86t50.5 -242q0 -378 -273 -378z" />
<glyph horiz-adv-x="612" d="M306 -12q-246 0 -246 342q0 178 62 270t184 92t184 -92t62 -270q0 -342 -246 -342zM306 59q88 0 127.5 63.5t39.5 207.5q0 151 -39.5 220.5t-127.5 69.5t-127.5 -69.5t-39.5 -220.5q0 -144 39.5 -207.5t127.5 -63.5z" />
<glyph horiz-adv-x="516" d="M446 0h-354v70h136v515h-11l-110 -66l-37 63l158 100h80v-612h138v-70z" />
<glyph horiz-adv-x="587" d="M512 0h-440v66q187 157 266.5 250t79.5 169q0 58 -41 93.5t-114 35.5q-44 0 -84 -13t-59 -25l-18 -13l-32 66q97 65 208 65q105 0 164.5 -56t59.5 -147q0 -26 -4 -50.5t-17 -50.5t-22 -45t-33.5 -48t-35.5 -43t-45 -46.5t-45.5 -43.5t-53 -48.5t-51.5 -46.5q82 7 167 7 h150v-76z" />
<glyph horiz-adv-x="555" d="M263 -14q-110 0 -213 57l31 64q75 -44 171 -44q154 0 154 115q0 67 -56.5 100t-187.5 33v64q230 0 230 131q0 56 -38 84.5t-101 28.5q-67 0 -134 -29l-28 60q68 43 162 43q97 0 157.5 -52t60.5 -134q0 -52 -25.5 -94t-72.5 -65q53 -23 82.5 -67.5t29.5 -101.5 q0 -84 -60.5 -138.5t-161.5 -54.5z" />
<glyph horiz-adv-x="581" d="M346 0v168h-291v74l317 440h52v-440h97v-74h-97v-168h-78zM346 242v250q0 38 8 76q-16 -51 -34 -75l-184 -251h210z" />
<glyph horiz-adv-x="584" d="M70 35l29 71q84 -40 187 -40q62 0 105 35t43 101q0 74 -63.5 107.5t-201.5 26.5l-64 -3l18 349h366v-76h-291l-10 -194q160 7 243 -44.5t83 -159.5q0 -96 -62 -157.5t-177 -61.5q-52 0 -103.5 11.5t-76.5 23.5z" />
<glyph horiz-adv-x="562" d="M502 224q0 -104 -52 -170.5t-159 -66.5q-221 0 -221 308q0 210 65 303.5t190 93.5q73 0 135 -31l-28 -70q-46 24 -110 24q-80 0 -121 -54.5t-50 -183.5q73 48 162 48q92 0 140.5 -59t48.5 -142zM292 62q58 0 95 39t37 110q0 58 -30.5 97.5t-102.5 39.5q-81 0 -142 -61 q4 -225 143 -225z" />
<glyph horiz-adv-x="524" d="M60 606v76h409v-76l-297 -606h-86l296 606h-322z" />
<glyph horiz-adv-x="592" d="M302 -13q-118 0 -180 51t-62 133q0 65 35 111.5t93 71.5q-107 55 -107 158q0 88 65.5 136t157.5 48q87 0 150 -48.5t63 -127.5q0 -50 -28 -98t-85 -77q128 -61 128 -171q0 -83 -62.5 -135t-167.5 -52zM161 514q0 -28 10.5 -48.5t34 -35.5t43 -23.5t56.5 -21.5 q133 37 133 129q0 50 -36.5 79t-98.5 29q-24 0 -46.5 -5t-45 -16.5t-36.5 -33.5t-14 -53zM303 63q57 0 101.5 28t44.5 83q0 51 -40 82t-113 57q-156 -37 -156 -134q0 -61 47 -88.5t116 -27.5z" />
<glyph horiz-adv-x="560" d="M276 329q78 0 140 42q-1 131 -36 189.5t-107 58.5q-62 0 -96.5 -40t-34.5 -113q0 -137 134 -137zM222 -13q-71 0 -129 25l14 71q59 -21 116 -21q86 0 133 52.5t57 172.5q-76 -33 -158 -33q-94 0 -142 61t-48 148q0 42 11.5 81.5t35 73.5t65.5 54.5t97 20.5 q120 0 170.5 -86t50.5 -242q0 -378 -273 -378z" />
<glyph horiz-adv-x="558" d="M274 -12q-226 0 -226 282q0 148 57 225t169 77q116 0 176 -77t60 -225q0 -282 -236 -282zM274 59q83 0 120 49.5t37 161.5q0 120 -37.5 175t-119.5 55q-77 0 -112 -55t-35 -175q0 -112 34.5 -161.5t112.5 -49.5z" />
<glyph horiz-adv-x="344" d="M145 0v459h-11l-110 -41l-37 63l158 75h80v-556h-80z" />
<glyph horiz-adv-x="543" d="M464 0h-410v66q170 108 248 186t78 144q0 42 -36.5 71.5t-98.5 29.5q-44 0 -84 -14.5t-59 -28.5l-18 -14l-32 66q8 7 24.5 18t70.5 29t113 18q90 0 142 -46.5t52 -118.5q0 -30 -7.5 -59t-19 -52t-31.5 -47.5t-37 -41t-44.5 -38.5t-45.5 -34.5t-48.5 -33t-45.5 -31.5 q70 7 139 7h150v-76z" />
<glyph horiz-adv-x="490" d="M214 -136q-110 0 -213 57l31 64q75 -44 171 -44q154 0 154 115q0 67 -56.5 100t-187.5 33v64q230 0 230 131q0 56 -38 84.5t-101 28.5q-67 0 -134 -29l-28 60q68 43 162 43q97 0 157.5 -52t60.5 -134q0 -52 -25.5 -94t-72.5 -65q53 -23 82.5 -67.5t29.5 -101.5 q0 -84 -60.5 -138.5t-161.5 -54.5z" />
<glyph horiz-adv-x="559" d="M324 -127v168h-319v43l345 471h52v-440h125v-74h-125v-168h-78zM324 115v224q0 25 1.5 44.5t2.5 26.5l2 6q-5 -18 -46 -76l-161 -225h201z" />
<glyph horiz-adv-x="538" d="M42 -92l29 71q84 -40 187 -40q62 0 105 35t43 101q0 74 -63.5 107.5t-201.5 26.5l-64 -3l18 349h366v-76h-291l-10 -194q160 7 243 -44.5t83 -159.5q0 -96 -62 -157.5t-177 -61.5q-52 0 -103.5 11.5t-76.5 22.5z" />
<glyph horiz-adv-x="543" d="M493 224q0 -104 -52 -170.5t-159 -66.5q-221 0 -221 308q0 210 65 303.5t190 93.5q73 0 135 -31l-28 -70q-46 24 -110 24q-80 0 -121 -54.5t-50 -183.5q73 48 162 48q92 0 140.5 -59t48.5 -142zM283 62q58 0 95 39t37 110q0 58 -30.5 97.5t-102.5 39.5q-81 0 -142 -61 q4 -225 143 -225z" />
<glyph horiz-adv-x="479" d="M44 479v76h409v-76l-297 -606h-86l296 606h-322z" />
<glyph horiz-adv-x="592" d="M302 -13q-118 0 -180 51t-62 133q0 65 35 111.5t93 71.5q-107 55 -107 158q0 88 65.5 136t157.5 48q87 0 150 -48.5t63 -127.5q0 -50 -28 -98t-85 -77q128 -61 128 -171q0 -83 -62.5 -135t-167.5 -52zM161 514q0 -28 10.5 -48.5t34 -35.5t43 -23.5t56.5 -21.5 q133 37 133 129q0 50 -36.5 79t-98.5 29q-24 0 -46.5 -5t-45 -16.5t-36.5 -33.5t-14 -53zM303 63q57 0 101.5 28t44.5 83q0 51 -40 82t-113 57q-156 -37 -156 -134q0 -61 47 -88.5t116 -27.5z" />
<glyph horiz-adv-x="540" d="M273 207q78 0 140 42q-1 131 -36 189.5t-107 58.5q-62 0 -96.5 -40t-34.5 -113q0 -137 134 -137zM219 -135q-71 0 -129 25l14 71q60 -21 116 -21q86 0 133 52.5t57 172.5q-76 -33 -158 -33q-94 0 -142 61t-48 148q0 42 11.5 81.5t35 73.5t65.5 54.5t97 20.5 q120 0 170.5 -86t50.5 -242q0 -378 -273 -378z" />
</font>
</defs>
</svg>
