<?xml version="1.0" standalone="no"?>
<!DOCTYPE svg PUBLIC "-//W3C//DTD SVG 1.1//EN" "http://www.w3.org/Graphics/SVG/1.1/DTD/svg11.dtd" >
<svg xmlns="http://www.w3.org/2000/svg">
<metadata></metadata>
<defs>
<font id="zinnebeelditalic" horiz-adv-x="587" >
<font-face units-per-em="1000" ascent="800" descent="-200" />
<missing-glyph horiz-adv-x="236" />
<glyph unicode="&#xa3;Z" horiz-adv-x="480" d="M0 480h480v-480h-480v480z" />
<glyph unicode="ff" horiz-adv-x="549" d="M150 -125h-62l54 538h-84l7 68h83l12 119q8 84 47 128.5t98 44.5q62 0 96 -41l-37 -58q-22 28 -66 28q-65 0 -78 -116l-10 -105h211l12 119q8 84 47 128.5t98 44.5q61 0 95 -41l-36 -58q-22 28 -66 28q-36 0 -54 -29.5t-24 -86.5l-10 -105h115l-6 -68h-116l-47 -482h-62 l47 482h-210z" />
<glyph unicode="fi" horiz-adv-x="522" d="M493 704q47 0 42 -53q-7 -53 -54 -53q-48 0 -42 53t54 53zM91 -125l60 538h-93l7 68h93l14 119q9 84 52 128.5t109 44.5q42 0 74 -17l-34 -64q-22 10 -48 10q-74 0 -87 -116l-12 -105h129l-7 -68h-129l-59 -538h-69zM462 0h-69l54 481h68z" />
<glyph unicode="fl" horiz-adv-x="520" d="M457 770h69l-86 -770h-68zM219 413l-59 -538h-69l60 538h-93l7 68h93l13 119q10 84 53 128.5t108 44.5q70 0 107 -41l-42 -58q-24 28 -73 28q-73 0 -86 -116l-12 -105h129l-7 -68h-129z" />
<glyph unicode="ffi" horiz-adv-x="789" d="M747 704q48 0 42 -53t-54 -53t-41 53q5 53 53 53zM704 0h-68l53 481h68zM219 413l-60 -538h-68l59 538h-93l8 68h92l14 119q9 84 52 128.5t109 44.5q69 0 106 -41l-41 -58q-24 28 -73 28q-39 0 -59.5 -29.5t-27.5 -86.5l-11 -105h204l14 119q9 84 52 128.5t109 44.5 q42 0 74 -17l-34 -64q-22 10 -48 10q-74 0 -87 -116l-12 -105h129l-7 -68h-129l-54 -492h-69l55 492h-204z" />
<glyph unicode="ffl" horiz-adv-x="794" d="M731 770h68l-85 -770h-68zM368 -79l55 492h-204l-60 -538h-68l59 538h-93l8 68h92l14 119q9 84 52 128.5t109 44.5q69 0 106 -41l-41 -58q-24 28 -73 28q-39 0 -59.5 -29.5t-27.5 -86.5l-11 -105h204l14 119q9 84 52 128.5t109 44.5q42 0 74 -17l-34 -64q-22 10 -48 10 q-74 0 -87 -116l-12 -105h129l-7 -68h-129l-54 -492h-69z" />
<glyph unicode="tt" horiz-adv-x="599" d="M481 -6q-53 0 -73 33t-11 111l31 275h-204l-31 -277q-4 -40 4 -56t34 -16l52 3l6 -58q-40 -19 -79 -19q-54 0 -73.5 34.5t-10.5 113.5l31 275h-75l8 68h74l14 131h69l-16 -131h204l14 131h69l-16 -131h107l-8 -68h-106l-31 -277q-4 -40 4 -55t34 -15l52 3l6 -58 q-40 -17 -79 -17z" />
<glyph unicode=" "  horiz-adv-x="236" />
<glyph unicode="&#x09;" horiz-adv-x="236" />
<glyph unicode="&#xa0;" horiz-adv-x="236" />
<glyph unicode="!" horiz-adv-x="227" d="M149 681h84l-66 -486h-60zM111 -13q-51 0 -45 65q7 66 59 66q54 0 48 -66q-7 -65 -62 -65z" />
<glyph unicode="&#x22;" horiz-adv-x="358" d="M389 743l-50 -273h-45l12 273h83zM234 743l-49 -273h-45l11 273h83z" />
<glyph unicode="#" horiz-adv-x="459" d="M343 415h-97l-37 -138h97zM191 209l-56 -209h-70l56 209h-79l7 68h90l37 138h-79l7 68h90l53 199h70l-53 -199h97l53 199h71l-53 -199h71l-8 -68h-81l-37 -138h71l-7 -68h-82l-56 -209h-70l55 209h-97z" />
<glyph unicode="$" d="M219 511q-5 -40 17.5 -64.5t67.5 -43.5l26 217q-46 -8 -76 -37.5t-35 -71.5zM457 178q6 45 -21.5 72.5t-80.5 48.5l-29 -237q54 9 89.5 38t41.5 78zM306 -98h-64l10 84q-46 2 -81.5 18.5t-53.5 38.5t-30 43.5t-15 36.5l-3 15l72 23q1 -4 2.5 -10.5t10 -23t20.5 -29.5 t35 -25t52 -14l33 262q-39 14 -63.5 25.5t-50.5 32t-36.5 50t-5.5 68.5q10 84 64.5 136t136.5 60l13 103h64l-13 -103q78 -8 118 -53t43 -98l-70 -20q0 3 -1 9t-6.5 21.5t-15 27.5t-30 24.5t-47.5 16.5l-29 -241q43 -15 68 -26.5t54.5 -33.5t41 -55t6.5 -77 q-10 -82 -66.5 -135t-151.5 -64z" />
<glyph unicode="%" horiz-adv-x="724" d="M605 690l59 -34l-473 -674l-55 37zM221 360q-62 0 -93.5 44t-23.5 118t49.5 117.5t103.5 43.5q61 0 92.5 -43.5t23.5 -117.5t-49.5 -118t-102.5 -44zM229 429q32 0 53.5 25t25.5 68q5 44 -10.5 68t-48.5 24t-54.5 -24t-25.5 -68q-5 -44 11 -68.5t49 -24.5zM551 -12 q-62 0 -94 44t-24 118q7 73 49 117.5t104 44.5q61 0 93 -44t24 -118t-49.5 -118t-102.5 -44zM558 58q32 0 53.5 24.5t25.5 67.5q5 45 -10.5 68.5t-48.5 23.5t-54 -23.5t-27 -68.5q-4 -43 12 -67.5t49 -24.5z" />
<glyph unicode="&#x26;" horiz-adv-x="614" d="M427 -150h-68q11 80 -4 157q-54 -17 -105 -17q-54 0 -92 15t-56.5 41t-26.5 52t-8 56q0 51 15.5 91.5t40 63.5t43.5 34.5t37 17.5q-23 67 -23 132q0 104 46 146.5t139 42.5q35 0 64 -8t40 -16l11 -9l-21 -55q-39 20 -101 20q-49 0 -81 -28.5t-32 -94.5q0 -49 25 -108 t65.5 -136.5t60.5 -133.5q37 45 37 124v134h180l-8 -70h-107v-72q0 -133 -80 -191q23 -93 9 -188zM260 63q46 0 77 12q-17 48 -59.5 128.5t-52.5 103.5q-93 -41 -93 -140q0 -44 31 -74t97 -30z" />
<glyph unicode="'" horiz-adv-x="203" d="M234 743l-49 -273h-45l11 273h83z" />
<glyph unicode="(" horiz-adv-x="263" d="M305 790l35 -36q-90 -96 -148 -229t-73 -264q-14 -127 17 -261t97 -238l-46 -40q-176 246 -143 541q32 293 261 527z" />
<glyph unicode=")" horiz-adv-x="262" d="M93 755l42 33q179 -227 147 -525q-17 -149 -88.5 -290t-175.5 -250l-37 41q88 101 150 236.5t76 260.5q14 128 -16 263.5t-98 230.5z" />
<glyph unicode="*" horiz-adv-x="302" d="M269 461l-53 120l-84 -110l-36 41l76 101l-87 42l25 60l93 -44l20 125l54 -3l-22 -128l112 31l8 -61l-107 -29l50 -110z" />
<glyph unicode="+" horiz-adv-x="477" d="M216 54l20 182h-164l9 70h163l20 182h63l-20 -182h164l-8 -70h-164l-20 -182h-63z" />
<glyph unicode="," horiz-adv-x="192" d="M37 -144l-21 30q3 2 8 5t17.5 14t22.5 22t19.5 27.5t11.5 32.5q-27 0 -41.5 16.5t-10.5 48.5q6 66 65 66q36 0 45.5 -27t-0.5 -76q-6 -33 -20 -61.5t-30 -45.5t-31 -29.5t-25 -17.5z" />
<glyph unicode="-" horiz-adv-x="321" d="M61 297h270l-7 -70h-270z" />
<glyph unicode="." horiz-adv-x="188" d="M106 118q62 0 53 -66q-6 -65 -67 -65q-30 0 -42 15.5t-9 49.5q9 66 65 66z" />
<glyph unicode="/" horiz-adv-x="439" d="M472 770h75l-502 -902h-74z" />
<glyph unicode="0" horiz-adv-x="530" d="M266 -12q-106 0 -152 86.5t-27 255.5q19 175 88 268.5t176 93.5q100 0 147 -93t28 -268q-19 -168 -86 -255.5t-174 -87.5zM274 63q73 0 114.5 62.5t56.5 204.5q15 149 -10.5 217.5t-91.5 68.5q-73 0 -115.5 -68t-58.5 -217q-16 -144 8.5 -206t96.5 -62z" />
<glyph unicode="1" horiz-adv-x="375" d="M262 0h-72l76 585h-10l-108 -66l-26 63l154 100h72z" />
<glyph unicode="2" horiz-adv-x="506" d="M456 0h-396l9 72q339 256 357 414q5 53 -20.5 90.5t-91.5 37.5q-91 0 -166 -50l-21 65q92 63 199 63q91 0 138 -61t38 -151q-5 -50 -32.5 -103.5t-55.5 -91t-81.5 -88.5t-78 -71.5t-76.5 -62.5q24 7 62 7h224z" />
<glyph unicode="3" horiz-adv-x="498" d="M235 -14q-99 0 -186 57l35 64q63 -44 150 -44q138 0 151 115q7 67 -40 100t-165 33l7 64q206 0 221 131q7 56 -24 84.5t-88 28.5q-59 0 -124 -29l-18 60q63 43 150 43t136 -52.5t40 -133.5q-6 -52 -33.5 -94t-72.5 -65q94 -50 82 -169q-9 -84 -69.5 -138.5t-151.5 -54.5z " />
<glyph unicode="4" horiz-adv-x="507" d="M317 0l19 168h-272l8 74l334 440h57l-49 -440h88l-8 -74h-88l-19 -168h-70zM155 242h189l27 250q7 46 16 76q-23 -55 -38 -75z" />
<glyph unicode="5" horiz-adv-x="505" d="M58 35l35 71q72 -40 163 -40q55 0 96 35.5t47 100.5q7 69 -48 104.5t-170 29.5l-58 -3l55 349h330l-9 -76h-262l-30 -194q133 8 206 -47.5t65 -156.5q-3 -40 -18 -77t-42 -70t-73.5 -52.5t-106.5 -19.5q-47 0 -92 11.5t-66 23.5z" />
<glyph unicode="6" horiz-adv-x="521" d="M488 224q-12 -106 -64 -171.5t-155 -65.5q-198 0 -165 308q25 217 86 307t184 90q70 0 122 -31l-33 -70q-39 24 -96 24q-72 0 -115 -54.5t-65 -183.5q71 48 150 48q82 0 121 -59.5t30 -141.5zM276 62q53 0 92 39t46 110q6 59 -17 99t-86 40q-72 0 -136 -62 q-12 -123 15 -174.5t86 -51.5z" />
<glyph unicode="7" horiz-adv-x="454" d="M118 607l8 76h368l-8 -76l-271 -607h-77l270 607h-290z" />
<glyph unicode="8" horiz-adv-x="539" d="M275 -13q-107 0 -157.5 51.5t-41.5 133.5q6 65 43.5 111t93.5 71q-92 58 -81 159q10 88 74.5 135.5t148.5 47.5q78 0 130.5 -48.5t44.5 -127.5q-6 -51 -37.5 -99t-87.5 -77q112 -62 100 -170q-9 -83 -72 -135t-158 -52zM206 514q-5 -51 23.5 -78t88.5 -52q127 36 138 130 q5 51 -24 82t-85 31q-50 0 -92 -27t-49 -86zM284 58q52 0 95 30.5t49 85.5q6 51 -26.5 82t-95.5 57q-143 -36 -155 -134q-7 -61 32.5 -91t100.5 -30z" />
<glyph unicode="9" horiz-adv-x="522" d="M295 329q69 0 131 41q13 131 -11.5 189.5t-89.5 58.5q-118 0 -135 -152q-8 -71 21 -104t84 -33zM209 -13q-63 0 -113 25l20 71q52 -21 103 -21q77 0 125 51.5t70 171.5q-68 -31 -146 -31q-81 0 -121 62t-30 147q26 230 217 230q108 0 145 -86t20 -242 q-22 -200 -88.5 -289t-201.5 -89z" />
<glyph unicode=":" horiz-adv-x="265" d="M181 424q59 0 53 -66q-5 -34 -21 -49.5t-47 -15.5q-57 0 -50 65q6 66 65 66zM132 -13q-57 0 -50 65q7 66 65 66q60 0 53 -66q-7 -65 -68 -65z" />
<glyph unicode=";" horiz-adv-x="266" d="M202 425q60 0 53 -66q-9 -65 -69 -66q-58 0 -49 65q7 66 65 67zM95 -145l-21 31q3 2 8 5t17.5 13.5t22.5 21.5t19.5 27.5t11.5 32.5q-27 0 -41.5 16.5t-10.5 48.5q6 66 65 66q36 0 45.5 -27t-0.5 -76q-6 -33 -20 -61.5t-30 -45.5t-31 -29.5t-25 -17.5z" />
<glyph unicode="&#x3c;" horiz-adv-x="477" d="M442 64l-371 172l8 76l409 172l-8 -76l-326 -137l296 -137z" />
<glyph unicode="=" horiz-adv-x="477" d="M471 306h-391l7 70h391zM456 166h-390l6 70h390z" />
<glyph unicode="&#x3e;" horiz-adv-x="478" d="M56 58l6 76l327 137l-296 137l8 70l371 -172l-7 -76z" />
<glyph unicode="?" horiz-adv-x="392" d="M422 541q-4 -40 -16 -70t-28 -48.5t-34 -34.5t-36 -32.5t-33.5 -37t-27 -54t-14.5 -77.5h-68q5 67 24 115.5t43.5 74t48.5 46t42.5 45.5t22.5 58q14 108 -78 108q-41 0 -74.5 -26.5t-53.5 -64.5l-46 41q23 51 74.5 86.5t118.5 35.5q65 0 104.5 -43.5t30.5 -121.5z M177 -12q-51 0 -45 59q7 59 58 59q54 0 48 -59q-7 -59 -61 -59z" />
<glyph unicode="@" horiz-adv-x="797" d="M418 -162q-190 0 -275 106.5t-63 300.5q21 182 128 293t267 111q170 0 248 -97t59 -263q-29 -245 -207 -245q-68 0 -88 49q-44 -50 -104 -50q-70 0 -102.5 54.5t-21.5 148.5t68 152t143 58q26 0 52.5 -6t39.5 -12l14 -6l-27 -234q-8 -88 34 -88q113 0 134 179 q15 141 -45.5 217.5t-203.5 76.5q-124 0 -211.5 -85.5t-106.5 -252.5q-19 -172 57.5 -254.5t219.5 -82.5q127 0 239 66l14 -62q-127 -74 -262 -74zM399 112q45 0 81 41v1l27 223q-18 8 -50 8q-54 0 -89 -38t-42 -101q-14 -134 73 -134z" />
<glyph unicode="A" horiz-adv-x="591" d="M356 554q-15 -46 -48 -114l-90 -184h211l-52 192q-6 23 -11.5 49.5t-7.5 41.5zM185 190l-94 -190h-76l339 682h34l188 -682h-76l-52 190h-263z" />
<glyph unicode="B" horiz-adv-x="529" d="M280 0h-192l76 682h168q94 0 146 -51t42 -133q-14 -122 -109 -157q108 -42 94 -165q-8 -77 -64.5 -126.5t-160.5 -49.5zM285 381q70 0 108.5 27.5t46.5 94.5q5 47 -26.5 74.5t-89.5 27.5h-97l-25 -224h83zM168 77h121q58 0 97.5 25.5t45.5 74.5q7 63 -28.5 94.5 t-112.5 31.5h-98z" />
<glyph unicode="C" horiz-adv-x="575" d="M161 332q-14 -136 37.5 -203t144.5 -67q50 0 91 10t57 17.5t58 30.5l19 -61q-98 -69 -242 -69q-130 0 -194 91t-45 251q19 165 102.5 264t222.5 99q132 0 205 -64l-37 -62q-70 52 -176 52q-92 0 -159.5 -71.5t-83.5 -217.5z" />
<glyph unicode="D" horiz-adv-x="594" d="M261 0h-189l76 682h188q150 0 216.5 -89.5t48.5 -255.5q-18 -161 -104.5 -249t-235.5 -88zM150 72h100q248 0 277 269q17 147 -37 208t-179 61h-100z" />
<glyph unicode="E" horiz-adv-x="502" d="M88 0l76 682h380l-8 -72h-309l-25 -231h261l-8 -72h-262l-26 -235h309l-8 -72h-380z" />
<glyph unicode="F" horiz-adv-x="466" d="M193 306l-35 -306h-70l76 682h361l-8 -72h-291l-25 -232h243l-8 -72h-243z" />
<glyph unicode="G" horiz-adv-x="548" d="M521 59q-88 -69 -218 -69q-117 0 -174.5 91t-41.5 251q18 165 93 264t200 99q60 0 108 -18t76 -46l-32 -62q-61 49 -162 49q-82 0 -141.5 -70t-74.5 -216q-14 -131 32 -198t130 -67q79 0 136 25l21 184h-156l8 78h228z" />
<glyph unicode="H" horiz-adv-x="633" d="M193 308l-35 -308h-70l76 682h70l-33 -302h324l33 302h70l-75 -682h-71l35 308h-324z" />
<glyph unicode="I" horiz-adv-x="240" d="M160 0h-72l76 682h72z" />
<glyph unicode="J" horiz-adv-x="240" d="M91 27l73 655h72l-72 -653q-12 -104 -54 -154.5t-117 -76.5l-19 78q53 18 81.5 48t35.5 103z" />
<glyph unicode="K" horiz-adv-x="551" d="M178 177l-20 -177h-70l76 682h70l-43 -389l313 389h89l-270 -338l194 -344h-84l-160 285z" />
<glyph unicode="L" horiz-adv-x="455" d="M88 0l76 682h72l-68 -605h280l-8 -77h-352z" />
<glyph unicode="M" horiz-adv-x="759" d="M209 475l-59 -475h-70l84 682h68l171 -485l291 485h68l-83 -682h-71l59 475q0 5 1 13t2.5 18t2.5 16q-14 -28 -20 -37l-235 -394h-55l-139 394q-5 13 -11 36q0 -6 -4 -46z" />
<glyph unicode="N" horiz-adv-x="641" d="M212 506l-62 -506h-70l84 682h70l263 -511q5 -12 13 -35q0 18 2 40l62 506h71l-84 -682h-71l-255 511q-7 14 -17 49q-1 -6 -2 -18t-2 -21t-2 -15z" />
<glyph unicode="O" horiz-adv-x="669" d="M88 345q20 169 109.5 259t217.5 91q125 1 197 -91t53 -259q-20 -180 -110 -267.5t-218 -87.5t-198 87.5t-51 267.5zM345 60q100 0 168 78.5t82 206.5q13 122 -37.5 200t-150.5 78q-98 0 -166.5 -79.5t-81.5 -198.5q-14 -128 36.5 -206.5t149.5 -78.5z" />
<glyph unicode="P" horiz-adv-x="499" d="M283 245h-98l-27 -245h-70l76 682h168q65 0 109.5 -18t65 -50t27 -68t2.5 -79q-4 -41 -19 -78t-43.5 -70.5t-77.5 -53.5t-113 -20zM193 317h99q156 0 171 149q9 73 -22.5 108.5t-117.5 35.5h-97z" />
<glyph unicode="Q" horiz-adv-x="677" d="M652 -21q-61 14 -116.5 16.5t-120 -1.5t-83.5 -4q-127 0 -194.5 95t-49.5 259q19 170 110 260.5t217 90.5t198 -91.5t53 -258.5q-18 -160 -91 -238q-24 -26 -66 -54q29 13 67 13q43 0 85 -11zM345 60q100 0 167.5 75.5t82.5 208.5t-39 206t-149 73q-92 0 -163 -74 t-86 -205q-14 -130 36 -207t151 -77z" />
<glyph unicode="R" horiz-adv-x="552" d="M193 317h88q76 0 112 38.5t43 110.5q7 73 -21 108.5t-105 35.5h-88zM537 0h-86l-133 248q-19 -3 -44 -3h-89l-24 -245h-66l69 682h154q59 0 100.5 -18.5t62 -50t28 -68t3.5 -78.5q-6 -59 -38.5 -113.5t-87.5 -82.5z" />
<glyph unicode="S" horiz-adv-x="524" d="M552 611l-44 -59q-2 3 -7 7.5t-21 16.5t-34 21t-47.5 16.5t-60.5 7.5q-58 0 -100 -26t-42 -74q0 -20 8 -36t26.5 -31t36 -25.5t49.5 -28.5q10 -6 16 -9q30 -17 41.5 -23.5t36.5 -22t35.5 -25t27 -26.5t23.5 -32.5t12.5 -36.5t5.5 -44q0 -92 -65 -141.5t-180 -49.5 q-46 0 -86 9.5t-65 22.5t-43.5 26t-26.5 22l-8 10l50 58q2 -3 7 -8t22.5 -18t37 -23t51.5 -18t67 -8q73 0 115 33t42 80q0 18 -3 32.5t-13.5 27.5t-16 20.5t-24.5 19.5t-25 15.5t-31.5 16.5t-30.5 15q-44 22 -66 35.5t-50.5 36.5t-40.5 50t-12 62q0 83 63 135.5t164 52.5 q37 0 72 -8.5t58 -21t41 -25t27 -20.5z" />
<glyph unicode="T" horiz-adv-x="495" d="M359 607l-68 -607h-72l68 607h-206l8 75h484l-8 -75h-206z" />
<glyph unicode="U" horiz-adv-x="609" d="M102 282l44 400h70l-45 -402q-12 -115 22 -167.5t124 -52.5q89 0 135 53t59 168l44 401h70l-44 -400q-15 -144 -78 -218t-194 -74q-129 0 -176 75t-31 217z" />
<glyph unicode="V" horiz-adv-x="562" d="M320 0h-66l-166 682h74l119 -470q16 -71 19 -120q13 56 42 120l225 470h74z" />
<glyph unicode="W" horiz-adv-x="852" d="M475 524l-204 -524h-68l-115 682h74l84 -505q7 -48 3 -71q4 24 22 71l196 504v1h78l85 -505q5 -35 3 -68q3 24 22 68l202 505h75l-275 -682h-71l-88 525q-3 17 -5 55q-8 -29 -18 -56z" />
<glyph unicode="X" horiz-adv-x="569" d="M110 0h-88l261 353l-178 329h82l144 -262l1 -2l202 264h88l-254 -334l180 -348h-82l-146 284z" />
<glyph unicode="Y" horiz-adv-x="503" d="M227 0l34 313l-167 369h78l120 -275l8 -23l14 23l180 275h83l-246 -369l-34 -313h-70zM296 342h2l-1 6z" />
<glyph unicode="Z" horiz-adv-x="467" d="M463 4q-54 -20 -221 -8.5t-210 4.5l8 70l369 540h-310l8 72h397l-8 -74l-371 -534q42 5 167 -6t179 8z" />
<glyph unicode="[" horiz-adv-x="263" d="M47 -219l110 992h172l-8 -66h-99l-96 -860h100l-7 -66h-172z" />
<glyph unicode="\" horiz-adv-x="466" d="M80 771h82l303 -903h-83z" />
<glyph unicode="]" horiz-adv-x="263" d="M112 773h172l-110 -992h-172l7 66h100l96 860h-100z" />
<glyph unicode="^" horiz-adv-x="395" d="M443 534l-48 -46l-117 156l-155 -160l-39 50l170 177h55z" />
<glyph unicode="_" horiz-adv-x="497" d="M7 -20h477l-8 -70h-477z" />
<glyph unicode="`" horiz-adv-x="287" d="M115 706l83 40l72 -163l-52 -23z" />
<glyph unicode="a" horiz-adv-x="508" d="M294 421q-61 0 -99.5 -47t-47.5 -130q-10 -83 19 -133t99 -50q32 0 57.5 10.5t35.5 20.5l10 10l26 209q6 52 -26 81t-74 29zM371 49q-61 -59 -129 -59q-93 0 -136 68t-30 186q13 115 71.5 182t148.5 67q48 0 77.5 -17t40.5 -36l14 41h53l-53 -481h-57v49z" />
<glyph unicode="b" horiz-adv-x="512" d="M274 -10q-85 0 -118 51l-13 -41h-53q32 296 85 770h68l-36 -331q58 54 122 54q92 0 135.5 -69t30.5 -187q-13 -114 -72 -180.5t-149 -66.5zM277 60q61 0 99.5 47t47.5 130q10 83 -19 133.5t-98 50.5q-32 0 -58 -10.5t-36 -20.5l-10 -11l-26 -209q-6 -52 26 -81t74 -29z " />
<glyph unicode="c" horiz-adv-x="437" d="M459 438l-43 -53q-39 35 -111 35q-63 0 -107.5 -43t-52.5 -132q-5 -55 6 -93.5t34 -57t46.5 -26t49.5 -7.5q59 1 121 30l17 -62q-83 -39 -144 -39q-109 0 -160 65.5t-40 182.5q11 113 68 184t161 71q111 0 155 -55z" />
<glyph unicode="d" horiz-adv-x="508" d="M265 61q32 0 57.5 10.5t35.5 20.5l10 10l26 209q6 52 -26 81t-74 29q-61 0 -99.5 -47t-47.5 -130q-10 -83 19 -133t99 -50zM371 49q-61 -59 -129 -59q-93 0 -136 68t-30 186q13 115 71.5 182t148.5 67q74 0 112 -45l37 322h69l-86 -770h-57v49z" />
<glyph unicode="e" horiz-adv-x="450" d="M246 -10q-171 0 -171 220q0 114 65 198t177 85q61 -1 90 -36.5t29 -79.5q0 -41 -13 -72t-38 -49.5t-51 -30.5t-64 -17.5t-63 -7t-61 -1.5q3 -80 34 -109.5t84 -29.5q28 0 63.5 11t56.5 22l21 11l18 -59q-73 -55 -177 -55zM305 425q-56 0 -101.5 -43.5t-55.5 -120.5 q219 4 219 105q0 59 -62 59z" />
<glyph unicode="f" horiz-adv-x="313" d="M219 413l-60 -538h-68l59 538h-93l9 68h91l15 119q10 86 54 134.5t108 48.5q69 0 106 -41l-41 -58q-24 28 -73 28q-75 0 -89 -126l-11 -105h129l-8 -68h-128z" />
<glyph unicode="g" horiz-adv-x="509" d="M294 421q-61 0 -99.5 -47t-47.5 -130q-10 -83 19 -133t99 -50q32 0 57.5 10.5t35.5 20.5l10 10l26 209q6 52 -26 81t-74 29zM210 -210q-41 0 -77 12t-51 24l-15 11l35 60q48 -35 114 -35q69 0 102.5 34t40.5 105l6 42q-59 -53 -123 -53q-93 0 -136 68t-30 186 q13 115 71.5 182t148.5 67q49 0 78 -17t40 -36l14 41h53l-56 -509q-9 -79 -59 -130.5t-156 -51.5z" />
<glyph unicode="h" horiz-adv-x="510" d="M89 0l86 770h68l-39 -344h2q53 67 140 67q70 0 108 -48.5t30 -118.5l-36 -326h-68l30 279q16 142 -91 142q-58 0 -91.5 -43t-40.5 -111l-30 -267h-68z" />
<glyph unicode="i" horiz-adv-x="249" d="M199 704q48 0 42 -53t-54 -53t-41 53q6 53 53 53zM153 481h68l-53 -481h-68z" />
<glyph unicode="j" horiz-adv-x="242" d="M199 704q48 0 42 -53t-54 -53q-47 0 -41 53t53 53zM7 -210l-14 71q58 24 77.5 59.5t26.5 108.5l50 452h68l-52 -469q-19 -179 -156 -222z" />
<glyph unicode="k" horiz-adv-x="464" d="M179 183l-21 -184h-68l84 770h69l-54 -499l185 211h93l-189 -211l159 -270h-86l-130 218z" />
<glyph unicode="l" horiz-adv-x="237" d="M175 770h68l-86 -770h-68z" />
<glyph unicode="m" horiz-adv-x="798" d="M184 267l-30 -267h-68l53 481h47l15 -55h2q53 67 139 67q48 0 82 -24.5t49 -64.5q60 89 160 89q70 0 108.5 -48.5t30.5 -118.5l-36 -326h-69l31 279q16 142 -91 142q-58 0 -91.5 -43t-40.5 -111l-30 -267h-68l30 279q16 142 -91 142q-58 0 -91.5 -43t-40.5 -111z" />
<glyph unicode="n" horiz-adv-x="507" d="M86 0l53 481h47l15 -55h2q53 67 139 67q70 0 108.5 -48.5t30.5 -118.5l-36 -326h-68l30 279q16 142 -91 142q-58 0 -91.5 -43t-40.5 -111l-30 -267h-68z" />
<glyph unicode="o" horiz-adv-x="505" d="M256 -10q-92 0 -143.5 61t-37.5 186q13 119 79.5 187.5t155.5 68.5t140 -68t38 -188q-14 -125 -77 -186t-155 -61zM263 60q61 0 104 44t53 133q9 86 -24.5 135.5t-92.5 49.5q-58 0 -104 -50t-55 -135q-10 -89 24.5 -133t94.5 -44z" />
<glyph unicode="p" horiz-adv-x="508" d="M273 62q61 0 99.5 46.5t47.5 128.5q10 83 -19 133.5t-98 50.5q-32 0 -58 -10.5t-36 -20.5l-10 -11l-26 -209q-6 -52 26 -80t74 -28zM158 34l-26 -233h-69l76 680h57v-49q63 61 129 61q92 0 135.5 -69t30.5 -187q-13 -114 -72 -180.5t-149 -66.5q-77 0 -112 44z" />
<glyph unicode="q" horiz-adv-x="510" d="M405 -200h-67l27 243q-59 -53 -123 -53q-93 0 -136 68t-30 186q13 115 71.5 182t148.5 67q49 0 78 -17t40 -36l14 41h53zM265 61q32 0 57.5 10.5t35.5 20.5l10 10l26 209q6 52 -26 81t-74 29q-61 0 -99.5 -47t-47.5 -130q-10 -83 19 -133t99 -50z" />
<glyph unicode="r" horiz-adv-x="327" d="M139 481h62v-55h3q50 67 115 67q31 0 53 -12l-31 -78q-20 7 -45 7q-96 0 -113 -146l-29 -264h-68z" />
<glyph unicode="s" horiz-adv-x="406" d="M363 389q-52 34 -104 34q-40 0 -67.5 -15.5t-27.5 -44.5q0 -15 7 -27t24.5 -24t27.5 -18t36 -19q61 -31 90.5 -61.5t29.5 -83.5q0 -61 -41.5 -100.5t-117.5 -39.5q-102 0 -171 64l35 57q62 -54 139 -54q34 0 59.5 16t25.5 43q0 12 -2.5 22t-9 18.5t-11 14t-16.5 13 t-16.5 10.5t-20.5 11l-20 10q-32 17 -45.5 25t-34 26t-28.5 41.5t-8 55.5q0 63 45 96.5t118 33.5q84 0 141 -46z" />
<glyph unicode="t" horiz-adv-x="329" d="M289 9q-40 -19 -79 -19q-53 0 -73 34.5t-11 113.5l31 275h-74l7 68h74l14 131h69l-16 -131h107l-7 -68h-107l-31 -277q-4 -40 4 -56t34 -16l52 3z" />
<glyph unicode="u" horiz-adv-x="507" d="M480 481l-53 -481h-62v55h-2q-52 -65 -139 -65q-70 0 -108.5 47.5t-30.5 117.5l36 326h68l-30 -279q-16 -142 91 -142q58 0 91.5 43t40.5 111l30 267h68z" />
<glyph unicode="v" horiz-adv-x="437" d="M198 0h-41q-22 117 -38 237.5t-21 182.5l-4 61h69q15 -173 44 -386q86 101 123 174.5t37 157.5l-4 53l72 11q6 -17 6 -58q0 -106 -58 -207t-185 -226z" />
<glyph unicode="w" horiz-adv-x="657" d="M442 0h-41q-16 81 -37 262q-39 -149 -166 -262h-41q-22 117 -38 237.5t-21 182.5l-4 61h69q15 -173 44 -385q63 71 94 147t31 174l-3 64l69 4v-1q1 -6 8 -58t20 -148.5t24 -182.5q70 48 102 135t32 188l-4 62l72 11q6 -20 6 -71q0 -138 -59.5 -244t-156.5 -176z" />
<glyph unicode="x" horiz-adv-x="428" d="M239 179l-127 -179h-87l177 240l-120 241h77l87 -182l132 182h82l-178 -243l123 -238h-79z" />
<glyph unicode="y" horiz-adv-x="424" d="M135 -209l-75 12q0 48 29 126.5t58 118.5q-22 108 -36.5 216t-18.5 162l-4 55h69q13 -173 49 -386q83 106 118.5 178t35.5 154l-3 53l70 11q5 -17 5 -58q0 -98 -47 -192.5t-146 -200.5q-43 -46 -73.5 -117.5t-30.5 -131.5z" />
<glyph unicode="z" horiz-adv-x="406" d="M373 0q-35 -17 -156 -3.5t-184 3.5l9 70l263 337h-218l8 74h301l-8 -71l-261 -333q37 6 128 -6.5t126 3.5z" />
<glyph unicode="{" horiz-adv-x="338" d="M294 -214l-10 -76q-75 23 -110.5 74.5t-22.5 159.5l17 138q9 74 -10.5 108t-65.5 51l9 80q51 17 79 51t37 108l17 138q13 108 61.5 159.5t129.5 74.5l-10 -76q-51 -17 -78.5 -49.5t-36.5 -106.5l-17 -138q-18 -144 -105 -201q74 -57 56 -201l-17 -138q-9 -74 10.5 -106.5 t66.5 -49.5z" />
<glyph unicode="|" horiz-adv-x="232" d="M67 -182l95 866h65l-96 -866h-64z" />
<glyph unicode="}" horiz-adv-x="337" d="M-9 -214q50 17 77.5 49.5t36.5 106.5l17 138q18 145 106 201q-75 57 -57 201l17 138q9 74 -10.5 106.5t-65.5 49.5l10 76q48 -15 78 -38t47 -72.5t8 -123.5l-17 -138q-9 -75 10.5 -108.5t64.5 -50.5l-9 -80q-50 -17 -78 -50.5t-37 -108.5l-17 -138q-13 -108 -61.5 -159.5 t-129.5 -74.5z" />
<glyph unicode="~" horiz-adv-x="418" d="M58 276q6 10 55.5 36t76.5 26t65 -23.5t58 -23.5q24 0 52.5 13t40.5 22l21 -58l-9 -6q-10 -7 -18 -12t-21.5 -12.5t-25 -12.5t-25 -9t-24.5 -4q-26 0 -64 23.5t-59 23.5q-22 0 -54.5 -14.5t-46.5 -25.5z" />
<glyph unicode="&#xa1;" horiz-adv-x="227" d="M176 507q51 0 45 -65q-7 -66 -59 -66q-54 0 -48 66q7 65 62 65zM138 -187h-84l66 486h60z" />
<glyph unicode="&#xa2;" d="M471 91l17 -62q-63 -31 -114 -37l-15 -131h-71l15 131q-87 11 -127.5 76t-31.5 170q10 105 61 172.5t145 76.5l14 129h71l-15 -129q76 -9 108 -49l-43 -53q-39 35 -111 33q-64 -2 -108 -43.5t-52 -129.5q-5 -55 6.5 -94t34.5 -57t46.5 -25.5t48.5 -7.5q59 1 121 30z" />
<glyph unicode="&#xa3;" d="M439 0h-365l9 70h71l33 271h-71l8 70h71l10 79q13 104 74 154.5t148 50.5q30 0 56.5 -5.5t43.5 -13.5t29.5 -16.5t17.5 -13.5l6 -6l-43 -58q-5 5 -14.5 12.5t-40.5 20t-65 12.5q-126 0 -145 -151l-8 -65h174l-42 -70h-140l-33 -271h225z" />
<glyph unicode="&#xa4;" d="M415 91l-28 36q-31 -19 -84 -19q-51 0 -78 21l-37 -36l-22 29l36 36q-15 33 -9 90q6 56 27 90l-27 36l28 29l28 -36q33 24 86 24q52 0 81 -21l35 34l22 -29l-35 -34q15 -35 8 -93q-6 -60 -28 -92l27 -35zM308 165q42 0 60.5 18.5t23.5 64.5t-9 65t-53 19q-40 0 -59.5 -19 t-24.5 -65q-4 -45 10 -64t52 -19z" />
<glyph unicode="&#xa5;" d="M273 0l17 157h-144l8 70h144l7 70h-144l8 70h114l-144 315h79l119 -275l9 -23l14 23l180 275h83l-209 -315h108l-8 -70h-139l-7 -70h139l-8 -70h-139l-17 -157h-70z" />
<glyph unicode="&#xa6;" horiz-adv-x="200" d="M107 332l39 352h65l-39 -352h-65zM115 -182h-64l41 380h65z" />
<glyph unicode="&#xa7;" horiz-adv-x="449" d="M246 332q-34 8 -63.5 -5.5t-37.5 -39.5t11.5 -50t53.5 -32t64 5t38 39t-11.5 50.5t-54.5 32.5zM203 -90q-52 0 -94.5 16t-58.5 32l-17 16l35 57q7 -5 19 -13.5t47.5 -22t68.5 -13.5q83 0 89 58q1 18 -6 32.5t-24 25.5t-30.5 17t-37.5 15q-35 13 -50.5 20t-38.5 24t-31 42 t-4 61q9 77 65 110q-48 37 -40 108q7 65 50 99.5t114 34.5q56 0 97 -18.5t59 -38.5l-37 -58q-59 41 -120 41q-38 0 -65 -14.5t-29 -43.5q-2 -16 5 -29t23.5 -23.5t30 -16.5t36.5 -15q140 -53 126 -164q-9 -74 -66 -102q49 -46 41 -116q-16 -121 -157 -121z" />
<glyph unicode="&#xa8;" horiz-adv-x="350" d="M351 704q48 0 43 -53q-7 -53 -54 -53q-48 0 -42 53t53 53zM168 704q48 0 43 -53q-7 -53 -54 -53q-48 0 -42 53t53 53z" />
<glyph unicode="&#xa9;" horiz-adv-x="728" d="M723 340q-21 -190 -106 -272t-251 -82t-232.5 82.5t-45.5 271.5q20 181 106.5 266.5t249.5 85.5t231 -85.5t48 -266.5zM371 90q103 0 184 53l-18 60q-39 -22 -71 -31.5t-82 -9.5q-62 0 -94.5 42.5t-23.5 130.5q11 99 55 145.5t103 46.5q71 0 122 -39l34 61 q-21 19 -61.5 32.5t-85.5 13.5q-95 0 -158 -72.5t-76 -187.5q-13 -111 33.5 -178t138.5 -67z" />
<glyph unicode="&#xaa;" horiz-adv-x="389" d="M222 398q68 0 91 58l6 48q-71 7 -103.5 -9t-37.5 -54q-2 -18 9 -30.5t35 -12.5zM310 386q-39 -50 -101 -50q-50 0 -73 28.5t-17 71.5q7 60 55 97.5t152 30.5l1 5q4 33 -9.5 45t-46.5 12q-60 0 -100 -29l-14 53q56 42 126 42q114 0 99 -123l-28 -225h-33zM77 211l7 58h293 l-7 -58h-293z" />
<glyph unicode="&#xab;" horiz-adv-x="484" d="M240 96l-71 -53l-97 199l140 196l61 -52l-105 -145zM447 96l-71 -53l-97 199l140 196l60 -52l-105 -145z" />
<glyph unicode="&#xac;" horiz-adv-x="477" d="M391 166l17 140h-328l9 70h391l-26 -210h-63z" />
<glyph unicode="&#xad;" horiz-adv-x="321" d="M61 297h270l-7 -70h-270z" />
<glyph unicode="&#xae;" horiz-adv-x="727" d="M723 340q-21 -190 -106 -272t-251 -82t-232.5 82.5t-45.5 271.5q20 181 106.5 266.5t249.5 85.5t231 -85.5t48 -266.5zM385 337h-68l19 184l68 2q60 3 79.5 -19.5t14.5 -71.5q-5 -47 -30 -71t-83 -24zM295 103l19 173h76l94 -173h72l-100 186q92 35 104 144q7 68 -25 112 t-123 40l-125 -6l-53 -476h61z" />
<glyph unicode="&#xb0;" horiz-adv-x="363" d="M237 451q-61 0 -98.5 48.5t-28.5 115.5q8 69 55 116.5t113 47.5q61 0 98 -48t29 -116q-9 -69 -56 -116.5t-112 -47.5zM243 526q31 0 58.5 27.5t30.5 61.5q4 40 -12 64.5t-50 24.5q-32 0 -58.5 -27t-30.5 -62q-5 -37 11 -63t51 -26z" />
<glyph unicode="&#xb1;" horiz-adv-x="477" d="M223 134l19 182h-163l8 70h164l19 182h63l-19 -182h163l-8 -70h-164l-19 -182h-63zM436 0h-391l8 70h391z" />
<glyph unicode="&#xb2;" horiz-adv-x="376" d="M348 307h-248l16 62q7 5 19 13.5t42.5 33.5t54.5 48t45 52t24 51q4 37 -12 49.5t-54 12.5q-18 0 -36.5 -6.5t-28.5 -13.5l-10 -7l-19 56q63 34 118 34q62 0 90.5 -27.5t22.5 -75.5q-8 -63 -55 -123t-100 -99q30 5 64.5 6t54.5 0l20 -1z" />
<glyph unicode="&#xb3;" horiz-adv-x="376" d="M201 297q-33 0 -59 9.5t-36 19.5l-9 9l31 51q24 -28 84 -28q28 0 48 18t24 44q4 30 -23.5 46.5t-56.5 18.5l-29 2l3 29l104 108q-52 -3 -80 -3h-57l8 61h219l-10 -46l-97 -102q14 -4 27 -10.5t29 -19t24 -33t4 -46.5q-8 -60 -46.5 -94t-101.5 -34z" />
<glyph unicode="&#xb4;" horiz-adv-x="287" d="M166 581l108 163l74 -40l-135 -146z" />
<glyph unicode="&#xb6;" horiz-adv-x="576" d="M437 594l-88 -794h-73l44 393q-130 1 -181 71.5t-38 180.5q12 113 79.5 175t193.5 62h196l-98 -882h-73l88 794h-50z" />
<glyph unicode="&#xb7;" horiz-adv-x="210" d="M139 295q60 0 53 -66q-6 -65 -67 -65q-30 0 -42 15.5t-9 49.5q5 34 20 50t45 16z" />
<glyph unicode="&#xb8;" horiz-adv-x="211" d="M55 -222q-17 3 -34 9t-25 11l-9 4l21 43q4 -2 10.5 -4.5t24.5 -7t32.5 -4.5t28.5 9t19 27q6 30 -20.5 49.5t-71.5 24.5l13 42q78 -6 111 -37t21 -83q-11 -45 -44.5 -65.5t-76.5 -17.5z" />
<glyph unicode="&#xb9;" horiz-adv-x="376" d="M347 307h-249l8 64h103l29 242l-101 -25l7 58l136 42h25l-38 -317h88z" />
<glyph unicode="&#xba;" horiz-adv-x="389" d="M409 509q-11 -89 -58 -132.5t-114 -43.5q-68 0 -106 43.5t-27 132.5q11 86 60 134.5t115 48.5q67 0 104 -48.5t26 -134.5zM246 395q38 0 65 28t33 86q7 55 -13.5 86t-59.5 31q-37 0 -67 -31.5t-37 -85.5q-6 -57 17 -85.5t62 -28.5zM74 211l7 58h293l-7 -58h-293z" />
<glyph unicode="&#xbb;" horiz-adv-x="479" d="M117 44l-61 53l105 145l-71 145l72 52l98 -196zM317 43l-61 53l104 145l-72 145l74 52l97 -196z" />
<glyph unicode="&#xbf;" horiz-adv-x="389" d="M212 449q7 59 61 59q51 0 45 -59q-7 -59 -58 -59q-54 0 -48 59zM163 -210q-66 0 -103 43t-28 122q6 54 25.5 90.5t44 57.5t49 43t43 62.5t23.5 100.5h68q-5 -67 -24.5 -115t-44 -73t-48.5 -45t-42.5 -45.5t-22.5 -60.5q-6 -51 16 -78t64 -27q83 0 128 88l45 -41 q-22 -51 -74 -86.5t-119 -35.5z" />
<glyph unicode="&#xc0;" horiz-adv-x="591" d="M277 880l74 34l72 -163l-43 -17zM356 554q-15 -46 -48 -114l-90 -184h211l-52 192q-6 23 -11.5 49.5t-7.5 41.5zM185 190l-94 -190h-76l339 682h34l188 -682h-76l-52 190h-263z" />
<glyph unicode="&#xc1;" horiz-adv-x="591" d="M331 757l108 163l74 -40l-136 -146zM356 554q-15 -46 -48 -114l-90 -184h211l-52 192q-6 23 -11.5 49.5t-7.5 41.5zM185 190l-94 -190h-76l339 682h34l188 -682h-76l-52 190h-263z" />
<glyph unicode="&#xc2;" horiz-adv-x="591" d="M468 754l-82 93l-94 -92l-44 48l110 104h68l95 -106zM356 554q-15 -46 -48 -114l-90 -184h211l-52 192q-6 23 -11.5 49.5t-7.5 41.5zM185 190l-94 -190h-76l339 682h34l188 -682h-76l-52 190h-263z" />
<glyph unicode="&#xc3;" horiz-adv-x="591" d="M243 808q56 56 97 56q24 0 49.5 -20.5t43.5 -20.5q9 0 19 2t19 6t14.5 7t13 7.5t8.5 4.5l14 -42l-5 -6q-6 -5 -10.5 -8.5t-12.5 -10t-15.5 -11t-16 -9t-18 -7t-17.5 -2.5q-24 0 -49.5 20.5t-44.5 20.5q-40 0 -69 -22zM356 554q-15 -46 -48 -114l-90 -184h211l-52 192 q-6 23 -11.5 49.5t-7.5 41.5zM185 190l-94 -190h-76l339 682h34l188 -682h-76l-52 190h-263z" />
<glyph unicode="&#xc4;" horiz-adv-x="591" d="M542 818q-4 -53 -53 -53q-48 0 -42 53t54 53q49 0 41 -53zM282 871q49 0 41 -53q-4 -53 -53 -53q-48 0 -42 53q8 53 54 53zM356 554q-15 -46 -48 -114l-90 -184h211l-52 192q-6 23 -11.5 49.5t-7.5 41.5zM185 190l-94 -190h-76l339 682h34l188 -682h-76l-52 190h-263z " />
<glyph unicode="&#xc5;" horiz-adv-x="591" d="M293 826q6 49 33.5 76.5t71.5 27.5t66 -27.5t16 -76.5q-5 -49 -32.5 -76.5t-71.5 -27.5t-66 27.5t-17 76.5zM381 777q45 0 50 49t-39 49t-50 -49q-3 -49 39 -49zM356 554q-15 -46 -48 -114l-90 -184h211l-52 192q-6 23 -11.5 49.5t-7.5 41.5zM185 190l-94 -190h-76 l339 682h34l188 -682h-76l-52 190h-263z" />
<glyph unicode="&#xc6;" horiz-adv-x="830" d="M442 253l30 275l2 17q-41 -65 -63 -94l-138 -198h169zM219 176l-122 -176h-82l474 682h383l-9 -71h-310l-25 -230h262l-8 -73h-262l-27 -237h309l-7 -71h-381l20 178l-1 -2h-214z" />
<glyph unicode="&#xc7;" horiz-adv-x="575" d="M161 332q-14 -136 37.5 -203t144.5 -67q50 0 91 10t57 17.5t58 30.5l19 -61q-98 -69 -242 -69q-130 0 -194 91t-45 251q19 165 102.5 264t222.5 99q132 0 205 -64l-37 -62q-70 52 -176 52q-92 0 -159.5 -71.5t-83.5 -217.5zM409 -167q-11 -45 -44.5 -65.5t-76.5 -17.5 q-17 3 -34 9t-26 11l-8 4l21 43q4 -2 10.5 -4.5t24.5 -7t32.5 -4.5t28.5 9t19 27q6 30 -20.5 49.5t-71.5 24.5l13 42q78 -6 111 -37t21 -83z" />
<glyph unicode="&#xc8;" horiz-adv-x="502" d="M273 880l75 34l72 -163l-43 -17zM88 0l76 682h380l-8 -72h-309l-25 -231h261l-8 -72h-262l-26 -235h309l-8 -72h-380z" />
<glyph unicode="&#xc9;" horiz-adv-x="502" d="M298 757l108 163l74 -40l-136 -146zM88 0l76 682h380l-8 -72h-309l-25 -231h261l-8 -72h-262l-26 -235h309l-8 -72h-380z" />
<glyph unicode="&#xca;" horiz-adv-x="502" d="M456 754l-82 93l-95 -92l-44 48l110 104h69l95 -106zM88 0l76 682h380l-8 -72h-309l-25 -231h261l-8 -72h-262l-26 -235h309l-8 -72h-380z" />
<glyph unicode="&#xcb;" horiz-adv-x="502" d="M522 818q-6 -53 -53 -53t-43 53q8 53 54 53q48 0 42 -53zM262 871q47 0 41 -53t-53 -53q-48 0 -42 53t54 53zM88 0l76 682h380l-8 -72h-309l-25 -231h261l-8 -72h-262l-26 -235h309l-8 -72h-380z" />
<glyph unicode="&#xcc;" horiz-adv-x="240" d="M86 880l74 34l72 -163l-43 -17zM160 0h-72l76 682h72z" />
<glyph unicode="&#xcd;" horiz-adv-x="240" d="M164 757l108 163l74 -40l-136 -146zM160 0h-72l76 682h72z" />
<glyph unicode="&#xce;" horiz-adv-x="240" d="M293 754l-82 93l-95 -92l-44 48l110 104h69l95 -106zM160 0h-72l76 682h72z" />
<glyph unicode="&#xcf;" horiz-adv-x="240" d="M367 818q-6 -53 -53 -53t-43 53q8 53 54 53q48 0 42 -53zM107 871q47 0 41 -53t-53 -53q-48 0 -42 53t54 53zM160 0h-72l76 682h72z" />
<glyph unicode="&#xd0;" horiz-adv-x="622" d="M278 0h-189l34 311h-74l7 70h75l34 301h188q150 0 216.5 -89.5t48.5 -255.5q-18 -161 -104.5 -249t-235.5 -88zM167 72h100q248 0 277 269q17 147 -37 208t-179 61h-100l-26 -229h124l-7 -70h-125z" />
<glyph unicode="&#xd1;" horiz-adv-x="641" d="M273 808q56 56 96 56q24 0 50 -20.5t44 -20.5q25 0 74 27l14 -42q-61 -54 -95 -54q-24 0 -49.5 20.5t-44.5 20.5q-42 0 -69 -22zM212 506l-62 -506h-70l84 682h70l263 -511q5 -12 13 -35q0 18 2 40l62 506h71l-84 -682h-71l-255 511q-7 14 -17 49q-1 -6 -2 -18t-2 -21 t-2 -15z" />
<glyph unicode="&#xd2;" horiz-adv-x="669" d="M311 880l74 34l72 -163l-43 -17zM88 345q20 169 109.5 259t217.5 91q125 1 197 -91t53 -259q-20 -180 -110 -267.5t-218 -87.5t-198 87.5t-51 267.5zM345 60q100 0 168 78.5t82 206.5q13 122 -37.5 200t-150.5 78q-98 0 -166.5 -79.5t-81.5 -198.5q-14 -128 36.5 -206.5 t149.5 -78.5z" />
<glyph unicode="&#xd3;" horiz-adv-x="669" d="M367 757l108 163l74 -40l-136 -146zM88 345q20 169 109.5 259t217.5 91q125 1 197 -91t53 -259q-20 -180 -110 -267.5t-218 -87.5t-198 87.5t-51 267.5zM345 60q100 0 168 78.5t82 206.5q13 122 -37.5 200t-150.5 78q-98 0 -166.5 -79.5t-81.5 -198.5 q-14 -128 36.5 -206.5t149.5 -78.5z" />
<glyph unicode="&#xd4;" horiz-adv-x="669" d="M507 754l-82 93l-94 -92l-44 48l110 104h68l95 -106zM88 345q20 169 109.5 259t217.5 91q125 1 197 -91t53 -259q-20 -180 -110 -267.5t-218 -87.5t-198 87.5t-51 267.5zM345 60q100 0 168 78.5t82 206.5q13 122 -37.5 200t-150.5 78q-98 0 -166.5 -79.5t-81.5 -198.5 q-14 -128 36.5 -206.5t149.5 -78.5z" />
<glyph unicode="&#xd5;" horiz-adv-x="669" d="M287 808q56 56 96 56q24 0 50 -20.5t44 -20.5q28 0 73 27l15 -42q-61 -54 -96 -54q-23 0 -48.5 20.5t-44.5 20.5q-42 0 -69 -22zM88 345q20 169 109.5 259t217.5 91q125 1 197 -91t53 -259q-20 -180 -110 -267.5t-218 -87.5t-198 87.5t-51 267.5zM345 60q100 0 168 78.5 t82 206.5q13 122 -37.5 200t-150.5 78q-98 0 -166.5 -79.5t-81.5 -198.5q-14 -128 36.5 -206.5t149.5 -78.5z" />
<glyph unicode="&#xd6;" horiz-adv-x="669" d="M581 818q-6 -53 -53 -53q-48 0 -42 53t54 53q49 0 41 -53zM321 871q49 0 41 -53q-4 -53 -53 -53q-48 0 -42 53t54 53zM88 345q20 169 109.5 259t217.5 91q125 1 197 -91t53 -259q-20 -180 -110 -267.5t-218 -87.5t-198 87.5t-51 267.5zM345 60q100 0 168 78.5t82 206.5 q13 122 -37.5 200t-150.5 78q-98 0 -166.5 -79.5t-81.5 -198.5q-14 -128 36.5 -206.5t149.5 -78.5z" />
<glyph unicode="&#xd7;" horiz-adv-x="477" d="M367 93l-102 129l-130 -129l-39 49l131 129l-102 129l50 49l101 -129l131 129l38 -49l-130 -129l102 -129z" />
<glyph unicode="&#xd8;" horiz-adv-x="669" d="M407 623q-98 0 -166.5 -79.5t-81.5 -198.5q-17 -148 51 -227l273 490q-35 15 -76 15zM345 59q100 0 168 79t82 207q16 149 -58 226l-275 -494q34 -18 83 -18zM223 9l-44 -80h-74l63 115q-103 90 -80 301q19 169 109 259t218 91q59 0 104 -19l36 62h74l-53 -96 q112 -92 89 -297q-21 -180 -110.5 -267.5t-217.5 -87.5q-67 0 -114 19z" />
<glyph unicode="&#xd9;" horiz-adv-x="609" d="M292 880l74 34l72 -163l-43 -17zM102 282l44 400h70l-45 -402q-12 -115 22 -167.5t124 -52.5q89 0 135 53t59 168l44 401h70l-44 -400q-15 -144 -78 -218t-194 -74q-129 0 -176 75t-31 217z" />
<glyph unicode="&#xda;" horiz-adv-x="609" d="M336 757l108 163l74 -40l-136 -146zM102 282l44 400h70l-45 -402q-12 -115 22 -167.5t124 -52.5q89 0 135 53t59 168l44 401h70l-44 -400q-15 -144 -78 -218t-194 -74q-129 0 -176 75t-31 217z" />
<glyph unicode="&#xdb;" horiz-adv-x="609" d="M477 754l-82 93l-94 -92l-44 48l110 104h68l95 -106zM102 282l44 400h70l-45 -402q-12 -115 22 -167.5t124 -52.5q89 0 135 53t59 168l44 401h70l-44 -400q-15 -144 -78 -218t-194 -74q-129 0 -176 75t-31 217z" />
<glyph unicode="&#xdc;" horiz-adv-x="609" d="M551 818q-6 -53 -53 -53q-48 0 -42 53t54 53q49 0 41 -53zM291 871q49 0 41 -53q-4 -53 -53 -53q-48 0 -42 53t54 53zM102 282l44 400h70l-45 -402q-12 -115 22 -167.5t124 -52.5q89 0 135 53t59 168l44 401h70l-44 -400q-15 -144 -78 -218t-194 -74q-129 0 -176 75 t-31 217z" />
<glyph unicode="&#xdd;" horiz-adv-x="503" d="M272 757l108 163l74 -40l-136 -146zM227 0l34 313l-167 369h78l120 -275l8 -23l14 23l180 275h83l-246 -369l-34 -313h-70zM296 342h2l-1 6z" />
<glyph unicode="&#xde;" horiz-adv-x="537" d="M217 532l-33 -273h104q85 0 125 35.5t48 101.5q8 68 -23 102t-118 34h-103zM278 179h-104l-22 -179h-72l73 590h-1l23 180h72l-20 -158h104q67 0 113 -18t67 -50t27 -68t1 -79q-5 -42 -20.5 -77.5t-44 -68.5t-79 -52.5t-117.5 -19.5z" />
<glyph unicode="&#xdf;" horiz-adv-x="532" d="M208 481l-59 -481h-69l60 487q12 102 67 158.5t144 56.5q86 0 128.5 -52t31.5 -137q-12 -100 -94 -158q91 -45 76 -166q-10 -82 -73 -135.5t-165 -53.5h-23l9 76h16q60 0 107.5 28t55.5 91q7 64 -27 89t-94 29l-28 2l9 76l29 2q57 3 88 37t37 81q6 50 -21.5 81t-79.5 31 q-107 0 -125 -142z" />
<glyph unicode="&#xe0;" horiz-adv-x="508" d="M204 706l83 40l72 -163l-52 -23zM294 421q-61 0 -99.5 -47t-47.5 -130q-10 -83 19 -133t99 -50q32 0 57.5 10.5t35.5 20.5l10 10l26 209q6 52 -26 81t-74 29zM371 49q-61 -59 -129 -59q-93 0 -136 68t-30 186q13 115 71.5 182t148.5 67q48 0 77.5 -17t40.5 -36l14 41h53 l-53 -481h-57v49z" />
<glyph unicode="&#xe1;" horiz-adv-x="508" d="M278 581l108 163l74 -40l-135 -146zM294 421q-61 0 -99.5 -47t-47.5 -130q-10 -83 19 -133t99 -50q32 0 57.5 10.5t35.5 20.5l10 10l26 209q6 52 -26 81t-74 29zM371 49q-61 -59 -129 -59q-93 0 -136 68t-30 186q13 115 71.5 182t148.5 67q48 0 77.5 -17t40.5 -36l14 41 h53l-53 -481h-57v49z" />
<glyph unicode="&#xe2;" horiz-adv-x="508" d="M396 563l-81 93l-95 -92l-44 48l111 104h68l95 -106zM294 421q-61 0 -99.5 -47t-47.5 -130q-10 -83 19 -133t99 -50q32 0 57.5 10.5t35.5 20.5l10 10l26 209q6 52 -26 81t-74 29zM371 49q-61 -59 -129 -59q-93 0 -136 68t-30 186q13 115 71.5 182t148.5 67q48 0 77.5 -17 t40.5 -36l14 41h53l-53 -481h-57v49z" />
<glyph unicode="&#xe3;" horiz-adv-x="508" d="M193 619q56 56 96 56q24 0 50 -20.5t44 -20.5q11 0 23.5 3.5t20.5 7.5t18.5 9.5t11.5 6.5l14 -42q-61 -54 -96 -54q-24 0 -49.5 20.5t-44.5 20.5q-41 0 -68 -22zM294 421q-61 0 -99.5 -47t-47.5 -130q-10 -83 19 -133t99 -50q32 0 57.5 10.5t35.5 20.5l10 10l26 209 q6 52 -26 81t-74 29zM371 49q-61 -59 -129 -59q-93 0 -136 68t-30 186q13 115 71.5 182t148.5 67q48 0 77.5 -17t40.5 -36l14 41h53l-53 -481h-57v49z" />
<glyph unicode="&#xe4;" horiz-adv-x="508" d="M424 704q48 0 43 -53q-7 -53 -54 -53q-48 0 -42 53t53 53zM241 704q48 0 43 -53q-7 -53 -54 -53q-48 0 -42 53t53 53zM294 421q-61 0 -99.5 -47t-47.5 -130q-10 -83 19 -133t99 -50q32 0 57.5 10.5t35.5 20.5l10 10l26 209q6 52 -26 81t-74 29zM371 49q-61 -59 -129 -59 q-93 0 -136 68t-30 186q13 115 71.5 182t148.5 67q48 0 77.5 -17t40.5 -36l14 41h53l-53 -481h-57v49z" />
<glyph unicode="&#xe5;" horiz-adv-x="508" d="M316 562q-44 0 -65.5 27.5t-16.5 76.5t33.5 76.5t72.5 27.5t65.5 -27.5t15.5 -76.5q-5 -49 -33 -76.5t-72 -27.5zM322 617q44 0 50 49q3 23 -7.5 36t-31.5 13q-44 0 -49 -49q-3 -23 7.5 -36t30.5 -13zM294 421q-61 0 -99.5 -47t-47.5 -130q-10 -83 19 -133t99 -50 q32 0 57.5 10.5t35.5 20.5l10 10l26 209q6 52 -26 81t-74 29zM371 49q-61 -59 -129 -59q-93 0 -136 68t-30 186q13 115 71.5 182t148.5 67q48 0 77.5 -17t40.5 -36l14 41h53l-53 -481h-57v49z" />
<glyph unicode="&#xe6;" horiz-adv-x="724" d="M531 -10q-105 0 -154 89q-75 -89 -175 -89q-170 0 -136 254q15 115 76 182t154 67q79 0 139 -55q52 55 131 55q66 0 105 -36t39 -94q0 -44 -19.5 -77t-51.5 -51t-63.5 -27.5t-64.5 -12.5l-89 -8q5 -46 28 -74.5t48.5 -37t55.5 -8.5q31 0 62.5 9.5t47.5 18.5l16 9l20 -63 q-29 -22 -75.5 -36.5t-93.5 -14.5zM220 63q74 0 134 78q-8 46 -2 94q12 87 42 145q-46 41 -100 41q-64 0 -104 -46.5t-53 -130.5q-28 -181 83 -181zM423 255l85 9l4 1q53 5 91.5 27t38.5 63q0 30 -25 47.5t-58 17.5q-51 0 -89 -43.5t-47 -121.5z" />
<glyph unicode="&#xe7;" horiz-adv-x="430" d="M459 438l-43 -53q-39 35 -111 35q-63 0 -107.5 -43t-52.5 -132q-5 -55 6 -93.5t34 -57t46.5 -26t49.5 -7.5q59 1 121 30l17 -62q-83 -39 -144 -39q-109 0 -160 65.5t-40 182.5q11 113 68 184t161 71q111 0 155 -55zM331 -155q-11 -45 -44.5 -65.5t-76.5 -17.5 q-17 3 -34 9t-26 11l-8 4l21 43q4 -2 10.5 -4.5t24.5 -7t32.5 -4.5t28.5 9t19 27q6 30 -20.5 49.5t-71.5 24.5l13 42q78 -6 111 -37t21 -83z" />
<glyph unicode="&#xe8;" horiz-adv-x="450" d="M208 706l83 40l72 -163l-52 -23zM246 -10q-171 0 -171 220q0 114 65 198t177 85q61 -1 90 -36.5t29 -79.5q0 -41 -13 -72t-38 -49.5t-51 -30.5t-64 -17.5t-63 -7t-61 -1.5q3 -80 34 -109.5t84 -29.5q28 0 63.5 11t56.5 22l21 11l18 -59q-73 -55 -177 -55zM305 425 q-56 0 -101.5 -43.5t-55.5 -120.5q219 4 219 105q0 59 -62 59z" />
<glyph unicode="&#xe9;" horiz-adv-x="450" d="M270 581l108 163l74 -40l-135 -146zM246 -10q-171 0 -171 220q0 114 65 198t177 85q61 -1 90 -36.5t29 -79.5q0 -41 -13 -72t-38 -49.5t-51 -30.5t-64 -17.5t-63 -7t-61 -1.5q3 -80 34 -109.5t84 -29.5q28 0 63.5 11t56.5 22l21 11l18 -59q-73 -55 -177 -55zM305 425 q-56 0 -101.5 -43.5t-55.5 -120.5q219 4 219 105q0 59 -62 59z" />
<glyph unicode="&#xea;" horiz-adv-x="450" d="M398 543l-81 93l-95 -92l-44 48l111 104h68l95 -106zM246 -10q-171 0 -171 220q0 114 65 198t177 85q61 -1 90 -36.5t29 -79.5q0 -41 -13 -72t-38 -49.5t-51 -30.5t-64 -17.5t-63 -7t-61 -1.5q3 -80 34 -109.5t84 -29.5q28 0 63.5 11t56.5 22l21 11l18 -59 q-73 -55 -177 -55zM305 425q-56 0 -101.5 -43.5t-55.5 -120.5q219 4 219 105q0 59 -62 59z" />
<glyph unicode="&#xeb;" horiz-adv-x="450" d="M419 704q48 0 43 -53q-7 -53 -54 -53q-48 0 -42 53t53 53zM236 704q48 0 43 -53q-7 -53 -54 -53q-48 0 -42 53t53 53zM246 -10q-171 0 -171 220q0 114 65 198t177 85q61 -1 90 -36.5t29 -79.5q0 -41 -13 -72t-38 -49.5t-51 -30.5t-64 -17.5t-63 -7t-61 -1.5 q3 -80 34 -109.5t84 -29.5q28 0 63.5 11t56.5 22l21 11l18 -59q-73 -55 -177 -55zM305 425q-56 0 -101.5 -43.5t-55.5 -120.5q219 4 219 105q0 59 -62 59z" />
<glyph unicode="&#xec;" horiz-adv-x="249" d="M71 706l83 40l72 -163l-52 -23zM154 481h68l-53 -481h-68z" />
<glyph unicode="&#xed;" horiz-adv-x="250" d="M151 581l108 163l74 -40l-135 -146zM154 481h68l-53 -481h-68z" />
<glyph unicode="&#xee;" horiz-adv-x="249" d="M278 563l-81 93l-95 -92l-44 48l111 104h68l95 -106zM154 481h68l-53 -481h-68z" />
<glyph unicode="&#xef;" horiz-adv-x="249" d="M299 704q48 0 43 -53q-7 -53 -54 -53q-48 0 -42 53t53 53zM116 704q48 0 43 -53q-7 -53 -54 -53q-48 0 -42 53t53 53zM154 481h68l-53 -481h-68z" />
<glyph unicode="&#xf1;" horiz-adv-x="507" d="M194 619q56 56 96 56q24 0 50 -20.5t44 -20.5q11 0 23.5 3.5t20.5 7.5t18.5 9.5t11.5 6.5l14 -42q-61 -54 -96 -54q-24 0 -49.5 20.5t-44.5 20.5q-41 0 -68 -22zM86 0l53 481h47l15 -55h2q53 67 139 67q70 0 108.5 -48.5t30.5 -118.5l-36 -326h-68l30 279q16 142 -91 142 q-58 0 -91.5 -43t-40.5 -111l-30 -267h-68z" />
<glyph unicode="&#xf2;" horiz-adv-x="505" d="M215 706l83 40l72 -163l-52 -23zM256 -10q-92 0 -143.5 61t-37.5 186q13 119 79.5 187.5t155.5 68.5t140 -68t38 -188q-14 -125 -77 -186t-155 -61zM263 60q61 0 104 44t53 133q9 86 -24.5 135.5t-92.5 49.5q-58 0 -104 -50t-55 -135q-10 -89 24.5 -133t94.5 -44z" />
<glyph unicode="&#xf3;" horiz-adv-x="505" d="M274 581l108 163l74 -40l-135 -146zM256 -10q-92 0 -143.5 61t-37.5 186q13 119 79.5 187.5t155.5 68.5t140 -68t38 -188q-14 -125 -77 -186t-155 -61zM263 60q61 0 104 44t53 133q9 86 -24.5 135.5t-92.5 49.5q-58 0 -104 -50t-55 -135q-10 -89 24.5 -133t94.5 -44z" />
<glyph unicode="&#xf4;" horiz-adv-x="505" d="M409 563l-81 93l-95 -92l-44 48l111 104h68l95 -106zM256 -10q-92 0 -143.5 61t-37.5 186q13 119 79.5 187.5t155.5 68.5t140 -68t38 -188q-14 -125 -77 -186t-155 -61zM263 60q61 0 104 44t53 133q9 86 -24.5 135.5t-92.5 49.5q-58 0 -104 -50t-55 -135 q-10 -89 24.5 -133t94.5 -44z" />
<glyph unicode="&#xf5;" horiz-adv-x="505" d="M186 619q56 56 96 56q24 0 50 -20.5t44 -20.5q11 0 23.5 3.5t20.5 7.5t18.5 9.5t11.5 6.5l14 -42q-61 -54 -96 -54q-24 0 -49.5 20.5t-44.5 20.5q-41 0 -68 -22zM256 -10q-92 0 -143.5 61t-37.5 186q13 119 79.5 187.5t155.5 68.5t140 -68t38 -188q-14 -125 -77 -186 t-155 -61zM263 60q61 0 104 44t53 133q9 86 -24.5 135.5t-92.5 49.5q-58 0 -104 -50t-55 -135q-10 -89 24.5 -133t94.5 -44z" />
<glyph unicode="&#xf6;" horiz-adv-x="505" d="M431 704q48 0 43 -53q-7 -53 -54 -53q-48 0 -42 53t53 53zM248 704q48 0 43 -53q-7 -53 -54 -53q-48 0 -42 53t53 53zM256 -10q-92 0 -143.5 61t-37.5 186q13 119 79.5 187.5t155.5 68.5t140 -68t38 -188q-14 -125 -77 -186t-155 -61zM263 60q61 0 104 44t53 133 q9 86 -24.5 135.5t-92.5 49.5q-58 0 -104 -50t-55 -135q-10 -89 24.5 -133t94.5 -44z" />
<glyph unicode="&#xf7;" horiz-adv-x="477" d="M301 491q48 0 42 -53t-54 -53t-41 53q6 53 53 53zM459 245h-390l9 70h390zM243 69q-48 0 -41 53q6 53 53 53q48 0 42 -53t-54 -53z" />
<glyph unicode="&#xf8;" horiz-adv-x="505" d="M256 -10q-69 0 -115 34l-19 -24h-74l54 67q-38 63 -27 170q13 119 79.5 187.5t155.5 68.5q62 0 108 -35l18 23h75l-54 -67q43 -67 31 -177q-14 -125 -77 -186t-155 -61zM144 237q-7 -64 10 -106l216 269q-30 22 -67 22q-58 0 -104 -50t-55 -135zM263 60q61 0 104 44 t53 133q7 68 -13 115l-218 -269q30 -23 74 -23z" />
<glyph unicode="&#xf9;" horiz-adv-x="507" d="M196 706l83 40l72 -163l-52 -23zM480 481l-53 -481h-62v55h-2q-52 -65 -139 -65q-70 0 -108.5 47.5t-30.5 117.5l36 326h68l-30 -279q-16 -142 91 -142q58 0 91.5 43t40.5 111l30 267h68z" />
<glyph unicode="&#xfa;" horiz-adv-x="507" d="M272 581l108 163l74 -40l-135 -146zM480 481l-53 -481h-62v55h-2q-52 -65 -139 -65q-70 0 -108.5 47.5t-30.5 117.5l36 326h68l-30 -279q-16 -142 91 -142q58 0 91.5 43t40.5 111l30 267h68z" />
<glyph unicode="&#xfb;" horiz-adv-x="507" d="M396 563l-81 93l-95 -92l-44 48l111 104h68l95 -106zM480 481l-53 -481h-62v55h-2q-52 -65 -139 -65q-70 0 -108.5 47.5t-30.5 117.5l36 326h68l-30 -279q-16 -142 91 -142q58 0 91.5 43t40.5 111l30 267h68z" />
<glyph unicode="&#xfc;" horiz-adv-x="507" d="M410 704q48 0 43 -53q-7 -53 -54 -53q-48 0 -42 53t53 53zM227 704q48 0 43 -53q-7 -53 -54 -53q-48 0 -42 53t53 53zM480 481l-53 -481h-62v55h-2q-52 -65 -139 -65q-70 0 -108.5 47.5t-30.5 117.5l36 326h68l-30 -279q-16 -142 91 -142q58 0 91.5 43t40.5 111l30 267 h68z" />
<glyph unicode="&#xfd;" horiz-adv-x="424" d="M259 581l108 163l74 -40l-135 -146zM135 -209l-75 12q0 48 29 126.5t58 118.5q-22 108 -36.5 216t-18.5 162l-4 55h69q13 -173 49 -386q83 106 118.5 178t35.5 154l-3 53l70 11q5 -17 5 -58q0 -98 -47 -192.5t-146 -200.5q-43 -46 -73.5 -117.5t-30.5 -131.5z" />
<glyph unicode="&#xfe;" horiz-adv-x="510" d="M276 55q60 0 99 50.5t47 134.5q9 81 -16 130.5t-83 49.5q-53 0 -90 -31.5t-42 -80.5l-15 -136l-1 -7q-6 -53 26.5 -81.5t74.5 -28.5zM143 -128l-9 -72h-68l100 900h68l-28 -259q53 50 137 50q83 0 123.5 -67.5t27.5 -183.5q-13 -115 -71.5 -182.5t-148.5 -67.5 q-75 0 -113 46l-9 -77z" />
<glyph unicode="&#xff;" horiz-adv-x="424" d="M371 704q48 0 42 -53q-7 -53 -54 -53q-48 0 -41 53q5 53 53 53zM188 704q48 0 42 -53t-54 -53t-41 53q5 53 53 53zM135 -209l-75 12q0 48 29 126.5t58 118.5q-22 108 -36.5 216t-18.5 162l-4 55h69q13 -173 49 -386q83 106 118.5 178t35.5 154l-3 53l70 11q5 -17 5 -58 q0 -98 -47 -192.5t-146 -200.5q-43 -46 -73.5 -117.5t-30.5 -131.5z" />
<glyph unicode="&#x131;" horiz-adv-x="249" d="M146 481h68l-53 -481h-68z" />
<glyph unicode="&#x152;" horiz-adv-x="896" d="M862 0h-388q-50 -10 -108 -10q-144 0 -221 82.5t-57 267.5q19 173 118 264t238 91q54 0 96 -13h397l-9 -77h-325l-25 -224h279l-9 -77h-279l-25 -227h326zM375 67q58 0 98 13l57 519q-42 16 -94 16q-113 0 -187.5 -74.5t-88.5 -200.5q-15 -134 42 -203.5t173 -69.5z" />
<glyph unicode="&#x153;" horiz-adv-x="786" d="M761 41q-29 -22 -75.5 -36.5t-92.5 -14.5q-112 0 -157 90q-63 -90 -180 -90q-92 0 -143.5 61t-37.5 186q13 119 79.5 187.5t155.5 68.5q51 0 92.5 -25t64.5 -70q61 95 160 95q66 0 105.5 -36t39.5 -94q0 -44 -19.5 -77t-52 -51t-64 -27.5t-64.5 -12.5l-88 -8 q4 -35 17.5 -60t33 -37.5t39 -17.5t41.5 -5q31 0 62.5 9.5t47.5 18.5l16 9zM263 60q58 0 103.5 47.5t53.5 119.5q10 88 -23.5 141t-93.5 53q-58 0 -104 -49.5t-55 -134.5q-10 -89 24.5 -133t94.5 -44zM488 255l81 9l5 1q52 5 90.5 27t38.5 63q0 30 -24.5 47.5t-57.5 17.5 q-47 0 -83 -36t-49 -103q0 -5 -0.5 -13t-0.5 -13z" />
<glyph unicode="&#x178;" horiz-adv-x="503" d="M248 871q43 0 37 -53q-4 -53 -48 -53t-38 53q8 53 49 53zM482 818q-4 -53 -48 -53q-42 0 -38 53q6 53 49 53t37 -53zM297 0h-70l34 313l-167 369h78l120 -275l8 -23l14 23l180 275h83l-246 -369zM296 342h2l-1 6z" />
<glyph unicode="&#x192;" d="M135 -120q-30 0 -56 9l24 67q18 -6 44 -6q41 0 62 28t28 95l38 340h-93l7 68h93l13 119q19 168 173 170q40 -2 68 -12l-21 -66q-19 7 -53 7q-45 0 -69 -24.5t-31 -88.5l-12 -105h133l-7 -68h-133l-40 -354q-9 -88 -52 -133.5t-116 -45.5z" />
<glyph unicode="&#x2c6;" horiz-adv-x="300" d="M308 563l-81 93l-95 -92l-44 48l111 104h68l95 -106z" />
<glyph unicode="&#x2c7;" horiz-adv-x="300" d="M225 627l101 93l44 -47l-118 -106h-69l-88 104l55 48z" />
<glyph unicode="&#x2d9;" horiz-adv-x="200" d="M189 712q48 0 43 -53q-7 -53 -54 -53q-48 0 -42 53t53 53z" />
<glyph unicode="&#x2da;" horiz-adv-x="250" d="M198 562q-44 0 -65.5 27.5t-16.5 76.5t33.5 76.5t72.5 27.5t65.5 -27.5t15.5 -76.5q-5 -49 -33 -76.5t-72 -27.5zM204 617q44 0 50 49q3 23 -7.5 36t-31.5 13q-44 0 -49 -49q-3 -23 7.5 -36t30.5 -13z" />
<glyph unicode="&#x2dc;" horiz-adv-x="300" d="M87 619q56 56 96 56q24 0 50 -20.5t44 -20.5q11 0 23.5 3.5t20.5 7.5t18.5 9.5t11.5 6.5l14 -42q-61 -54 -96 -54q-24 0 -49.5 20.5t-44.5 20.5q-41 0 -68 -22z" />
<glyph unicode="&#x3bc;" horiz-adv-x="525" d="M381 55q-53 -66 -139 -66q-50 0 -87 27l-24 -215h-68l76 680h68l-30 -279q-16 -142 91 -142q58 0 91.5 43t40.5 111l30 267h68l-53 -481h-62v55h-2z" />
<glyph unicode="&#x2000;" horiz-adv-x="465" />
<glyph unicode="&#x2001;" horiz-adv-x="930" />
<glyph unicode="&#x2002;" horiz-adv-x="465" />
<glyph unicode="&#x2003;" horiz-adv-x="930" />
<glyph unicode="&#x2004;" horiz-adv-x="310" />
<glyph unicode="&#x2005;" horiz-adv-x="232" />
<glyph unicode="&#x2006;" horiz-adv-x="155" />
<glyph unicode="&#x2007;" horiz-adv-x="155" />
<glyph unicode="&#x2008;" horiz-adv-x="116" />
<glyph unicode="&#x2009;" horiz-adv-x="186" />
<glyph unicode="&#x200a;" horiz-adv-x="51" />
<glyph unicode="&#x2010;" horiz-adv-x="321" d="M61 297h270l-7 -70h-270z" />
<glyph unicode="&#x2011;" horiz-adv-x="321" d="M61 297h270l-7 -70h-270z" />
<glyph unicode="&#x2012;" horiz-adv-x="321" d="M61 297h270l-7 -70h-270z" />
<glyph unicode="&#x2013;" horiz-adv-x="453" d="M41 247l5 50h432l-5 -50h-432z" />
<glyph unicode="&#x2014;" horiz-adv-x="901" d="M41 247l5 50h881l-6 -50h-880z" />
<glyph unicode="&#x2018;" horiz-adv-x="180" d="M222 791l21 -31q-3 -2 -8 -5t-17.5 -13.5t-22.5 -21.5t-19.5 -27.5t-11.5 -32.5q27 0 41.5 -16.5t10.5 -48.5q-6 -66 -65 -66q-36 0 -45.5 27t0.5 76q6 33 20 61.5t30 45.5t31 29.5t25 17.5z" />
<glyph unicode="&#x2019;" horiz-adv-x="180" d="M110 501l-21 31q3 2 8 5t17.5 13.5t22.5 21.5t19.5 27.5t11.5 32.5q-27 0 -41.5 16.5t-10.5 48.5q6 66 65 66q36 0 45.5 -27t-0.5 -76q-6 -33 -20 -61.5t-30 -45.5t-31 -29.5t-25 -17.5z" />
<glyph unicode="&#x201c;" horiz-adv-x="371" d="M417 802l21 -31q-3 -2 -8 -5t-17.5 -13.5t-22.5 -21.5t-19.5 -27.5t-11.5 -32.5q27 0 41.5 -16.5t10.5 -48.5q-6 -66 -65 -66q-36 0 -45.5 27t0.5 76q6 33 20 61.5t30 45.5t31 29.5t25 17.5zM226 802l21 -31q-3 -2 -8 -5t-17.5 -13.5t-22.5 -21.5t-19.5 -27.5 t-11.5 -32.5q27 0 41.5 -16.5t10.5 -48.5q-6 -66 -65 -66q-36 0 -45.5 27t0.5 76q6 33 20 61.5t30 45.5t31 29.5t25 17.5z" />
<glyph unicode="&#x201d;" horiz-adv-x="371" d="M110 501l-21 31q3 2 8 5t17.5 13.5t22.5 21.5t19.5 27.5t11.5 32.5q-27 0 -41.5 16.5t-10.5 48.5q6 66 65 66q36 0 45.5 -27t-0.5 -76q-6 -33 -20 -61.5t-30 -45.5t-31 -29.5t-25 -17.5zM301 501l-21 31q3 2 8 5t17.5 13.5t22.5 21.5t19.5 27.5t11.5 32.5 q-27 0 -41.5 16.5t-10.5 48.5q6 66 65 66q36 0 45.5 -27t-0.5 -76q-6 -33 -20 -61.5t-30 -45.5t-31 -29.5t-25 -17.5z" />
<glyph unicode="&#x2020;" horiz-adv-x="598" d="M380 422l-68 -582h-66l75 582l-189 -5l8 64l188 -5l19 185h66l-27 -185l190 5l-8 -64z" />
<glyph unicode="&#x2026;" horiz-adv-x="1000" d="M846 118q60 0 53 -66q-6 -65 -67 -65q-30 0 -42 15.5t-9 49.5q5 34 20 50t45 16zM512 118q60 0 53 -66q-7 -65 -68 -65q-57 0 -50 65q7 66 65 66zM177 118q62 0 53 -66q-6 -65 -67 -65q-30 0 -42 15.5t-9 49.5q9 66 65 66z" />
<glyph unicode="&#x202f;" horiz-adv-x="186" />
<glyph unicode="&#x2039;" horiz-adv-x="261" d="M169 46l-97 196l140 196l46 -39l-112 -157l77 -157z" />
<glyph unicode="&#x203a;" horiz-adv-x="262" d="M110 46l-50 40l111 157l-73 156l55 39l97 -196z" />
<glyph unicode="&#x205f;" horiz-adv-x="232" />
<glyph unicode="&#x20ac;" d="M581 65q-107 -77 -255 -77q-129 0 -193 93t-46 251q18 163 104.5 263t220.5 100q62 0 118 -18.5t87 -45.5l-35 -59q-67 50 -181 50q-70 0 -129 -46.5t-90 -139.5h316l-42 -70h-291q-2 -12 -4 -34q-3 -22 -3 -44h252l-46 -73h-201q15 -74 62 -111t116 -37q73 0 119 14 t101 45z" />
<glyph unicode="&#x2122;" horiz-adv-x="766" d="M297 618l-34 -279h-63l34 279h-113l8 64h284l-8 -64h-108zM496 542l-25 -203h-63l42 343h53l75 -196q4 -10 7 -28q12 24 15 28l121 196h52l-42 -343h-61l25 203l7 23l-113 -193h-32l-64 193q3 -16 3 -23z" />
<glyph unicode="&#x2190;" horiz-adv-x="326" d="M242 15l-164 218l212 218l43 -48l-164 -170l124 -170z" />
<glyph unicode="&#x2191;" horiz-adv-x="463" d="M377 149l-132 159l-171 -162l-41 53l220 210l173 -210z" />
<glyph unicode="&#x2192;" horiz-adv-x="326" d="M93 15l-42 51l165 170l-126 167l51 48l165 -218z" />
<glyph unicode="&#x2193;" horiz-adv-x="463" d="M219 92l-173 210l49 50l133 -159l171 162l39 -53z" />
<glyph unicode="&#x2212;" horiz-adv-x="477" d="M463 236h-391l9 70h390z" />
<glyph horiz-adv-x="575" d="M361 516q0 -7 -2 -21q-2 -13 -13.5 -46t-14.5 -47q13 0 51.5 16.5t66.5 16.5q57 0 89 -48.5t32 -109.5t-22 -118q-24 -60 -66.5 -110t-94.5 -50q-12 0 -35 5.5t-35 5.5t-35 -5.5t-34 -5.5q-52 0 -96 48.5t-66 111.5t-22 118q0 62 32.5 110t90.5 48q27 0 70.5 -16.5 t56.5 -16.5q12 40 19 60q-16 4 -47 22q-34 20 -52.5 52.5t-23 62.5t-17 65.5t-34.5 58.5q43 -4 82 -26q50 -29 85 -79.5t35 -101.5zM115 205q21 0 52.5 51t35.5 75v6q0 36 -37 41q-2 0 -5 0.5t-5 0.5q-31 0 -46 -25.5t-17 -58.5q0 -5 -0.5 -12.5t-0.5 -11.5q0 -66 23 -66z " />
<glyph horiz-adv-x="255" d="M213 704q48 0 42 -53t-54 -53t-41 53q6 53 53 53z" />
<glyph horiz-adv-x="475" d="M86 0l56 501h360z" />
<glyph horiz-adv-x="475" d="M451 501l-56 -501h-361z" />
<glyph horiz-adv-x="0" d="M2 757l108 163l74 -40l-136 -146z" />
<glyph horiz-adv-x="0" d="M23 880l74 34l72 -163l-43 -17z" />
<glyph horiz-adv-x="0" d="M173 754l-82 93l-95 -92l-44 48l110 104h69l95 -106z" />
<glyph horiz-adv-x="0" d="M-48 808q56 56 97 56q24 0 49.5 -20.5t43.5 -20.5q9 0 19 2t19 6t14.5 7t13 7.5t8.5 4.5l14 -42l-6 -6q-5 -5 -9.5 -8.5t-12.5 -10t-15.5 -11t-16 -9t-18 -7t-17.5 -2.5q-24 0 -49.5 20.5t-44.5 20.5q-40 0 -69 -22z" />
<glyph horiz-adv-x="0" d="M247 818q-6 -53 -53 -53t-43 53q8 53 54 53q48 0 42 -53zM-14 871q48 0 42 -53t-53 -53t-43 53q8 53 54 53z" />
<glyph horiz-adv-x="0" d="M-3 826q6 49 34 76.5t72 27.5t66 -27.5t16 -76.5q-6 -50 -33.5 -77t-71.5 -27t-66 27.5t-17 76.5zM86 777q20 0 33.5 13t15.5 36q3 23 -7.5 36t-31.5 13q-44 0 -49 -49t39 -49z" />
<glyph horiz-adv-x="726" d="M723 340q-21 -189 -106.5 -271.5t-251.5 -82.5q-165 0 -232 82.5t-46 271.5q19 181 106 266.5t251 85.5q163 0 231 -85.5t48 -266.5zM374 57q136 0 201.5 63.5t83.5 219.5q16 144 -37 212.5t-186 68.5q-134 0 -201.5 -66t-83.5 -215q-17 -156 34.5 -219.5t188.5 -63.5z M524 186q-50 -35 -133 -35q-86 0 -125.5 47t-29.5 136q9 90 60 144.5t132 54.5q79 0 113 -49l-27 -45q-32 32 -93 32q-106 0 -120 -133q-15 -127 99 -127q27 0 53.5 6.5t40.5 12.5l13 6z" />
<glyph horiz-adv-x="726" d="M722 340q-21 -190 -106 -272t-251 -82t-232.5 82.5t-45.5 271.5q20 181 106.5 266.5t249.5 85.5t231 -85.5t48 -266.5zM373 57q137 0 202.5 63.5t82.5 219.5q16 144 -37 212.5t-186 68.5q-134 0 -201 -66t-83 -215q-18 -155 34 -219t188 -64zM342 335h65q43 0 61 16.5 t21 50.5q5 44 -14 59.5t-64 15.5h-52q0 -2 -2.5 -22t-6.5 -55t-8 -65zM336 279l-12 -115h-54l40 368h118q66 0 94.5 -37t23.5 -91q-11 -89 -91 -115l76 -125h-68l-70 115h-57z" />
<glyph horiz-adv-x="530" d="M266 -12q-106 0 -152 86.5t-27 255.5q19 175 88 268.5t176 93.5q100 0 147 -93t28 -268q-19 -168 -86 -255.5t-174 -87.5zM274 63q73 0 114.5 62.5t56.5 204.5q15 149 -10.5 217.5t-91.5 68.5q-73 0 -115.5 -68t-58.5 -217q-16 -144 8.5 -206t96.5 -62z" />
<glyph horiz-adv-x="375" d="M262 0h-72l76 585h-10l-108 -66l-26 63l154 100h72z" />
<glyph horiz-adv-x="506" d="M456 0h-396l9 72q339 256 357 414q5 53 -20.5 90.5t-91.5 37.5q-91 0 -166 -50l-21 65q92 63 199 63q91 0 138 -61t38 -151q-5 -50 -32.5 -103.5t-55.5 -91t-81.5 -88.5t-78 -71.5t-76.5 -62.5q24 7 62 7h224z" />
<glyph horiz-adv-x="498" d="M235 -14q-99 0 -186 57l35 64q63 -44 150 -44q138 0 151 115q7 67 -40 100t-165 33l7 64q206 0 221 131q7 56 -24 84.5t-88 28.5q-59 0 -124 -29l-18 60q63 43 150 43t136 -52.5t40 -133.5q-6 -52 -33.5 -94t-72.5 -65q94 -50 82 -169q-9 -84 -69.5 -138.5t-151.5 -54.5z " />
<glyph horiz-adv-x="507" d="M317 0l19 168h-272l8 74l334 440h57l-49 -440h88l-8 -74h-88l-19 -168h-70zM155 242h189l27 250q7 46 16 76q-23 -55 -38 -75z" />
<glyph horiz-adv-x="505" d="M58 35l35 71q72 -40 163 -40q55 0 96 35.5t47 100.5q7 69 -48 104.5t-170 29.5l-58 -3l55 349h330l-9 -76h-262l-30 -194q133 8 206 -47.5t65 -156.5q-3 -40 -18 -77t-42 -70t-73.5 -52.5t-106.5 -19.5q-47 0 -92 11.5t-66 23.5z" />
<glyph horiz-adv-x="521" d="M488 224q-12 -106 -64 -171.5t-155 -65.5q-198 0 -165 308q25 217 86 307t184 90q70 0 122 -31l-33 -70q-39 24 -96 24q-72 0 -115 -54.5t-65 -183.5q71 48 150 48q82 0 121 -59.5t30 -141.5zM276 62q53 0 92 39t46 110q6 59 -17 99t-86 40q-72 0 -136 -62 q-12 -123 15 -174.5t86 -51.5z" />
<glyph horiz-adv-x="454" d="M118 607l8 76h368l-8 -76l-271 -607h-77l270 607h-290z" />
<glyph horiz-adv-x="539" d="M275 -13q-107 0 -157.5 51.5t-41.5 133.5q6 65 43.5 111t93.5 71q-92 58 -81 159q10 88 74.5 135.5t148.5 47.5q78 0 130.5 -48.5t44.5 -127.5q-6 -51 -37.5 -99t-87.5 -77q112 -62 100 -170q-9 -83 -72 -135t-158 -52zM206 514q-5 -51 23.5 -78t88.5 -52q127 36 138 130 q5 51 -24 82t-85 31q-50 0 -92 -27t-49 -86zM284 58q52 0 95 30.5t49 85.5q6 51 -26.5 82t-95.5 57q-143 -36 -155 -134q-7 -61 32.5 -91t100.5 -30z" />
<glyph horiz-adv-x="522" d="M295 329q69 0 131 41q13 131 -11.5 189.5t-89.5 58.5q-118 0 -135 -152q-8 -71 21 -104t84 -33zM209 -13q-63 0 -113 25l20 71q52 -21 103 -21q77 0 125 51.5t70 171.5q-68 -31 -146 -31q-81 0 -121 62t-30 147q26 230 217 230q108 0 145 -86t20 -242 q-22 -200 -88.5 -289t-201.5 -89z" />
<glyph d="M82 239q0 127 30.5 226.5t98.5 163t167 63.5q209 0 209 -265q0 -89 -17 -166t-51.5 -139t-92.5 -98t-133 -36q-211 0 -211 251zM301 64q100 0 152 101.5t52 265.5q0 97 -32.5 140.5t-104.5 43.5q-68 0 -116 -56t-68.5 -139.5t-20.5 -184.5q0 -91 33 -131t105 -40z" />
<glyph d="M506 0h-411l9 70h179l74 515l1 8q-20 0 -66.5 -16.5t-82.5 -32.5l-36 -16l-1 79q170 75 241 75h36l-86 -612h152z" />
<glyph d="M506 0h-440l8 69q207 157 296.5 248.5t98.5 167.5q7 57 -28.5 91t-108.5 34q-44 0 -85.5 -13t-61.5 -25l-20 -13l-24 70q105 65 216 65q105 0 157.5 -56t41.5 -147q-8 -69 -60.5 -142t-102.5 -117.5t-158 -131.5l-30 -24q63 5 161 5h150z" />
<glyph d="M270 -14q-110 0 -206 57l39 64q69 -44 166 -44q154 0 168 115q8 66 -43 99t-177 34v64q229 0 246 131q7 56 -27.5 84.5t-97.5 28.5q-66 0 -138 -29l-20 60q72 43 167 43q97 0 151.5 -52.5t43.5 -133.5q-6 -52 -36.5 -94t-80.5 -65q49 -24 73.5 -68t17.5 -101 q-10 -84 -77.5 -138.5t-168.5 -54.5z" />
<glyph d="M367 0l21 168h-321l6 52q47 90 168 239.5t206 222.5h91q-42 -265 -63 -440h101l-9 -74h-101l-21 -168h-78zM176 242h221q20 170 51 348q-65 -67 -148.5 -173.5t-123.5 -174.5z" />
<glyph d="M63 35l38 71q80 -40 182 -40q62 0 109 35t56 101q9 74 -50.5 107.5t-198.5 26.5l-64 -3l61 349h366l-10 -76h-291l-33 -194q161 7 237.5 -44.5t63.5 -159.5q-12 -96 -81.5 -157.5t-184.5 -61.5q-52 0 -102 11.5t-74 23.5z" />
<glyph d="M555 224q0 -102 -66 -169.5t-185 -67.5q-100 0 -148.5 69t-48.5 193q0 230 88.5 336.5t239.5 106.5q80 0 131 -31q6 -3 -1 -22t-18 -35t-17 -13q-39 24 -107 24q-52 0 -93 -18.5t-65.5 -46.5t-41.5 -67t-24.5 -73.5t-10.5 -72.5q83 68 190 68q85 0 131 -47.5t46 -133.5z M315 62q67 0 114 42.5t47 118.5q0 49 -32 77t-95 28q-53 0 -96 -19.5t-67 -39.5q1 -114 34 -160.5t95 -46.5z" />
<glyph d="M146 600l10 82h440l-10 -76q-3 -28 -72 -140.5t-170.5 -266t-129.5 -199.5h-97q34 55 133.5 203t172.5 261t76 135v1h-353z" />
<glyph d="M297 -13q-107 0 -159 51.5t-43 133.5q6 65 44.5 111t95.5 71q-95 57 -84 159q10 88 76 135.5t150 47.5q78 0 132 -48.5t46 -127.5q-6 -50 -38 -98t-88 -77q113 -62 101 -171q-9 -83 -73.5 -135t-159.5 -52zM228 514q-3 -28 4.5 -48.5t27 -35.5t36 -23.5t48.5 -21.5 q123 37 134 129q5 50 -24.5 79t-85.5 29q-49 0 -91 -25t-49 -83zM307 63q52 0 94.5 28t48.5 83q6 51 -26.5 82t-95.5 57q-144 -36 -155 -134q-7 -61 32 -88.5t102 -27.5z" />
<glyph d="M331 331q56 0 100 24t65 58v25q0 179 -128 179q-61 0 -112 -51.5t-51 -126.5q0 -108 126 -108zM256 -13q-32 0 -63 6t-52 14.5t-37.5 17.5t-23.5 15l-8 6q-6 5 0.5 24t17.5 34.5t18 11.5q7 -6 20.5 -14.5t54.5 -23t83 -14.5q77 0 141 65.5t83 205.5q-62 -81 -188 -81 q-84 0 -130.5 45.5t-46.5 119.5q0 114 68 193.5t185 79.5q95 0 147 -58.5t52 -166.5q0 -223 -86 -351.5t-235 -128.5z" />
<glyph horiz-adv-x="514" d="M252 -12q-213 0 -174 282q19 148 82.5 224.5t169.5 76.5q105 0 148.5 -76.5t23.5 -224.5q-38 -282 -250 -282zM260 63q75 0 115 48t56 159q17 119 -9 172.5t-100 53.5q-75 0 -116 -53.5t-57 -172.5q-16 -111 10 -159t101 -48z" />
<glyph horiz-adv-x="349" d="M253 0h-72l65 465h-10l-107 -66l-27 63l154 100h72z" />
<glyph horiz-adv-x="481" d="M436 0h-376l8 72q12 6 32.5 17.5t73 45.5t93.5 67.5t77.5 79t41.5 84.5q8 52 -19 89.5t-93 37.5q-80 0 -146 -50l-21 65q83 63 179 63q92 0 141 -61.5t35 -149.5q-7 -46 -37.5 -93.5t-69.5 -82.5t-77 -63.5t-64 -42.5l-26 -15q17 7 42 7h214z" />
<glyph horiz-adv-x="495" d="M226 -136q-99 0 -186 57l35 64q63 -44 150 -44q138 0 151 115q7 67 -40 100t-165 33l7 64q206 0 221 131q7 56 -24 84.5t-88 28.5q-59 0 -124 -29l-18 60q63 43 150 43t136 -52.5t40 -133.5q-6 -52 -33.5 -94t-72.5 -65q94 -50 82 -169q-9 -84 -69.5 -138.5t-151.5 -54.5 z" />
<glyph horiz-adv-x="525" d="M322 -136l20 177h-306l8 74l368 447h57l-49 -447h88l-8 -74h-88l-20 -177h-70zM130 115h220l33 267l10 59q-10 -20 -35 -50z" />
<glyph horiz-adv-x="485" d="M38 -90l35 71q72 -40 163 -40q55 0 96 35.5t47 100.5q7 69 -48 104.5t-170 29.5l-58 -3l55 354h330l-9 -76h-262l-30 -199q133 8 206 -47.5t65 -156.5q-3 -40 -18 -77t-42 -70t-73.5 -52.5t-106.5 -19.5q-47 0 -92 11.5t-66 22.5z" />
<glyph horiz-adv-x="498" d="M475 224q-12 -106 -64 -171.5t-155 -65.5q-198 0 -165 308q25 217 86 307t184 90q70 0 122 -31l-33 -70q-39 24 -96 24q-72 0 -115 -54.5t-65 -183.5q71 48 150 48q82 0 121 -59.5t30 -141.5zM263 62q53 0 92 39t46 110q6 59 -17 99t-86 40q-72 0 -136 -62 q-12 -123 15 -174.5t86 -51.5z" />
<glyph horiz-adv-x="448" d="M101 486l8 76h368l-8 -76l-274 -622h-77l272 622h-289z" />
<glyph horiz-adv-x="524" d="M268 -13q-102 0 -151.5 51.5t-40.5 133.5q6 65 42.5 111t90.5 71q-90 57 -79 159q9 88 71.5 135.5t142.5 47.5q75 0 126 -48.5t43 -127.5q-5 -49 -35.5 -97.5t-82.5 -77.5q106 -63 95 -171q-9 -83 -70 -135t-152 -52zM203 514q-3 -28 4 -48.5t25.5 -35.5t34.5 -23.5 t46 -21.5q118 37 127 129q5 50 -22.5 80t-80.5 30q-46 0 -87 -26t-47 -84zM276 60q49 0 90.5 29.5t47.5 84.5q5 51 -25.5 82t-90.5 56q-136 -34 -147 -133q-7 -61 29.5 -90t95.5 -29z" />
<glyph horiz-adv-x="499" d="M270 206q70 0 131 41q13 131 -11.5 189.5t-89.5 58.5q-118 0 -135 -152q-8 -71 21 -104t84 -33zM184 -136q-63 0 -113 25l20 71q53 -21 103 -21q77 0 125 51.5t70 171.5q-68 -31 -146 -31q-81 0 -121 62t-30 147q26 231 217 231q201 0 165 -329q-22 -200 -88.5 -289 t-201.5 -89z" />
</font>
</defs>
</svg>
