<?xml version="1.0" standalone="no"?>
<!DOCTYPE svg PUBLIC "-//W3C//DTD SVG 1.1//EN" "http://www.w3.org/Graphics/SVG/1.1/DTD/svg11.dtd" >
<svg xmlns="http://www.w3.org/2000/svg">
<metadata></metadata>
<defs>
<font id="zinnebeeldbold" horiz-adv-x="598" >
<font-face units-per-em="1000" ascent="800" descent="-200" />
<missing-glyph horiz-adv-x="267" />
<glyph unicode="&#xa3;Z" horiz-adv-x="500" d="M0 500h500v-500h-500v500z" />
<glyph unicode="ff" horiz-adv-x="719" d="M453 0v413h-208v-413h-132v413h-77v88h77v99q0 184 179 184q65 0 123 -29l-49 -90q-22 8 -54 8q-38 0 -52.5 -17.5t-14.5 -69.5v-85h208v99q0 184 179 184q65 0 123 -29l-49 -90q-22 8 -54 8q-38 0 -52.5 -17.5t-14.5 -69.5v-85h118v-88h-118v-413h-132z" />
<glyph unicode="fi" horiz-adv-x="688" d="M533 740q79 0 79 -79q0 -42 -19 -60.5t-60 -18.5t-60 18.5t-19 60.5q0 79 79 79zM466 501h132v-501h-132v501zM363 413h-118v-413h-132v413h-77v88h77v99q0 184 179 184q65 0 123 -29l-49 -90q-22 8 -54 8q-38 0 -52.5 -17.5t-14.5 -69.5v-85h118v-88z" />
<glyph unicode="fl" horiz-adv-x="644" d="M442 768h132v-770h-132v770zM363 413h-118v-413h-132v413h-77v88h77v99q0 184 179 184q65 0 123 -29l-49 -90q-22 8 -54 8q-38 0 -52.5 -17.5t-14.5 -69.5v-85h118v-88z" />
<glyph unicode="ffi" horiz-adv-x="1012" d="M857 740q79 0 79 -79q0 -42 -19 -60.5t-60 -18.5t-60 18.5t-19 60.5q0 79 79 79zM791 501h132v-501h-132v501zM456 0v413h-211v-413h-132v413h-77v88h77v99q0 184 179 184q65 0 123 -29l-49 -90q-22 8 -54 8q-38 0 -52.5 -17.5t-14.5 -69.5v-85h211v99q0 184 179 184 q21 0 37.5 -2t29.5 -6t19.5 -6.5t17 -8t11.5 -6.5l-41 -90q-22 8 -54 8q-38 0 -52.5 -17.5t-14.5 -69.5v-85h118v-88h-118v-413h-132z" />
<glyph unicode="ffl" horiz-adv-x="999" d="M791 770h132v-770h-132v770zM454 0v413h-209v-413h-132v413h-77v88h77v99q0 184 179 184q65 0 123 -29l-49 -90q-22 8 -54 8q-38 0 -52.5 -17.5t-14.5 -69.5v-85h209v99q0 184 179 184q65 0 123 -29l-49 -90q-22 8 -54 8q-38 0 -52.5 -17.5t-14.5 -69.5v-85h118v-88h-118 v-413h-132z" />
<glyph unicode=" "  horiz-adv-x="267" />
<glyph unicode="&#x09;" horiz-adv-x="267" />
<glyph unicode="&#xa0;" horiz-adv-x="267" />
<glyph unicode="!" horiz-adv-x="306" d="M86 701h132l-10 -460h-112zM152 -7q-41 0 -60.5 19.5t-19.5 61.5q0 81 80 81q82 0 82 -81t-82 -81z" />
<glyph unicode="&#x22;" horiz-adv-x="428" d="M174 743l-22 -273h-90l-20 273h132zM386 743l-22 -273h-90l-20 273h132z" />
<glyph unicode="#" horiz-adv-x="577" d="M360 405h-108l-20 -118h108zM84 0l34 199h-76v88h92l20 118h-76v88h91l33 189h98l-33 -189h108l33 189h98l-33 -189h68v-88h-83l-20 -118h67v-88h-83l-34 -199h-98l34 199h-108l-34 -199h-98z" />
<glyph unicode="$" d="M246 421v-133q-43 12 -74 25.5t-61.5 35t-46.5 54.5t-16 75q0 85 55.5 137.5t149.5 63.5v113h98v-114q55 -7 100.5 -27t64.5 -37l18 -16l-79 -102l-6 6t-18.5 14t-31 17.5t-44 13.5t-58.5 6q-55 0 -84.5 -17t-29.5 -45q0 -44 63 -70zM253 -93v96q-45 3 -83.5 13.5 t-61.5 23t-40 24t-24 19.5l-6 8l83 98q7 -7 21 -17t59.5 -26.5t95.5 -16.5q59 0 94 16.5t35 49.5q0 37 -69 59v127q46 -15 75.5 -27.5t62 -33t49 -49.5t16.5 -66q0 -81 -55 -135t-154 -66v-97h-98z" />
<glyph unicode="%" horiz-adv-x="856" d="M581 698l112 -54l-417 -662l-109 59zM198 690q73 0 118.5 -53.5t45.5 -130.5t-45.5 -130.5t-118.5 -53.5t-118.5 53.5t-45.5 130.5t45.5 130.5t118.5 53.5zM198 422q34 0 49 24.5t15 59.5q0 84 -64 84q-34 0 -49 -24.5t-15 -59.5t15 -59.5t49 -24.5zM658 360 q73 0 118.5 -53.5t45.5 -130.5t-45.5 -130.5t-118.5 -53.5t-118.5 53.5t-45.5 130.5t45.5 130.5t118.5 53.5zM658 92q34 0 49 24.5t15 59.5q0 84 -64 84q-34 0 -49 -24.5t-15 -59.5t15 -59.5t49 -24.5z" />
<glyph unicode="&#x26;" horiz-adv-x="688" d="M274 0q-111 0 -167.5 61.5t-56.5 148.5q0 51 28.5 94.5t79.5 67.5q-48 40 -48 130q0 83 55.5 131.5t175.5 48.5h36v-119q-130 0 -130 -82q0 -38 35 -62.5t86 -24.5h282v-112h-102v-282h-274zM295 116h113v166h-113q-109 0 -109 -83t109 -83z" />
<glyph unicode="'" horiz-adv-x="274" d="M203 743l-22 -273h-90l-20 273h132z" />
<glyph unicode="(" horiz-adv-x="356" d="M296 790l74 -63q-86 -96 -133.5 -218.5t-47.5 -247.5q0 -122 49 -247t132 -228l-74 -64q-245 268 -245 541t245 527z" />
<glyph unicode=")" horiz-adv-x="356" d="M-14 727l74 63q245 -254 245 -527t-245 -541l-74 64q83 103 132 228t49 247q0 125 -47.5 247.5t-133.5 218.5z" />
<glyph unicode="*" horiz-adv-x="388" d="M235 422l-53 91l-69 -76l-67 61l69 76l-92 43l37 83l94 -43l11 102l92 -10l-12 -102l102 20l18 -90l-102 -21l50 -89z" />
<glyph unicode="+" d="M242 54v160h-160v114h160v160h114v-160h160v-114h-160v-160h-114z" />
<glyph unicode="," horiz-adv-x="278" d="M52 68q0 86 84 86q47 0 68.5 -21.5t21.5 -72.5q0 -162 -142 -226l-26 60q31 24 52.5 52t18.5 49q-43 0 -60 18.5t-17 54.5z" />
<glyph unicode="-" horiz-adv-x="518" d="M436 214h-354v114h354v-114z" />
<glyph unicode="." horiz-adv-x="266" d="M132 155q82 0 82 -81t-82 -81q-41 0 -60.5 19.5t-19.5 61.5q0 81 80 81z" />
<glyph unicode="/" horiz-adv-x="538" d="M423 770h139l-447 -902h-139z" />
<glyph unicode="0" horiz-adv-x="636" d="M318 -12q-266 0 -266 342q0 178 67 270t199 92t199 -92t67 -270q0 -342 -266 -342zM318 105q71 0 101 52t30 173q0 130 -30.5 187t-100.5 57t-100.5 -57t-30.5 -187q0 -121 30 -173t101 -52z" />
<glyph unicode="1" horiz-adv-x="408" d="M187 0v532h-11l-89 -52l-60 102l160 100h132v-682h-132z" />
<glyph unicode="2" horiz-adv-x="563" d="M255 563q-82 0 -155 -47l-54 113q1 1 11 6.5t16 9t19.5 10t25 11t28.5 10t33.5 8.5t37.5 5.5t42 2.5q113 0 178 -58t66 -154q0 -55 -22 -107t-62 -98t-79 -80.5t-91 -73.5h259v-121h-460v118q66 43 133.5 98.5t127.5 130.5t60 130q0 40 -31 63t-83 23z" />
<glyph unicode="3" horiz-adv-x="536" d="M148 398q57 3 97 13q36 9 62.5 31.5t26.5 56.5q0 28 -27 48t-81 20q-34 0 -63.5 -6.5t-42.5 -12.5l-13 -6l-45 108q8 5 22.5 12t60.5 18.5t94 11.5q55 0 97.5 -12.5t67 -31t40 -43t21 -45.5t5.5 -42q0 -59 -30.5 -104t-81.5 -60v-2q57 -15 94.5 -57.5t37.5 -104.5 q0 -87 -64 -144t-187 -57q-54 0 -104.5 14t-73.5 28l-23 14l40 103q67 -35 140 -35q135 0 135 84q0 75 -108 90q-58 8 -97 9v102z" />
<glyph unicode="4" horiz-adv-x="590" d="M335 0v151h-290v121l291 410h131v-410h95v-121h-95v-151h-132zM335 272v234l-163 -234h163z" />
<glyph unicode="5" horiz-adv-x="587" d="M42 35l48 114q24 -10 78.5 -21t110.5 -11q55 0 89 26.5t34 68.5q0 31 -17.5 50t-72.5 31.5t-152 12.5h-74l20 376h386v-118h-275l-10 -138q179 0 253.5 -51t74.5 -157q0 -110 -74 -169.5t-203 -59.5q-59 0 -113 11.5t-79 23.5z" />
<glyph unicode="6" horiz-adv-x="582" d="M532 217q0 -100 -57.5 -165t-175.5 -65q-68 0 -117 23t-76 66t-39 96.5t-12 122.5q0 209 71 303t223 94q41 0 85 -14.5t64 -29.5l-55 -99q-38 25 -98 25q-70 0 -107.5 -39t-49.5 -131q62 31 133 31q106 0 158.5 -61t52.5 -157zM300 104q46 0 71.5 26.5t25.5 73.5 q0 51 -24.5 82.5t-73.5 31.5q-63 0 -117 -34q5 -180 118 -180z" />
<glyph unicode="7" horiz-adv-x="531" d="M40 560v123h459v-123l-280 -560h-147l279 560h-311z" />
<glyph unicode="8" d="M297 -13q-64 0 -115 17t-86.5 59.5t-35.5 106.5q0 71 28 111.5t81 68.5q-88 61 -88 165q0 81 65 130.5t157 49.5q91 0 152 -47.5t61 -123.5q0 -112 -90 -175q52 -24 80.5 -64.5t28.5 -111.5q0 -90 -67 -138t-171 -48zM206 496q1 -41 23 -63.5t66 -38.5q95 32 95 102 q0 82 -93 82q-41 0 -66.5 -19.5t-24.5 -62.5zM297 101q109 0 109 83q0 38 -27 62.5t-83 44.5q-52 -18 -79 -41.5t-27 -65.5q0 -39 27.5 -61t79.5 -22z" />
<glyph unicode="9" horiz-adv-x="580" d="M273 361q62 0 119 35q-2 96 -31.5 137t-88.5 41q-42 0 -65.5 -24.5t-23.5 -73.5q0 -54 23.5 -84.5t66.5 -30.5zM211 -13q-59 0 -118 16l14 117q49 -11 105 -11q73 0 115 37.5t57 123.5q-54 -24 -133 -24q-99 0 -150 62.5t-51 154.5q0 45 12.5 85t38 73t70 52.5 t102.5 19.5q137 0 194.5 -80.5t57.5 -227.5q0 -208 -75 -303t-239 -95z" />
<glyph unicode=":" horiz-adv-x="266" d="M132 461q82 0 82 -81t-82 -81q-41 0 -60.5 19.5t-19.5 61.5q0 81 80 81zM132 -15q-41 0 -60.5 19.5t-19.5 61.5q0 81 80 81q82 0 82 -81t-82 -81z" />
<glyph unicode=";" horiz-adv-x="273" d="M132 461q82 0 82 -81t-82 -81q-41 0 -60.5 19.5t-19.5 61.5q0 81 80 81zM83 -165l-25 59q30 23 51 51t18 48q-75 0 -75 72q0 85 82 85q45 0 66 -21.5t21 -71.5q0 -160 -138 -222z" />
<glyph unicode="&#x3c;" d="M516 40l-434 174v114l434 174v-114l-292 -117l292 -117v-114z" />
<glyph unicode="=" d="M516 328h-434v114h434v-114zM82 100v114h434v-114h-434z" />
<glyph unicode="&#x3e;" d="M82 40v114l292 117l-292 117v114l434 -174v-114z" />
<glyph unicode="?" horiz-adv-x="470" d="M432 533q0 -38 -17.5 -70t-42 -55t-49.5 -45.5t-42.5 -53t-17.5 -65.5h-117q-5 113 89 198q10 9 27 22t25.5 20t15.5 18t7 23q0 73 -100 73q-29 0 -58 -14.5t-43 -27.5t-22 -23l-64 84q27 26 46 41.5t64.5 33t98.5 17.5q200 0 200 -176zM204 -8q-41 0 -60.5 19.5 t-19.5 61.5q0 81 80 81q82 0 82 -81t-82 -81z" />
<glyph unicode="@" horiz-adv-x="949" d="M515 -213q-230 0 -350 120t-120 338q0 200 118 325t313 125q207 0 317.5 -110.5t110.5 -295.5q0 -132 -63 -201.5t-183 -69.5q-72 0 -108 46q-39 -41 -98 -41q-85 0 -131.5 60t-46.5 163t60 166.5t161 63.5q32 0 66.5 -6t52.5 -12l18 -7v-233q0 -48 8 -68t37 -20 q55 0 86 39t31 120q0 141 -79.5 220.5t-237.5 79.5q-137 0 -226.5 -89t-89.5 -255q0 -176 97.5 -262t257.5 -86q139 0 258 67l34 -102q-141 -75 -293 -75zM460 132q36 0 63 22v202q-18 9 -43 9q-44 0 -69 -33t-25 -86q0 -49 18 -81.5t56 -32.5z" />
<glyph unicode="A" horiz-adv-x="722" d="M338 462l-71 -209h188l-71 209l-23 71q-12 -44 -23 -71zM556 0l-57 139h-276l-57 -139h-140l272 682h126l272 -682h-140z" />
<glyph unicode="B" horiz-adv-x="641" d="M386 0h-302v682h232q256 0 256 -198q0 -91 -79 -133q45 -18 76.5 -63.5t31.5 -98.5q0 -76 -54.5 -132.5t-160.5 -56.5zM218 395h105q118 2 118 88q0 85 -103 85h-120v-173zM218 111h148q104 0 104 86q0 45 -29 67.5t-81 22.5h-142v-176z" />
<glyph unicode="C" horiz-adv-x="683" d="M204 332q0 -99 55.5 -156t150.5 -57q97 0 176 54l57 -108q-103 -75 -243 -75q-151 0 -241 91t-90 251q0 153 80.5 256t222.5 104q155 1 260 -79l-56 -108q-10 6 -27 16t-65 26t-91 16q-85 0 -137 -63t-52 -168z" />
<glyph unicode="D" horiz-adv-x="695" d="M84 0v682h267q148 0 226 -90t78 -244q0 -159 -78.5 -253.5t-226.5 -94.5h-266zM338 114q98 0 136 58.5t38 175.5q0 114 -38 167t-140 53h-116v-454h120z" />
<glyph unicode="E" horiz-adv-x="596" d="M84 0v682h462v-114h-328v-165h278v-114h-278v-175h328v-114h-462z" />
<glyph unicode="F" horiz-adv-x="568" d="M219 272v-272h-135v682h449v-114h-314v-182h269v-114h-269z" />
<glyph unicode="G" horiz-adv-x="679" d="M625 65q-103 -75 -243 -75q-151 0 -241 91t-90 251q0 153 80.5 256t222.5 104q155 1 260 -79l-56 -108q-10 6 -27 16t-65 26t-91 16q-85 0 -137 -63t-52 -168q0 -99 55.5 -156t150.5 -57q68 0 119 23v98h-157v115h271v-290z" />
<glyph unicode="H" horiz-adv-x="732" d="M218 291v-291h-134v682h134v-277h296v277h134v-682h-134v291h-296z" />
<glyph unicode="I" horiz-adv-x="302" d="M218 0h-134v682h134v-682z" />
<glyph unicode="J" horiz-adv-x="331" d="M112 58v624h135v-643q0 -91 -59 -151t-152 -88l-44 110q47 17 83.5 54.5t36.5 93.5z" />
<glyph unicode="K" horiz-adv-x="663" d="M218 127v-127h-134v682h134v-367l265 367h157l-250 -337l248 -345h-166l-168 235z" />
<glyph unicode="L" horiz-adv-x="527" d="M84 0v682h134v-568h289v-114h-423z" />
<glyph unicode="M" horiz-adv-x="886" d="M218 428v-428h-134v682h134l225 -454l225 454h134v-682h-134v428l-162 -327h-126z" />
<glyph unicode="N" horiz-adv-x="745" d="M218 472v-472h-134v682h143l300 -471v471h134v-682h-142z" />
<glyph unicode="O" horiz-adv-x="779" d="M51 340q0 167 96 261t242 94t242.5 -94t96.5 -261q0 -179 -94.5 -266t-244.5 -87t-244 87t-94 266zM389 102q87 0 141 59.5t54 178.5q0 111 -55.5 175.5t-139.5 64.5q-83 0 -138.5 -64.5t-55.5 -175.5q0 -119 54 -178.5t140 -59.5z" />
<glyph unicode="P" horiz-adv-x="609" d="M219 571v-211h120q112 0 112 103q0 108 -134 108h-98zM317 246h-98v-246h-135v682h255q120 0 182 -65t62 -154q0 -99 -64 -158t-202 -59z" />
<glyph unicode="Q" horiz-adv-x="791" d="M389 102q88 0 141.5 60.5t53.5 177.5q0 111 -55.5 175t-139.5 64q-83 0 -138.5 -64t-55.5 -175q0 -119 54.5 -178.5t139.5 -59.5zM741 -11q-97 9 -146 8.5t-118 -5.5t-93 -5q-149 2 -241 88.5t-92 264.5q0 167 96 260.5t242 93.5q147 0 243 -93t96 -260q0 -166 -91 -237 q45 9 104 0v-115z" />
<glyph unicode="R" horiz-adv-x="675" d="M218 571v-227h122q55 0 83.5 36.5t28.5 90.5q0 41 -20.5 64t-48 29.5t-67.5 6.5h-98zM318 230h-100v-230h-134v682h254q121 0 183 -61.5t62 -149.5q0 -67 -29 -123t-89 -87l190 -261h-159l-166 230h-12z" />
<glyph unicode="S" horiz-adv-x="593" d="M534 608l-80 -101q-6 6 -17 15.5t-51.5 25t-88.5 15.5q-53 0 -80.5 -21t-27.5 -51q0 -28 27 -49.5t68 -34t88 -30.5t88 -37.5t68 -57t27 -87.5q0 -93 -68 -150t-190 -57q-54 0 -101 9.5t-74.5 22.5t-47.5 26t-28 22l-8 10l83 98q7 -7 21 -16.5t59.5 -26t95.5 -16.5 q56 0 90 17.5t34 46.5q0 31 -38 54.5t-92 42t-107.5 41t-91.5 63t-38 95.5q0 98 66.5 156.5t176.5 58.5q45 0 86 -8.5t67 -21t46 -25t29 -21.5z" />
<glyph unicode="T" horiz-adv-x="564" d="M349 568v-568h-134v568h-210v114h554v-114h-210z" />
<glyph unicode="U" horiz-adv-x="696" d="M72 264v418h134v-418q0 -151 142 -151t142 151v418h134v-419q0 -129 -71.5 -202t-204.5 -73q-131 0 -203.5 73.5t-72.5 202.5z" />
<glyph unicode="V" horiz-adv-x="702" d="M263 0l-242 682h150l156 -469q7 -19 16 -55.5t9 -40.5q0 4 9 40.5t16 55.5l154 469h150l-240 -682h-178z" />
<glyph unicode="W" horiz-adv-x="998" d="M357 0h-126l-210 682h132l116 -388q25 -81 25 -107q0 32 25 107l111 388h135l113 -388q25 -85 25 -107q0 26 25 107l117 388h132l-209 -682h-128l-131 447q-11 35 -11 60q0 -25 -11 -60z" />
<glyph unicode="X" horiz-adv-x="701" d="M202 0h-161l231 343l-237 339h161l155 -224l154 224h161l-237 -340l231 -342h-161l-148 226z" />
<glyph unicode="Y" horiz-adv-x="616" d="M375 300v-300h-134v300l-229 382h144l116 -202l36 -77q21 49 36 77l116 202h144z" />
<glyph unicode="Z" horiz-adv-x="580" d="M528 0h-476v113l311 452h-300v117h465v-119l-311 -446h311v-117z" />
<glyph unicode="[" horiz-adv-x="299" d="M76 -219v992h243v-96h-111v-800h111v-96h-243z" />
<glyph unicode="\" horiz-adv-x="538" d="M-24 770h139l447 -902h-139z" />
<glyph unicode="]" horiz-adv-x="299" d="M223 773v-992h-243v96h111v800h-111v96h243z" />
<glyph unicode="^" horiz-adv-x="384" d="M292 553l-103 81l-101 -81l-63 74l120 108h85l129 -108z" />
<glyph unicode="_" horiz-adv-x="588" d="M565 -20v-124h-542v124h542z" />
<glyph unicode="`" horiz-adv-x="325" d="M176 744l100 -163l-88 -26l-133 146z" />
<glyph unicode="a" horiz-adv-x="540" d="M238 96q41 0 68.5 15t35.5 30l7 15v66q-106 0 -147 -14t-41 -57q0 -55 77 -55zM360 54q-64 -64 -158 -64q-75 0 -119.5 38.5t-44.5 105.5q0 101 72.5 138.5t238.5 37.5v23q0 36 -20 51.5t-64 15.5q-87 0 -155 -44l-44 92q69 63 211 63q93 0 143.5 -38.5t50.5 -137.5v-335 h-83z" />
<glyph unicode="b" horiz-adv-x="621" d="M194 52l-28 -52h-90v770h132v-320h2q5 7 15 17t45 27t75 17q108 0 171 -67.5t63 -183.5q0 -118 -65 -194t-175 -76q-44 0 -79 14.5t-47 26.5t-18 21h-1zM329 95q63 0 94 46t31 109q0 59 -30 106.5t-92 47.5q-56 0 -90 -32.5t-34 -86.5v-70q0 -49 33.5 -84.5t87.5 -35.5z " />
<glyph unicode="c" horiz-adv-x="493" d="M463 450l-56 -82q-15 13 -48 22.5t-64 9.5q-58 0 -95 -35.5t-37 -109.5q0 -43 14.5 -74.5t39 -47t50 -22.5t54.5 -7q61 0 108 30l48 -90q-75 -55 -171 -55q-124 0 -194 72t-70 193q0 110 64 182.5t185 72.5q58 0 104 -18.5t68 -40.5z" />
<glyph unicode="d" horiz-adv-x="621" d="M413 215v70q0 54 -34 86.5t-90 32.5q-62 0 -92 -47.5t-30 -106.5q0 -63 31 -109t94 -46q54 0 87.5 35.5t33.5 84.5zM426 52q-6 -9 -18 -21t-47 -26.5t-79 -14.5q-122 0 -181 71t-59 199q0 116 63 183.5t171 67.5q40 0 74 -15.5t48 -30.5l13 -15h2v320h132v-770h-90 l-28 52h-1z" />
<glyph unicode="e" horiz-adv-x="545" d="M280 416q-46 0 -80 -28t-42 -87h227q-9 115 -105 115zM495 49q-82 -60 -201 -60q-120 0 -189.5 73.5t-69.5 191.5q0 110 64.5 184t183.5 74q59 0 103.5 -19t68 -50t38.5 -70.5t15.5 -79.5t-1.5 -78h-346q25 -111 146 -111q80 0 146 41z" />
<glyph unicode="f" horiz-adv-x="379" d="M363 413h-118v-413h-132v413h-77v88h77v99q0 184 179 184q65 0 123 -29l-49 -90q-22 8 -54 8q-38 0 -52.5 -17.5t-14.5 -69.5v-85h118v-88z" />
<glyph unicode="g" horiz-adv-x="621" d="M413 201v80q0 121 -125 121q-62 0 -91.5 -47.5t-29.5 -108.5q0 -60 31 -103t94 -43q56 0 88.5 27t32.5 74zM545 501v-480q0 -230 -255 -230q-59 0 -101.5 9t-55.5 18l-13 9l47 98q42 -19 123 -19q71 0 97 27.5t26 88.5v10h-2q-62 -42 -129 -42q-115 0 -177.5 76.5 t-62.5 188.5q0 119 63.5 187.5t171.5 68.5q39 0 72.5 -16.5t47.5 -32.5l14 -17h2l32 56h100z" />
<glyph unicode="h" horiz-adv-x="616" d="M76 0v770h132v-324h2q47 65 150 65q92 0 139.5 -46t47.5 -119v-346h-132v299q0 53 -22.5 78.5t-73.5 25.5q-62 0 -86.5 -33.5t-24.5 -112.5v-257h-132z" />
<glyph unicode="i" horiz-adv-x="304" d="M152 740q79 0 79 -79q0 -42 -19 -60.5t-60 -18.5t-60 18.5t-19 60.5q0 79 79 79zM86 501h132v-501h-132v501z" />
<glyph unicode="j" horiz-adv-x="305" d="M150 740q79 0 79 -79q0 -42 -19 -60.5t-60 -18.5t-60 18.5t-19 60.5q0 79 79 79zM39 -209l-49 123q58 18 76 41t18 74v472h132v-489q0 -91 -43.5 -145t-133.5 -76z" />
<glyph unicode="k" horiz-adv-x="572" d="M208 123v-123h-132v770h132v-491l174 222h145l-176 -224l209 -277h-153l-139 185z" />
<glyph unicode="l" horiz-adv-x="296" d="M82 770h132v-770h-132v770z" />
<glyph unicode="m" horiz-adv-x="955" d="M76 0v501h100l32 -55h2q47 65 149 65q116 0 162 -73h2q58 73 175 73q93 0 140.5 -46t47.5 -119v-346h-132v299q0 53 -23 78.5t-73 25.5q-61 0 -86 -32t-25 -107v-264h-132v299q0 53 -23 78.5t-73 25.5q-63 0 -87 -33.5t-24 -112.5v-257h-132z" />
<glyph unicode="n" horiz-adv-x="616" d="M76 0v501h100l32 -55h2q48 67 150 67q92 0 139.5 -47t47.5 -120v-346h-132v299q0 53 -23 78.5t-77 25.5q-59 0 -83 -34t-24 -112v-257h-132z" />
<glyph unicode="o" horiz-adv-x="583" d="M541 247q0 -130 -68.5 -193.5t-179.5 -63.5t-181 63.5t-70 193.5q0 124 71.5 194t178.5 70q108 0 178.5 -70t70.5 -194zM293 97q53 0 87 37.5t34 112.5q0 72 -35.5 114.5t-86.5 42.5q-52 0 -87.5 -42.5t-35.5 -114.5q0 -74 35.5 -112t88.5 -38z" />
<glyph unicode="p" horiz-adv-x="621" d="M208 282v-80q0 -47 32.5 -74t88.5 -27q64 0 94.5 42t30.5 104q0 58 -30 102t-92 44q-57 0 -90.5 -28.5t-33.5 -82.5zM208 446h2q19 28 56.5 46.5t77.5 18.5q107 0 171 -69.5t64 -185.5q0 -112 -63 -189t-177 -77q-65 0 -129 43h-2v-233h-132v701h99z" />
<glyph unicode="q" horiz-adv-x="621" d="M411 445h2l32 56h100v-701h-132v232h-2q-62 -42 -129 -42q-116 0 -179.5 77t-60.5 188q2 117 65 186.5t170 69.5q27 0 50.5 -7t38 -16.5t25.5 -19t15 -16.5zM292 100q56 0 88.5 27t32.5 74v80q0 54 -33.5 82.5t-91.5 28.5q-62 0 -91 -44t-30 -102q-2 -61 29.5 -103.5 t95.5 -42.5z" />
<glyph unicode="r" horiz-adv-x="401" d="M76 501h99l33 -55h3q27 38 57.5 51.5t74.5 13.5q15 0 27 -2.5t16 -4.5l5 -3l-26 -131q-18 10 -46 10q-111 0 -111 -146v-234h-132v501z" />
<glyph unicode="s" horiz-adv-x="481" d="M370 362q-5 4 -14 10.5t-42 17.5t-70 11q-29 0 -45.5 -12t-16.5 -33q0 -31 79 -50q5 -1 7 -2q175 -42 175 -157q0 -71 -49.5 -114t-149.5 -43q-42 0 -79 7t-59 17t-38.5 20t-23.5 17l-6 7l66 95q6 -6 17.5 -15t48 -24t74.5 -15q74 0 74 44q0 20 -18 32t-54 22 q-5 1 -30.5 8t-34 10t-31 11.5t-32 15t-25 19.5t-22.5 26t-12.5 32.5t-5.5 41.5q0 65 49 107.5t144 42.5q60 0 106 -15.5t62 -31.5l17 -15z" />
<glyph unicode="t" horiz-adv-x="404" d="M358 6q-64 -12 -105 -12q-78 0 -111.5 30.5t-33.5 91.5v297h-76v88h76v131h132v-131h118v-88h-118v-251q0 -33 12 -47.5t47 -14.5h59v-94z" />
<glyph unicode="u" horiz-adv-x="614" d="M538 501v-501h-99l-33 55h-1q-60 -65 -150 -65q-88 0 -137 44t-49 121v346h132v-299q0 -54 21 -79t74 -25q62 0 86 33.5t24 112.5v257h132z" />
<glyph unicode="v" horiz-adv-x="540" d="M339 0h-138l-189 501h135l124 -363l123 363h134z" />
<glyph unicode="w" horiz-adv-x="904" d="M332 0h-135l-185 501h135l120 -363l119 363h131l120 -364l120 364h135l-185 -501h-136l-119 349z" />
<glyph unicode="x" horiz-adv-x="517" d="M258 157l-105 -157h-145l173 258l-162 243h145l95 -142l94 142h145l-162 -241l173 -260h-145z" />
<glyph unicode="y" horiz-adv-x="524" d="M313 -42q-62 -174 -231 -111q-1 1 -2.5 1t-2.5 1l39 104q50 -15 67.5 10.5t-2.5 79.5l-169 458h131l120 -362l119 362h131z" />
<glyph unicode="z" horiz-adv-x="491" d="M441 0h-389v86l218 306h-206v109h377v-87l-222 -305h222v-109z" />
<glyph unicode="{" horiz-adv-x="356" d="M307 -290q-91 22 -134.5 76t-43.5 145v191q0 50 -17.5 74t-74.5 42v90q57 18 74.5 41t17.5 74v190q0 93 43.5 147t134.5 75l42 -122q-52 -21 -69 -44t-17 -72v-191q0 -90 -42 -142q42 -52 42 -146v-190q0 -50 18.5 -73.5t75.5 -41.5z" />
<glyph unicode="|" horiz-adv-x="252" d="M75 -182v866h102v-866h-102z" />
<glyph unicode="}" horiz-adv-x="356" d="M49 -290l-50 123q57 18 75.5 41.5t18.5 73.5v190q0 94 42 146q-42 52 -42 142v191q0 49 -17 72t-69 44l42 122q91 -21 134.5 -75t43.5 -147v-190q0 -51 17.5 -74t74.5 -41v-90q-57 -18 -74.5 -42t-17.5 -74v-191q0 -91 -43.5 -145t-134.5 -76z" />
<glyph unicode="~" horiz-adv-x="488" d="M23 262q7 13 63 52.5t86 39.5t75 -29.5t67 -29.5q26 0 62.5 15.5t48.5 24.5l40 -68l-9 -7q-9 -6 -17.5 -12.5t-21.5 -15.5t-26 -16.5t-27 -14.5t-27 -11t-23 -4q-29 0 -73.5 29.5t-68.5 29.5q-42 0 -107 -50z" />
<glyph unicode="&#xa1;" horiz-adv-x="306" d="M234 432q0 -81 -82 -81q-80 0 -80 81q0 42 19.5 61.5t60.5 19.5q82 0 82 -81zM218 -195h-132l10 460h112z" />
<glyph unicode="&#xa2;" d="M516 44q-67 -49 -150 -54v-104h-108v114q-85 23 -131 90t-46 164q0 91 45 158.5t132 88.5v115h108v-109q92 -11 136 -57l-56 -82q-15 13 -48 22.5t-64 9.5q-58 0 -95 -35.5t-37 -109.5q0 -43 14.5 -74.5t39 -47t50 -22.5t54.5 -7q61 0 108 30z" />
<glyph unicode="&#xa3;" d="M505 0h-444v106h76v218h-76v84h76v110q0 87 67 132t172 45q53 0 94.5 -11t57.5 -22l15 -11l-47 -75q-51 12 -120 12q-56 0 -84 -17.5t-28 -66.5v-96h142l-46 -84h-96v-218h241v-106z" />
<glyph unicode="&#xa4;" d="M449 62l-42 42q-40 -23 -107 -23q-69 0 -109 25l-42 -42l-34 34l42 42q-25 40 -25 109t24 106l-43 43l35 34l42 -42q40 27 110 27q69 0 108 -24l42 41l35 -34l-42 -42q24 -38 24 -109t-25 -111l42 -42zM299 358q-56 0 -83 -26.5t-27 -82.5q0 -57 27 -84t83 -27 q58 0 84 27t26 83q0 58 -25.5 84t-84.5 26z" />
<glyph unicode="&#xa5;" d="M532 122h-166v-122h-134v122h-166v80h166v61h-166v89h135l-198 330h144l116 -202l36 -77q21 49 36 77l116 202h144l-198 -330h135v-89h-166v-61h166v-80z" />
<glyph unicode="&#xa6;" horiz-adv-x="252" d="M75 332v352h102v-352h-102zM75 -182v380h102v-380h-102z" />
<glyph unicode="&#xa7;" horiz-adv-x="494" d="M251 327q-34 0 -58.5 -16.5t-24.5 -38.5t24.5 -38.5t58.5 -16.5t59 16.5t25 38.5q0 23 -25 39t-59 16zM248 -90q-42 0 -79 7t-59 17t-38.5 20t-23.5 17l-6 7l68 99q6 -5 17 -13t47 -21t74 -13q79 0 79 38q0 19 -20 30.5t-59 22.5q-1 0 -24.5 6.5t-27.5 8t-25.5 8.5 t-27.5 11t-23 12.5t-23 15.5t-17.5 19t-15.5 23.5t-8 27.5t-4 33q0 54 46 96q-46 39 -46 103q0 57 52.5 101t145.5 44q60 0 106 -15.5t62 -30.5l17 -16l-63 -90q-40 32 -124 32q-29 0 -48 -10.5t-19 -27.5q0 -18 21.5 -29t67.5 -24q27 -8 36 -10.5t34 -11.5t35.5 -15.5 t29 -19t26.5 -25.5t14.5 -31.5t6.5 -39.5q0 -66 -42 -107q42 -37 42 -92q0 -74 -51 -115.5t-153 -41.5z" />
<glyph unicode="&#xa8;" horiz-adv-x="438" d="M98 740q79 0 79 -79q0 -42 -19 -60.5t-60 -18.5t-60 18.5t-19 60.5q0 79 79 79zM340 740q79 0 79 -79q0 -42 -19 -60.5t-60 -18.5t-60 18.5t-19 60.5q0 79 79 79z" />
<glyph unicode="&#xa9;" horiz-adv-x="822" d="M764 340q0 -189 -84.5 -271.5t-268.5 -82.5t-268.5 82.5t-84.5 271.5q0 181 86 266.5t267 85.5t267 -85.5t86 -266.5zM541 457l45 75q-20 21 -64.5 38.5t-99.5 17.5q-116 0 -176.5 -69t-60.5 -174q0 -115 66.5 -183.5t184.5 -68.5q94 0 167 49l-42 82q-42 -22 -110 -22 q-27 0 -51.5 6.5t-48 21.5t-37.5 45t-14 71q0 70 35 104t91 34q29 0 63 -8t52 -19z" />
<glyph unicode="&#xaa;" horiz-adv-x="527" d="M239 383q32 0 56.5 13.5t30.5 31.5v43q-70 0 -101.5 -11t-31.5 -42q0 -35 46 -35zM332 344q-48 -44 -126 -44q-48 0 -80.5 31t-32.5 74q0 71 53 101t180 30v19q0 25 -16.5 35t-56.5 10q-55 0 -108 -33l-31 75q51 46 146 46q79 0 120.5 -28.5t41.5 -103.5v-249h-71z M76 273h375v-62h-375v62z" />
<glyph unicode="&#xab;" horiz-adv-x="669" d="M506 29l-149 223l150 223l109 -76l-99 -148l98 -146zM226 29l-149 223l150 223l109 -76l-99 -148l98 -146z" />
<glyph unicode="&#xac;" d="M402 214v114h-320v114h434v-228h-114z" />
<glyph unicode="&#xad;" horiz-adv-x="518" d="M436 214h-354v114h354v-114z" />
<glyph unicode="&#xae;" horiz-adv-x="822" d="M764 340q0 -189 -84.5 -271.5t-268.5 -82.5t-268.5 82.5t-84.5 271.5q0 181 86 266.5t267 85.5t267 -85.5t86 -266.5zM329 352v135h70q43 0 68 -15t25 -56q0 -32 -18 -48t-59 -16h-86zM329 266h64l110 -139h126l-127 155q45 18 67 54t22 78q0 62 -45 107t-132 45h-182 v-439h97v139z" />
<glyph unicode="&#xb0;" horiz-adv-x="432" d="M216 451q-68 0 -116 48.5t-48 115.5t48 115.5t116 48.5t116 -48.5t48 -115.5t-48 -115.5t-116 -48.5zM216 551q26 0 45 19t19 45t-19 45t-45 19t-45 -19t-19 -45t19 -45t45 -19z" />
<glyph unicode="&#xb1;" d="M242 168v160h-160v114h160v160h114v-160h160v-114h-160v-160h-114zM516 0h-434v114h434v-114z" />
<glyph unicode="&#xb2;" horiz-adv-x="405" d="M182 600q-41 0 -79 -32l-31 90q55 34 115 34q68 0 105 -32.5t37 -87.5q0 -34 -12 -64.5t-29 -49.5t-34 -32.5t-29 -19.5l-12 -6h120v-93h-259v93l17 8.5t38 22.5t48 34t38 39.5t17 42.5q0 53 -50 53z" />
<glyph unicode="&#xb3;" horiz-adv-x="417" d="M167 557q46 35 65 42q-18 -7 -82 -7h-64v90h247v-90l-78 -77q90 -24 90 -101q0 -48 -41.5 -83.5t-110.5 -35.5q-33 0 -63 9.5t-44 19.5l-14 10l27 75q28 -22 82 -22q24 0 40.5 11t16.5 32t-26 29.5t-85 14.5v54z" />
<glyph unicode="&#xb4;" horiz-adv-x="325" d="M67 581l100 163l121 -43l-133 -146z" />
<glyph unicode="&#xb6;" horiz-adv-x="638" d="M400 594v-794h-91v373q-75 1 -130 21.5t-85.5 57t-45 82t-14.5 101.5q0 247 275 247h257v-882h-91v794h-75z" />
<glyph unicode="&#xb7;" horiz-adv-x="266" d="M132 332q82 0 82 -81t-82 -81q-41 0 -60.5 19.5t-19.5 61.5q0 81 80 81z" />
<glyph unicode="&#xb8;" horiz-adv-x="229" d="M98 -221q-22 3 -43 9t-31 10l-11 5l25 61q2 -1 5 -2t12.5 -4t18.5 -5t19.5 -3.5t19 -0.5t15 5t8.5 12q2 20 -31.5 36t-64.5 20l12 60l42 -5q61 -8 94.5 -39.5t26.5 -81.5q-6 -41 -39.5 -60.5t-77.5 -16.5z" />
<glyph unicode="&#xb9;" horiz-adv-x="418" d="M348 307h-271v93h91v156h-7l-52 -28l-39 89l98 64h103v-281h77v-93z" />
<glyph unicode="&#xba;" horiz-adv-x="567" d="M461 493q0 -95 -49 -141t-129 -46t-130.5 46t-50.5 141q0 91 51 142.5t129 51.5q77 0 128 -51.5t51 -142.5zM283 406q31 0 49.5 21.5t18.5 65.5t-19.5 69t-49.5 25t-50 -25t-20 -69t19.5 -65.5t51.5 -21.5zM96 211v62h375v-62h-375z" />
<glyph unicode="&#xbb;" horiz-adv-x="671" d="M175 30l-109 76l98 146l-99 148l109 76l150 -223zM457 29l-109 76l98 146l-99 148l109 76l150 -223z" />
<glyph unicode="&#xbf;" horiz-adv-x="470" d="M266 352q-82 0 -82 81t82 81q41 0 60.5 -19.5t19.5 -61.5q0 -81 -80 -81zM38 -27q0 38 17.5 70t42.5 55t49.5 45.5t42 53t17.5 65.5h117q5 -113 -89 -198q-10 -9 -27 -22t-25.5 -20t-15.5 -18t-7 -23q0 -73 100 -73q29 0 58 14.5t43 27.5t22 23l64 -84q-27 -26 -46 -41.5 t-64.5 -33t-98.5 -17.5q-200 0 -200 176z" />
<glyph unicode="&#xc0;" horiz-adv-x="722" d="M353 917l100 -163l-88 -26l-133 146zM338 462l-71 -209h188l-71 209l-23 71q-12 -44 -23 -71zM556 0l-57 139h-276l-57 -139h-140l272 682h126l272 -682h-140z" />
<glyph unicode="&#xc1;" horiz-adv-x="722" d="M290 754l100 163l121 -43l-133 -146zM338 462l-71 -209h188l-71 209l-23 71q-12 -44 -23 -71zM556 0l-57 139h-276l-57 -139h-140l272 682h126l272 -682h-140z" />
<glyph unicode="&#xc2;" horiz-adv-x="722" d="M472 728l-103 81l-101 -81l-63 74l120 108h85l129 -108zM338 462l-71 -209h188l-71 209l-23 71q-12 -44 -23 -71zM556 0l-57 139h-276l-57 -139h-140l272 682h126l272 -682h-140z" />
<glyph unicode="&#xc3;" horiz-adv-x="722" d="M192 806q9 11 25 26.5t43.5 34t46.5 18.5q27 0 68 -25.5t61 -25.5q39 0 84 34l31 -56q-8 -10 -23.5 -25.5t-43.5 -33.5t-48 -18q-26 0 -67 25.5t-62 25.5q-34 0 -79 -34zM338 462l-71 -209h188l-71 209l-23 71q-12 -44 -23 -71zM556 0l-57 139h-276l-57 -139h-140 l272 682h126l272 -682h-140z" />
<glyph unicode="&#xc4;" horiz-adv-x="722" d="M494 904q79 0 79 -79q0 -42 -19 -60.5t-60 -18.5t-60 18.5t-19 60.5q0 79 79 79zM252 904q79 0 79 -79q0 -42 -19 -60.5t-60 -18.5t-60 18.5t-19 60.5q0 79 79 79zM338 462l-71 -209h188l-71 209l-23 71q-12 -44 -23 -71zM556 0l-57 139h-276l-57 -139h-140l272 682h126 l272 -682h-140z" />
<glyph unicode="&#xc5;" horiz-adv-x="722" d="M359 703q-59 0 -91.5 32.5t-32.5 91.5t32.5 91.5t91.5 32.5t91.5 -32.5t32.5 -91.5t-32.5 -91.5t-91.5 -32.5zM359 778q49 0 49 49t-49 49t-49 -49t49 -49zM338 462l-71 -209h188l-71 209l-23 71q-12 -44 -23 -71zM556 0l-57 139h-276l-57 -139h-140l272 682h126 l272 -682h-140z" />
<glyph unicode="&#xc6;" horiz-adv-x="1033" d="M459 442l-123 -193h165v264q-23 -43 -42 -71zM501 0v135h-238l-86 -135h-151l446 682h511v-114h-347v-165h297v-114h-297v-175h347v-114h-482z" />
<glyph unicode="&#xc7;" horiz-adv-x="683" d="M204 332q0 -99 55.5 -156t150.5 -57q97 0 176 54l57 -108q-103 -75 -243 -75q-151 0 -241 91t-90 251q0 153 80.5 256t222.5 104q155 1 260 -79l-56 -108q-10 6 -27 16t-65 26t-91 16q-85 0 -137 -63t-52 -168zM477 -164q-6 -41 -39.5 -60.5t-77.5 -16.5q-22 3 -43 9 t-31 10l-11 5l25 61q2 -1 5 -2t12.5 -4t18.5 -5t19.5 -3.5t19 -0.5t15 5t8.5 12q2 20 -31.5 36t-64.5 20l12 60l42 -5q61 -8 94.5 -39.5t26.5 -81.5z" />
<glyph unicode="&#xc8;" horiz-adv-x="596" d="M296 917l100 -163l-88 -26l-133 146zM84 0v682h462v-114h-328v-165h278v-114h-278v-175h328v-114h-462z" />
<glyph unicode="&#xc9;" horiz-adv-x="596" d="M224 754l100 163l121 -43l-133 -146zM84 0v682h462v-114h-328v-165h278v-114h-278v-175h328v-114h-462z" />
<glyph unicode="&#xca;" horiz-adv-x="596" d="M426 728l-103 81l-101 -81l-63 74l120 108h85l129 -108zM84 0v682h462v-114h-328v-165h278v-114h-278v-175h328v-114h-462z" />
<glyph unicode="&#xcb;" horiz-adv-x="596" d="M433 904q79 0 79 -79q0 -42 -19 -60.5t-60 -18.5t-60 18.5t-19 60.5q0 79 79 79zM191 904q79 0 79 -79q0 -42 -19 -60.5t-60 -18.5t-60 18.5t-19 60.5q0 79 79 79zM84 0v682h462v-114h-328v-165h278v-114h-278v-175h328v-114h-462z" />
<glyph unicode="&#xcc;" horiz-adv-x="302" d="M106 917l100 -163l-88 -26l-133 146zM218 0h-134v682h134v-682z" />
<glyph unicode="&#xcd;" horiz-adv-x="302" d="M101 754l100 163l121 -43l-133 -146zM218 0h-134v682h134v-682z" />
<glyph unicode="&#xce;" horiz-adv-x="302" d="M251 728l-103 81l-101 -81l-63 74l120 108h85l129 -108zM218 0h-134v682h134v-682z" />
<glyph unicode="&#xcf;" horiz-adv-x="302" d="M272 904q79 0 79 -79q0 -42 -19 -60.5t-60 -18.5t-60 18.5t-19 60.5q0 79 79 79zM30 904q79 0 79 -79q0 -42 -19 -60.5t-60 -18.5t-60 18.5t-19 60.5q0 79 79 79zM218 0h-134v682h134v-682z" />
<glyph unicode="&#xd0;" horiz-adv-x="710" d="M338 114q98 0 136 58.5t38 175.5q0 114 -38 167t-140 53h-116v-182h97v-114h-97v-158h120zM84 0v272h-57v114h57v296h267q148 0 226 -90t78 -244q0 -159 -78.5 -253.5t-226.5 -94.5h-266z" />
<glyph unicode="&#xd1;" horiz-adv-x="745" d="M210 806q9 11 25 26.5t43.5 34t46.5 18.5q27 0 68 -25.5t61 -25.5q39 0 84 34l31 -56q-8 -10 -23.5 -25.5t-43.5 -33.5t-48 -18q-26 0 -67 25.5t-62 25.5q-34 0 -79 -34zM218 472v-472h-134v682h143l300 -471v471h134v-682h-142z" />
<glyph unicode="&#xd2;" horiz-adv-x="779" d="M376 917l100 -163l-88 -26l-133 146zM51 340q0 167 96 261t242 94t242.5 -94t96.5 -261q0 -179 -94.5 -266t-244.5 -87t-244 87t-94 266zM389 102q87 0 141 59.5t54 178.5q0 111 -55.5 175.5t-139.5 64.5q-83 0 -138.5 -64.5t-55.5 -175.5q0 -119 54 -178.5t140 -59.5z " />
<glyph unicode="&#xd3;" horiz-adv-x="779" d="M299 754l100 163l121 -43l-133 -146zM51 340q0 167 96 261t242 94t242.5 -94t96.5 -261q0 -179 -94.5 -266t-244.5 -87t-244 87t-94 266zM389 102q87 0 141 59.5t54 178.5q0 111 -55.5 175.5t-139.5 64.5q-83 0 -138.5 -64.5t-55.5 -175.5q0 -119 54 -178.5t140 -59.5z " />
<glyph unicode="&#xd4;" horiz-adv-x="779" d="M502 728l-103 81l-101 -81l-63 74l120 108h85l129 -108zM51 340q0 167 96 261t242 94t242.5 -94t96.5 -261q0 -179 -94.5 -266t-244.5 -87t-244 87t-94 266zM389 102q87 0 141 59.5t54 178.5q0 111 -55.5 175.5t-139.5 64.5q-83 0 -138.5 -64.5t-55.5 -175.5 q0 -119 54 -178.5t140 -59.5z" />
<glyph unicode="&#xd5;" horiz-adv-x="779" d="M222 806q9 11 25 26.5t43.5 34t46.5 18.5q27 0 68 -25.5t61 -25.5q39 0 84 34l31 -56q-8 -10 -23.5 -25.5t-43.5 -33.5t-48 -18q-26 0 -67 25.5t-62 25.5q-34 0 -79 -34zM51 340q0 167 96 261t242 94t242.5 -94t96.5 -261q0 -179 -94.5 -266t-244.5 -87t-244 87t-94 266z M389 102q87 0 141 59.5t54 178.5q0 111 -55.5 175.5t-139.5 64.5q-83 0 -138.5 -64.5t-55.5 -175.5q0 -119 54 -178.5t140 -59.5z" />
<glyph unicode="&#xd6;" horiz-adv-x="779" d="M524 904q79 0 79 -79q0 -42 -19 -60.5t-60 -18.5t-60 18.5t-19 60.5q0 79 79 79zM282 904q79 0 79 -79q0 -42 -19 -60.5t-60 -18.5t-60 18.5t-19 60.5q0 79 79 79zM51 340q0 167 96 261t242 94t242.5 -94t96.5 -261q0 -179 -94.5 -266t-244.5 -87t-244 87t-94 266z M389 102q87 0 141 59.5t54 178.5q0 111 -55.5 175.5t-139.5 64.5q-83 0 -138.5 -64.5t-55.5 -175.5q0 -119 54 -178.5t140 -59.5z" />
<glyph unicode="&#xd7;" d="M412 77l-113 113l-113 -113l-81 81l113 113l-113 113l81 81l113 -113l113 113l81 -81l-113 -113l113 -113z" />
<glyph unicode="&#xd8;" horiz-adv-x="780" d="M389 -13q-114 0 -195 49l-24 -30h-104l67 81q-82 92 -82 253q0 167 96 261t242 94q115 0 197 -57l39 47h104l-83 -100q82 -95 82 -245q0 -179 -94.5 -266t-244.5 -87zM187 340q0 -88 32 -149l292 355q-52 44 -122 44q-86 0 -144 -67t-58 -183zM389 92q90 0 146.5 62 t56.5 186q0 82 -31 141l-290 -352q49 -37 118 -37z" />
<glyph unicode="&#xd9;" horiz-adv-x="696" d="M326 917l100 -163l-88 -26l-133 146zM72 264v418h134v-418q0 -151 142 -151t142 151v418h134v-419q0 -129 -71.5 -202t-204.5 -73q-131 0 -203.5 73.5t-72.5 202.5z" />
<glyph unicode="&#xda;" horiz-adv-x="696" d="M268 754l100 163l121 -43l-133 -146zM72 264v418h134v-418q0 -151 142 -151t142 151v418h134v-419q0 -129 -71.5 -202t-204.5 -73q-131 0 -203.5 73.5t-72.5 202.5z" />
<glyph unicode="&#xdb;" horiz-adv-x="696" d="M447 728l-103 81l-101 -81l-63 74l120 108h85l129 -108zM72 264v418h134v-418q0 -151 142 -151t142 151v418h134v-419q0 -129 -71.5 -202t-204.5 -73q-131 0 -203.5 73.5t-72.5 202.5z" />
<glyph unicode="&#xdc;" horiz-adv-x="696" d="M474 904q79 0 79 -79q0 -42 -19 -60.5t-60 -18.5t-60 18.5t-19 60.5q0 79 79 79zM232 904q79 0 79 -79q0 -42 -19 -60.5t-60 -18.5t-60 18.5t-19 60.5q0 79 79 79zM72 264v418h134v-418q0 -151 142 -151t142 151v418h134v-419q0 -129 -71.5 -202t-204.5 -73 q-131 0 -203.5 73.5t-72.5 202.5z" />
<glyph unicode="&#xdd;" horiz-adv-x="616" d="M237 754l100 163l121 -43l-133 -146zM375 300v-300h-134v300l-229 382h144l116 -202l36 -77q21 49 36 77l116 202h144z" />
<glyph unicode="&#xde;" horiz-adv-x="625" d="M204 502v-204h120q112 0 112 101q0 59 -36.5 81t-98.5 22h-97zM204 0h-135v770h135v-157h120q120 0 181.5 -63t61.5 -151q0 -99 -64 -157t-202 -58h-97v-184z" />
<glyph unicode="&#xdf;" horiz-adv-x="601" d="M180 476v-476h-126v482q0 206 206 206q114 0 179 -55.5t65 -143.5q0 -36 -15.5 -76t-38.5 -61v-2q32 -25 52.5 -67t20.5 -81q0 -101 -58.5 -151.5t-185.5 -50.5h-61v103h39q63 0 99 18t36 70q0 53 -35.5 81t-94.5 28h-25v98h25q55 0 83 29.5t28 79.5q0 38 -28 58t-75 20 q-54 0 -72 -30.5t-18 -78.5z" />
<glyph unicode="&#xe0;" horiz-adv-x="540" d="M247 744l100 -163l-88 -26l-133 146zM238 96q41 0 68.5 15t35.5 30l7 15v66q-106 0 -147 -14t-41 -57q0 -55 77 -55zM360 54q-64 -64 -158 -64q-75 0 -119.5 38.5t-44.5 105.5q0 101 72.5 138.5t238.5 37.5v23q0 36 -20 51.5t-64 15.5q-87 0 -155 -44l-44 92 q69 63 211 63q93 0 143.5 -38.5t50.5 -137.5v-335h-83z" />
<glyph unicode="&#xe1;" horiz-adv-x="540" d="M196 581l100 163l121 -43l-133 -146zM238 96q41 0 68.5 15t35.5 30l7 15v66q-106 0 -147 -14t-41 -57q0 -55 77 -55zM360 54q-64 -64 -158 -64q-75 0 -119.5 38.5t-44.5 105.5q0 101 72.5 138.5t238.5 37.5v23q0 36 -20 51.5t-64 15.5q-87 0 -155 -44l-44 92 q69 63 211 63q93 0 143.5 -38.5t50.5 -137.5v-335h-83z" />
<glyph unicode="&#xe2;" horiz-adv-x="540" d="M374 553l-103 81l-101 -81l-63 74l120 108h85l129 -108zM238 96q41 0 68.5 15t35.5 30l7 15v66q-106 0 -147 -14t-41 -57q0 -55 77 -55zM360 54q-64 -64 -158 -64q-75 0 -119.5 38.5t-44.5 105.5q0 101 72.5 138.5t238.5 37.5v23q0 36 -20 51.5t-64 15.5q-87 0 -155 -44 l-44 92q69 63 211 63q93 0 143.5 -38.5t50.5 -137.5v-335h-83z" />
<glyph unicode="&#xe3;" horiz-adv-x="540" d="M96 626q9 11 25 26.5t43.5 34t46.5 18.5q27 0 68 -25.5t61 -25.5q39 0 84 34l31 -56q-8 -10 -23.5 -25.5t-43.5 -33.5t-48 -18q-26 0 -67 25.5t-62 25.5q-34 0 -79 -34zM238 96q41 0 68.5 15t35.5 30l7 15v66q-106 0 -147 -14t-41 -57q0 -55 77 -55zM360 54 q-64 -64 -158 -64q-75 0 -119.5 38.5t-44.5 105.5q0 101 72.5 138.5t238.5 37.5v23q0 36 -20 51.5t-64 15.5q-87 0 -155 -44l-44 92q69 63 211 63q93 0 143.5 -38.5t50.5 -137.5v-335h-83z" />
<glyph unicode="&#xe4;" horiz-adv-x="553" d="M155 740q79 0 79 -79q0 -42 -19 -60.5t-60 -18.5t-60 18.5t-19 60.5q0 79 79 79zM397 740q79 0 79 -79q0 -42 -19 -60.5t-60 -18.5t-60 18.5t-19 60.5q0 79 79 79zM238 96q41 0 68.5 15t35.5 30l7 15v66q-106 0 -147 -14t-41 -57q0 -55 77 -55zM360 54q-64 -64 -158 -64 q-75 0 -119.5 38.5t-44.5 105.5q0 101 72.5 138.5t238.5 37.5v23q0 36 -20 51.5t-64 15.5q-87 0 -155 -44l-44 92q69 63 211 63q93 0 143.5 -38.5t50.5 -137.5v-335h-83z" />
<glyph unicode="&#xe5;" horiz-adv-x="540" d="M272 546q-58 0 -91 33t-33 91t33 91t91 33t91 -33t33 -91t-33 -91t-91 -33zM272 621q49 0 49 49t-49 49t-49 -49t49 -49zM238 96q41 0 68.5 15t35.5 30l7 15v66q-106 0 -147 -14t-41 -57q0 -55 77 -55zM360 54q-64 -64 -158 -64q-75 0 -119.5 38.5t-44.5 105.5 q0 101 72.5 138.5t238.5 37.5v23q0 36 -20 51.5t-64 15.5q-87 0 -155 -44l-44 92q69 63 211 63q93 0 143.5 -38.5t50.5 -137.5v-335h-83z" />
<glyph unicode="&#xe6;" horiz-adv-x="857" d="M593 414q-48 0 -82.5 -27.5t-40.5 -87.5h227q-4 51 -29 83t-75 32zM38 143q0 82 71.5 119t239.5 37v24q0 77 -105 77q-74 0 -142 -44l-44 92q33 30 86 46.5t108 16.5q130 0 177 -57q62 57 162 57q60 0 105 -18.5t69 -48.5t39.5 -68t16 -77.5t-1.5 -77.5h-345 q15 -64 59.5 -90.5t96.5 -26.5q33 0 69.5 10.5t56.5 20.5l20 10l42 -96q-73 -59 -204 -59q-130 0 -203 79q-64 -79 -167 -79q-206 0 -206 153zM156 146q0 -60 82 -60q53 0 83 27.5t28 105.5v2h-2q-104 -1 -147.5 -17t-43.5 -58z" />
<glyph unicode="&#xe7;" horiz-adv-x="493" d="M463 450l-56 -82q-15 13 -48 22.5t-64 9.5q-58 0 -95 -35.5t-37 -109.5q0 -43 14.5 -74.5t39 -47t50 -22.5t54.5 -7q61 0 108 30l48 -90q-75 -55 -171 -55q-124 0 -194 72t-70 193q0 110 64 182.5t185 72.5q58 0 104 -18.5t68 -40.5zM389 -162q-6 -41 -39.5 -60.5 t-77.5 -16.5q-22 3 -43 9t-31 10l-11 5l25 61q2 -1 5 -2t12.5 -4t18.5 -5t19.5 -3.5t19 -0.5t15 5t8.5 12q2 20 -31.5 36t-64.5 20l12 60l42 -5q61 -8 94.5 -39.5t26.5 -81.5z" />
<glyph unicode="&#xe8;" horiz-adv-x="545" d="M269 744l100 -163l-88 -26l-133 146zM280 416q-46 0 -80 -28t-42 -87h227q-9 115 -105 115zM495 49q-82 -60 -201 -60q-120 0 -189.5 73.5t-69.5 191.5q0 110 64.5 184t183.5 74q59 0 103.5 -19t68 -50t38.5 -70.5t15.5 -79.5t-1.5 -78h-346q25 -111 146 -111 q80 0 146 41z" />
<glyph unicode="&#xe9;" horiz-adv-x="545" d="M198 581l100 163l121 -43l-133 -146zM280 416q-46 0 -80 -28t-42 -87h227q-9 115 -105 115zM495 49q-82 -60 -201 -60q-120 0 -189.5 73.5t-69.5 191.5q0 110 64.5 184t183.5 74q59 0 103.5 -19t68 -50t38.5 -70.5t15.5 -79.5t-1.5 -78h-346q25 -111 146 -111 q80 0 146 41z" />
<glyph unicode="&#xea;" horiz-adv-x="545" d="M386 553l-103 81l-101 -81l-63 74l120 108h85l129 -108zM280 416q-46 0 -80 -28t-42 -87h227q-9 115 -105 115zM495 49q-82 -60 -201 -60q-120 0 -189.5 73.5t-69.5 191.5q0 110 64.5 184t183.5 74q59 0 103.5 -19t68 -50t38.5 -70.5t15.5 -79.5t-1.5 -78h-346 q25 -111 146 -111q80 0 146 41z" />
<glyph unicode="&#xeb;" horiz-adv-x="545" d="M164 740q79 0 79 -79q0 -42 -19 -60.5t-60 -18.5t-60 18.5t-19 60.5q0 79 79 79zM406 740q79 0 79 -79q0 -42 -19 -60.5t-60 -18.5t-60 18.5t-19 60.5q0 79 79 79zM280 416q-46 0 -80 -28t-42 -87h227q-9 115 -105 115zM495 49q-82 -60 -201 -60q-120 0 -189.5 73.5 t-69.5 191.5q0 110 64.5 184t183.5 74q59 0 103.5 -19t68 -50t38.5 -70.5t15.5 -79.5t-1.5 -78h-346q25 -111 146 -111q80 0 146 41z" />
<glyph unicode="&#xec;" horiz-adv-x="276" d="M88 744l100 -163l-88 -26l-133 146zM204 0h-132v501h132v-501z" />
<glyph unicode="&#xed;" horiz-adv-x="276" d="M95 581l100 163l121 -43l-133 -146zM204 0h-132v501h132v-501z" />
<glyph unicode="&#xee;" horiz-adv-x="276" d="M240 552l-103 81l-101 -81l-63 74l120 108h85l129 -108zM204 0h-132v501h132v-501z" />
<glyph unicode="&#xef;" horiz-adv-x="276" d="M37 740q79 0 79 -79q0 -42 -19 -60.5t-60 -18.5t-60 18.5t-19 60.5q0 79 79 79zM239 740q79 0 79 -79q0 -42 -19 -60.5t-60 -18.5t-60 18.5t-19 60.5q0 79 79 79zM204 0h-132v501h132v-501z" />
<glyph unicode="&#xf1;" horiz-adv-x="616" d="M147 626q9 11 25 26.5t43.5 34t46.5 18.5q27 0 68 -25.5t61 -25.5q39 0 84 34l31 -56q-8 -10 -23.5 -25.5t-43.5 -33.5t-48 -18q-26 0 -67 25.5t-62 25.5q-34 0 -79 -34zM76 0v501h100l32 -55h2q48 67 150 67q92 0 139.5 -47t47.5 -120v-346h-132v299q0 53 -23 78.5 t-77 25.5q-59 0 -83 -34t-24 -112v-257h-132z" />
<glyph unicode="&#xf2;" horiz-adv-x="583" d="M249 744l100 -163l-88 -26l-133 146zM293 -10q-111 0 -181 63.5t-70 193.5q0 124 71.5 194t178.5 70q108 0 178.5 -70t70.5 -194q0 -130 -68.5 -193.5t-179.5 -63.5zM293 97q53 0 87 37.5t34 112.5q0 72 -35.5 114.5t-86.5 42.5q-52 0 -87.5 -42.5t-35.5 -114.5 q0 -74 35.5 -112t88.5 -38z" />
<glyph unicode="&#xf3;" horiz-adv-x="583" d="M211 581l100 163l121 -43l-133 -146zM293 -10q-111 0 -181 63.5t-70 193.5q0 124 71.5 194t178.5 70q108 0 178.5 -70t70.5 -194q0 -130 -68.5 -193.5t-179.5 -63.5zM293 97q53 0 87 37.5t34 112.5q0 72 -35.5 114.5t-86.5 42.5q-52 0 -87.5 -42.5t-35.5 -114.5 q0 -74 35.5 -112t88.5 -38z" />
<glyph unicode="&#xf4;" horiz-adv-x="583" d="M394 553l-103 81l-101 -81l-63 74l120 108h85l129 -108zM541 247q0 -130 -68.5 -193.5t-179.5 -63.5t-181 63.5t-70 193.5q0 124 71.5 194t178.5 70q108 0 178.5 -70t70.5 -194zM293 97q53 0 87 37.5t34 112.5q0 72 -35.5 114.5t-86.5 42.5q-52 0 -87.5 -42.5 t-35.5 -114.5q0 -74 35.5 -112t88.5 -38z" />
<glyph unicode="&#xf5;" horiz-adv-x="583" d="M121 627q9 11 25 26.5t43.5 34t46.5 18.5q27 0 68 -25.5t61 -25.5q39 0 84 34l31 -56q-8 -10 -23.5 -25.5t-43.5 -33.5t-48 -18q-26 0 -67 25.5t-62 25.5q-34 0 -79 -34zM541 247q0 -130 -68.5 -193.5t-179.5 -63.5t-181 63.5t-70 193.5q0 124 71.5 194t178.5 70 q108 0 178.5 -70t70.5 -194zM293 97q53 0 87 37.5t34 112.5q0 72 -35.5 114.5t-86.5 42.5q-52 0 -87.5 -42.5t-35.5 -114.5q0 -74 35.5 -112t88.5 -38z" />
<glyph unicode="&#xf6;" horiz-adv-x="583" d="M166 740q79 0 79 -79q0 -42 -19 -60.5t-60 -18.5t-60 18.5t-19 60.5q0 79 79 79zM408 740q79 0 79 -79q0 -42 -19 -60.5t-60 -18.5t-60 18.5t-19 60.5q0 79 79 79zM293 -10q-111 0 -181 63.5t-70 193.5q0 124 71.5 194t178.5 70q108 0 178.5 -70t70.5 -194 q0 -130 -68.5 -193.5t-179.5 -63.5zM293 97q53 0 87 37.5t34 112.5q0 72 -35.5 114.5t-86.5 42.5q-52 0 -87.5 -42.5t-35.5 -114.5q0 -74 35.5 -112t88.5 -38z" />
<glyph unicode="&#xf7;" d="M298 538q82 0 82 -81t-82 -81q-41 0 -60.5 19.5t-19.5 61.5q0 81 80 81zM82 214v114h434v-114h-434zM298 2q-41 0 -60.5 19.5t-19.5 61.5q0 81 80 81q82 0 82 -81t-82 -81z" />
<glyph unicode="&#xf8;" horiz-adv-x="622" d="M312 -10q-80 0 -141 34l-20 -24h-109l67 78q-48 66 -48 169q0 124 71.5 194t178.5 70q76 0 138 -37l23 27h108l-71 -83q51 -69 51 -171q0 -130 -68.5 -193.5t-179.5 -63.5zM181 247q0 -39 13 -70l173 202q-25 12 -56 12q-56 0 -93 -38.5t-37 -105.5zM312 110 q58 0 93 33.5t35 103.5q0 43 -15 73l-171 -200q26 -10 58 -10z" />
<glyph unicode="&#xf9;" horiz-adv-x="614" d="M287 744l100 -163l-88 -26l-133 146zM405 55q-60 -65 -150 -65q-88 0 -137 44t-49 121v346h132v-299q0 -54 21 -79t74 -25q62 0 86 33.5t24 112.5v257h132v-501h-99l-33 55h-1z" />
<glyph unicode="&#xfa;" horiz-adv-x="614" d="M238 581l100 163l121 -43l-133 -146zM538 501v-501h-99l-33 55h-1q-60 -65 -150 -65q-88 0 -137 44t-49 121v346h132v-299q0 -54 21 -79t74 -25q62 0 86 33.5t24 112.5v257h132z" />
<glyph unicode="&#xfb;" horiz-adv-x="614" d="M407 553l-103 81l-101 -81l-63 74l120 108h85l129 -108zM538 501v-501h-99l-33 55h-1q-60 -65 -150 -65q-88 0 -137 44t-49 121v346h132v-299q0 -54 21 -79t74 -25q62 0 86 33.5t24 112.5v257h132z" />
<glyph unicode="&#xfc;" horiz-adv-x="614" d="M193 740q79 0 79 -79q0 -42 -19 -60.5t-60 -18.5t-60 18.5t-19 60.5q0 79 79 79zM435 740q79 0 79 -79q0 -42 -19 -60.5t-60 -18.5t-60 18.5t-19 60.5q0 79 79 79zM405 55q-60 -65 -150 -65q-88 0 -137 44t-49 121v346h132v-299q0 -54 21 -79t74 -25q62 0 86 33.5 t24 112.5v257h132v-501h-99l-33 55h-1z" />
<glyph unicode="&#xfd;" horiz-adv-x="524" d="M187 581l100 163l121 -43l-133 -146zM313 -42q-62 -174 -231 -111q-1 1 -2.5 1t-2.5 1l39 104q50 -15 67.5 10.5t-2.5 79.5l-169 458h131l120 -362l119 362h131z" />
<glyph unicode="&#xfe;" horiz-adv-x="609" d="M204 282v-80q0 -47 32.5 -74t88.5 -27q64 0 95.5 42.5t29.5 103.5q-1 58 -30.5 102t-91.5 44q-57 0 -90.5 -28.5t-33.5 -82.5zM204 700v-254h2q58 55 134 55q108 0 171 -64.5t64 -180.5q3 -110 -61 -186t-179 -76q-71 0 -129 39h-2v-233h-132v900h132z" />
<glyph unicode="&#xff;" horiz-adv-x="524" d="M141 740q79 0 79 -79q0 -42 -19 -60.5t-60 -18.5t-60 18.5t-19 60.5q0 79 79 79zM383 740q79 0 79 -79q0 -42 -19 -60.5t-60 -18.5t-60 18.5t-19 60.5q0 79 79 79zM313 -42q-62 -174 -231 -111q-1 1 -2.5 1t-2.5 1l39 104q50 -15 67.5 10.5t-2.5 79.5l-169 458h131 l120 -362l119 362h131z" />
<glyph unicode="&#x131;" horiz-adv-x="276" d="M72 501h132v-501h-132v501z" />
<glyph unicode="&#x152;" horiz-adv-x="1013" d="M363 576q-77 0 -123 -57t-46 -159q0 -113 42.5 -184t130.5 -71q46 0 83.5 23t56.5 53v322q-59 73 -144 73zM510 54q-19 -25 -66 -44.5t-98 -19.5q-98 0 -166 51.5t-98.5 133t-30.5 185.5q0 150 77 240.5t213 90.5q111 0 169 -51h2v42h451v-115h-328v-164h279v-115h-279 v-173h328v-115h-453v54z" />
<glyph unicode="&#x153;" horiz-adv-x="919" d="M654 416q-42 0 -75.5 -24.5t-44.5 -76.5q1 -4 3 -14h222q-9 115 -105 115zM293 97q46 0 78 28.5t41 85.5q-3 21 -3 43q0 11 2 33q-9 55 -42.5 86t-76.5 31q-52 0 -87.5 -42.5t-35.5 -114.5q0 -74 35.5 -112t88.5 -38zM869 49q-82 -60 -201 -60q-118 0 -188 72 q-67 -71 -187 -71q-111 0 -181 63.5t-70 193.5q0 124 71.5 194t178.5 70q113 0 181 -73q69 74 184 74q59 0 103.5 -19t68 -50t38.5 -70.5t15.5 -79.5t-1.5 -78h-341q-1 -5 -1 -13q29 -98 142 -98q80 0 146 41z" />
<glyph unicode="&#x178;" horiz-adv-x="616" d="M442 904q79 0 79 -79q0 -42 -19 -60.5t-60 -18.5t-60 18.5t-19 60.5q0 79 79 79zM200 904q79 0 79 -79q0 -42 -19 -60.5t-60 -18.5t-60 18.5t-19 60.5q0 79 79 79zM375 300v-300h-134v300l-229 382h144l116 -202l36 -77q21 49 36 77l116 202h144z" />
<glyph unicode="&#x192;" d="M186 -125q-55 0 -99 14l23 102q12 -5 36 -5q49 0 68 17.5t19 69.5v340h-77v88h77v99q0 184 179 184q55 0 99 -14l-23 -102q-12 5 -36 5q-49 0 -68 -17.5t-19 -69.5v-85h118v-88h-118v-354q0 -184 -179 -184z" />
<glyph unicode="&#x2c6;" horiz-adv-x="384" d="M292 553l-103 81l-101 -81l-63 74l120 108h85l129 -108z" />
<glyph unicode="&#x2c7;" horiz-adv-x="382" d="M200 649l103 81l67 -74l-129 -108h-85l-120 108l63 74z" />
<glyph unicode="&#x2d9;" horiz-adv-x="310" d="M155 740q79 0 79 -79q0 -42 -19 -60.5t-60 -18.5t-60 18.5t-19 60.5q0 79 79 79z" />
<glyph unicode="&#x2da;" horiz-adv-x="456" d="M228 546q-58 0 -91 33t-33 91t33 91t91 33t91 -33t33 -91t-33 -91t-91 -33zM228 621q49 0 49 49t-49 49t-49 -49t49 -49z" />
<glyph unicode="&#x2dc;" horiz-adv-x="403" d="M22 626q9 11 25 26.5t43.5 34t46.5 18.5q27 0 68 -25.5t61 -25.5q39 0 84 34l31 -56q-8 -10 -23.5 -25.5t-43.5 -33.5t-48 -18q-26 0 -67 25.5t-62 25.5q-34 0 -79 -34z" />
<glyph unicode="&#x3bc;" horiz-adv-x="617" d="M72 501h134v-299q0 -54 21 -79t74 -25q62 0 86 33.5t24 112.5v257h134v-501h-101l-33 55h-1q-60 -65 -150 -65q-28 0 -52 7l-2 -2v-195h-134v701z" />
<glyph unicode="&#x2000;" horiz-adv-x="475" />
<glyph unicode="&#x2001;" horiz-adv-x="951" />
<glyph unicode="&#x2002;" horiz-adv-x="475" />
<glyph unicode="&#x2003;" horiz-adv-x="951" />
<glyph unicode="&#x2004;" horiz-adv-x="317" />
<glyph unicode="&#x2005;" horiz-adv-x="237" />
<glyph unicode="&#x2006;" horiz-adv-x="158" />
<glyph unicode="&#x2007;" horiz-adv-x="158" />
<glyph unicode="&#x2008;" horiz-adv-x="118" />
<glyph unicode="&#x2009;" horiz-adv-x="190" />
<glyph unicode="&#x200a;" horiz-adv-x="52" />
<glyph unicode="&#x2010;" horiz-adv-x="518" d="M436 214h-354v114h354v-114z" />
<glyph unicode="&#x2011;" horiz-adv-x="518" d="M436 214h-354v114h354v-114z" />
<glyph unicode="&#x2012;" horiz-adv-x="518" d="M436 214h-354v114h354v-114z" />
<glyph unicode="&#x2013;" horiz-adv-x="504" d="M12 225v94h480v-94h-480z" />
<glyph unicode="&#x2014;" horiz-adv-x="1002" d="M12 225v94h978v-94h-978z" />
<glyph unicode="&#x2018;" horiz-adv-x="256" d="M214 549q3 -86 -81 -89q-47 -2 -69.5 19t-23.5 72q-3 85 29.5 139.5t103.5 89.5l29 -57q-75 -64 -67 -103q43 1 60.5 -17t18.5 -54z" />
<glyph unicode="&#x2019;" horiz-adv-x="256" d="M122 764q47 2 69.5 -19.5t23.5 -72.5q4 -84 -28.5 -138.5t-102.5 -89.5l-30 57q31 25 51.5 54t15.5 49q-43 -1 -60.5 17t-18.5 53q-3 87 80 90z" />
<glyph unicode="&#x201c;" horiz-adv-x="469" d="M226 549q3 -86 -81 -89q-47 -2 -69.5 19t-23.5 72q-3 85 29.5 139.5t103.5 89.5l29 -57q-75 -64 -67 -103q43 1 60.5 -17t18.5 -54zM439 549q3 -86 -81 -89q-47 -2 -69.5 19t-23.5 72q-3 85 29.5 139.5t103.5 89.5l29 -57q-75 -64 -67 -103q43 1 60.5 -17t18.5 -54z" />
<glyph unicode="&#x201d;" horiz-adv-x="468" d="M134 764q47 2 69.5 -19.5t23.5 -72.5q4 -84 -28.5 -138.5t-102.5 -89.5l-30 57q31 25 51.5 54t15.5 49q-43 -1 -60.5 17t-18.5 53q-3 87 80 90zM346 764q47 2 69.5 -19.5t23.5 -72.5q4 -84 -28.5 -138.5t-102.5 -89.5l-30 57q31 25 51.5 54t15.5 49q-43 -1 -60.5 17 t-18.5 53q-3 87 80 90z" />
<glyph unicode="&#x2020;" d="M356 -160h-114l4 552l-164 -5v114l163 -5l-3 165h114l-3 -164l163 4v-114l-164 4z" />
<glyph unicode="&#x2026;" horiz-adv-x="1024" d="M171 155q82 0 82 -81t-82 -81q-41 0 -60.5 19.5t-19.5 61.5q0 81 80 81zM501 155q82 0 82 -81t-82 -81q-41 0 -60.5 19.5t-19.5 61.5q0 81 80 81zM831 155q82 0 82 -81t-82 -81q-41 0 -60.5 19.5t-19.5 61.5q0 81 80 81z" />
<glyph unicode="&#x202f;" horiz-adv-x="190" />
<glyph unicode="&#x2039;" horiz-adv-x="389" d="M214 29l-149 223l150 223l109 -76l-99 -148l98 -146z" />
<glyph unicode="&#x203a;" horiz-adv-x="389" d="M175 29l-109 76l98 146l-99 148l109 76l150 -223z" />
<glyph unicode="&#x205f;" horiz-adv-x="237" />
<glyph unicode="&#x20ac;" horiz-adv-x="702" d="M643 62q-103 -75 -243 -75q-151 0 -241 92.5t-90 252.5q0 153 81 257.5t222 105.5q155 1 260 -79l-56 -108q-10 6 -27 16t-65 26t-91 16q-56 0 -99 -29.5t-66 -82.5h323l-51 -94h-295q-1 -9 -1 -28q0 -14 1 -21h269l-51 -94h-193q52 -101 180 -101q97 0 176 54z" />
<glyph unicode="&#x2122;" horiz-adv-x="857" d="M248 600v-261h-94v261h-110v82h314v-82h-110zM500 551v-212h-94v343h115l88 -174l88 174h115v-343h-94v212l-84 -166h-50z" />
<glyph unicode="&#x2190;" horiz-adv-x="389" d="M236 13l-210 220l210 219l94 -94l-120 -125l120 -126z" />
<glyph unicode="&#x2191;" horiz-adv-x="487" d="M369 178l-126 120l-125 -120l-94 94l219 210l220 -210z" />
<glyph unicode="&#x2192;" horiz-adv-x="389" d="M141 13l-94 94l120 126l-120 125l94 94l210 -219z" />
<glyph unicode="&#x2193;" horiz-adv-x="487" d="M244 19l-220 210l94 94l126 -120l125 120l94 -94z" />
<glyph unicode="&#x2212;" d="M516 214h-434v114h434v-114z" />
<glyph horiz-adv-x="575" d="M331 516q0 -7 -2 -21q-2 -13 -13.5 -46t-14.5 -47q13 0 51.5 16.5t66.5 16.5q57 0 89 -48.5t32 -109.5t-22 -118q-24 -60 -66.5 -110t-94.5 -50q-12 0 -35 5.5t-35 5.5t-35 -5.5t-34 -5.5q-52 0 -96 48.5t-66 111.5t-22 118q0 62 32.5 110t90.5 48q27 0 70.5 -16.5 t56.5 -16.5q12 40 19 60q-16 4 -47 22q-34 20 -52.5 52.5t-23 62.5t-17 65.5t-34.5 58.5q43 -4 82 -26q50 -29 85 -79.5t35 -101.5zM85 205q21 0 52.5 51t35.5 75v6q0 36 -37 41q-2 0 -5.5 0.5t-4.5 0.5q-31 0 -46 -25.5t-17 -58.5q0 -5 -0.5 -12.5t-0.5 -11.5q0 -66 23 -66 z" />
<glyph horiz-adv-x="310" d="M155 740q79 0 79 -79q0 -42 -19 -60.5t-60 -18.5t-60 18.5t-19 60.5q0 79 79 79z" />
<glyph horiz-adv-x="513" d="M56 0v501h401z" />
<glyph horiz-adv-x="513" d="M457 501v-501h-401z" />
<glyph horiz-adv-x="24" d="M-98 754l100 163l121 -43l-133 -146z" />
<glyph horiz-adv-x="24" d="M23 917l100 -163l-88 -26l-133 146z" />
<glyph horiz-adv-x="24" d="M112 728l-103 81l-101 -81l-63 74l120 108h85l129 -108z" />
<glyph horiz-adv-x="24" d="M-168 806q9 11 25 26.5t43.5 34t46.5 18.5q27 0 68 -25.5t61 -25.5q39 0 84 34l31 -56q-8 -10 -23.5 -25.5t-43.5 -33.5t-48 -18q-26 0 -67 25.5t-62 25.5q-34 0 -79 -34z" />
<glyph horiz-adv-x="24" d="M146 904q79 0 79 -79q0 -42 -19 -60.5t-60 -18.5t-60 18.5t-19 60.5q0 79 79 79zM-96 904q79 0 79 -79q0 -42 -19 -60.5t-60 -18.5t-60 18.5t-19 60.5q0 79 79 79z" />
<glyph horiz-adv-x="24" d="M12 703q-58 0 -91 32.5t-33 91.5t33 91.5t91 32.5t91 -32.5t33 -91.5t-33 -91.5t-91 -32.5zM12 778q49 0 49 49t-49 49t-49 -49t49 -49z" />
<glyph horiz-adv-x="852" d="M462 -141q-205 0 -310.5 100t-105.5 296q0 166 112 274t267 108q190 0 285.5 -96t95.5 -272q0 -24 -4.5 -49.5t-17 -56.5t-32 -54.5t-53 -39.5t-76.5 -16q-103 0 -128 64l-5 -4l-6 -6t-7.5 -6.5t-9.5 -7t-11 -7t-13 -7t-15 -5.5t-17.5 -5t-19.5 -3t-22 -1q-49 0 -81 27.5 t-32 72.5q0 67 51 103t172 36v16q0 26 -12.5 35.5t-50.5 9.5q-55 0 -108 -33l-31 75q51 46 146 46q79 0 120.5 -28.5t41.5 -103.5v-137q0 -52 38 -52q44 0 65 40t21 97q0 135 -68 204.5t-216 69.5q-116 0 -198 -81t-82 -207q0 -160 80 -231t239 -71q68 0 130 15.5t90 31.5 l28 16l30 -83q-13 -8 -36 -20.5t-96 -33t-148 -20.5zM402 148q61 0 77 45v46q-118 -4 -118 -56q0 -35 41 -35z" />
<glyph horiz-adv-x="872" d="M789 340q0 -189 -84.5 -271.5t-268.5 -82.5t-268.5 82.5t-84.5 271.5q0 181 86 266.5t267 85.5t267 -85.5t86 -266.5zM436 77q137 0 199.5 61t62.5 202q0 134 -63.5 197.5t-198.5 63.5q-134 0 -198 -63.5t-64 -197.5q0 -141 63 -202t199 -61zM572 493l-36 -60 q-33 22 -92 22q-45 0 -73 -27.5t-28 -83.5q0 -63 36 -89t85 -26q58 0 89 17l33 -66q-55 -39 -134 -39q-95 0 -148 54.5t-53 146.5q0 84 48.5 140t141.5 56q45 0 80.5 -14t50.5 -31z" />
<glyph horiz-adv-x="872" d="M789 340q0 -189 -84.5 -271.5t-268.5 -82.5t-268.5 82.5t-84.5 271.5q0 181 86 266.5t267 85.5t267 -85.5t86 -266.5zM436 77q137 0 199.5 61t62.5 202q0 134 -63.5 197.5t-198.5 63.5q-134 0 -198 -63.5t-64 -197.5q0 -141 63 -202t199 -61zM368 462v-107h72 q34 0 49.5 12.5t15.5 41.5q0 33 -20.5 43t-58.5 10h-58zM513 164l-92 115h-53v-115h-80v368h151q71 0 108.5 -37t37.5 -86q0 -84 -73 -115l105 -130h-104z" />
<glyph horiz-adv-x="636" d="M318 -12q-266 0 -266 342q0 178 67 270t199 92t199 -92t67 -270q0 -342 -266 -342zM318 105q71 0 101 52t30 173q0 130 -30.5 187t-100.5 57t-100.5 -57t-30.5 -187q0 -121 30 -173t101 -52z" />
<glyph horiz-adv-x="408" d="M187 0v532h-11l-89 -52l-60 102l160 100h132v-682h-132z" />
<glyph horiz-adv-x="563" d="M255 563q-82 0 -155 -47l-54 113q1 1 11 6.5t16 9t19.5 10t25 11t28.5 10t33.5 8.5t37.5 5.5t42 2.5q113 0 178 -58t66 -154q0 -55 -22 -107t-62 -98t-79 -80.5t-91 -73.5h259v-121h-460v118q66 43 133.5 98.5t127.5 130.5t60 130q0 40 -31 63t-83 23z" />
<glyph horiz-adv-x="536" d="M148 398q57 3 97 13q36 9 62.5 31.5t26.5 56.5q0 28 -27 48t-81 20q-34 0 -63.5 -6.5t-42.5 -12.5l-13 -6l-45 108q8 5 22.5 12t60.5 18.5t94 11.5q55 0 97.5 -12.5t67 -31t40 -43t21 -45.5t5.5 -42q0 -59 -30.5 -104t-81.5 -60v-2q57 -15 94.5 -57.5t37.5 -104.5 q0 -87 -64 -144t-187 -57q-54 0 -104.5 14t-73.5 28l-23 14l40 103q67 -35 140 -35q135 0 135 84q0 75 -108 90q-58 8 -97 9v102z" />
<glyph horiz-adv-x="590" d="M335 0v151h-290v121l291 410h131v-410h95v-121h-95v-151h-132zM335 272v234l-163 -234h163z" />
<glyph horiz-adv-x="587" d="M42 35l48 114q24 -10 78.5 -21t110.5 -11q55 0 89 26.5t34 68.5q0 31 -17.5 50t-72.5 31.5t-152 12.5h-74l20 376h386v-118h-275l-10 -138q179 0 253.5 -51t74.5 -157q0 -110 -74 -169.5t-203 -59.5q-59 0 -113 11.5t-79 23.5z" />
<glyph horiz-adv-x="582" d="M532 217q0 -100 -57.5 -165t-175.5 -65q-68 0 -117 23t-76 66t-39 96.5t-12 122.5q0 209 71 303t223 94q41 0 85 -14.5t64 -29.5l-55 -99q-38 25 -98 25q-70 0 -107.5 -39t-49.5 -131q62 31 133 31q106 0 158.5 -61t52.5 -157zM300 104q46 0 71.5 26.5t25.5 73.5 q0 51 -24.5 82.5t-73.5 31.5q-63 0 -117 -34q5 -180 118 -180z" />
<glyph horiz-adv-x="531" d="M40 560v123h459v-123l-280 -560h-147l279 560h-311z" />
<glyph d="M297 -13q-64 0 -115 17t-86.5 59.5t-35.5 106.5q0 71 28 111.5t81 68.5q-88 61 -88 165q0 81 65 130.5t157 49.5q91 0 152 -47.5t61 -123.5q0 -112 -90 -175q52 -24 80.5 -64.5t28.5 -111.5q0 -90 -67 -138t-171 -48zM206 496q1 -41 23 -63.5t66 -38.5q95 32 95 102 q0 82 -93 82q-41 0 -66.5 -19.5t-24.5 -62.5zM297 101q109 0 109 83q0 38 -27 62.5t-83 44.5q-52 -18 -79 -41.5t-27 -65.5q0 -39 27.5 -61t79.5 -22z" />
<glyph horiz-adv-x="580" d="M273 361q62 0 119 35q-2 96 -31.5 137t-88.5 41q-42 0 -65.5 -24.5t-23.5 -73.5q0 -54 23.5 -84.5t66.5 -30.5zM211 -13q-59 0 -118 16l14 117q49 -11 105 -11q73 0 115 37.5t57 123.5q-54 -24 -133 -24q-99 0 -150 62.5t-51 154.5q0 45 12.5 85t38 73t70 52.5 t102.5 19.5q137 0 194.5 -80.5t57.5 -227.5q0 -208 -75 -303t-239 -95z" />
<glyph d="M299 -12q-256 0 -256 342q0 178 64.5 270t191.5 92t191.5 -92t64.5 -270q0 -342 -256 -342zM299 105q65 0 93 52t28 173q0 130 -28 187t-93 57t-93 -57t-28 -187q0 -121 28 -173t93 -52z" />
<glyph d="M538 0h-412v111h144v421h-11l-89 -52l-60 102l160 100h132v-571h136v-111z" />
<glyph d="M274 563q-82 0 -155 -47l-54 113q1 1 11 6.5t16 9t19.5 10t25 11t28.5 10t33.5 8.5t37.5 5.5t42 2.5q113 0 178 -58t66 -154q0 -55 -22 -107t-62 -98t-79 -80.5t-91 -73.5h259v-121h-460v118q66 43 133.5 98.5t127.5 130.5t60 130q0 40 -31 63t-83 23z" />
<glyph d="M181 398q57 3 97 13q36 9 62.5 31.5t26.5 56.5q0 28 -26.5 48t-81.5 20q-34 0 -63.5 -6.5t-42.5 -12.5l-13 -6l-45 108q8 5 22.5 12t60.5 18.5t94 11.5q55 0 97.5 -12.5t67 -31t40 -43t21 -45.5t5.5 -42q0 -59 -30.5 -104t-81.5 -60v-2q57 -15 94.5 -57.5t37.5 -104.5 q0 -87 -64 -144t-187 -57q-54 0 -104.5 14t-73.5 28l-23 14l40 103q67 -35 140 -35q135 0 135 84q0 75 -108 90q-58 8 -97 9v102z" />
<glyph d="M319 0v151h-290v121l291 410h131v-410h95v-121h-95v-151h-132zM319 272v234l-163 -234h163z" />
<glyph d="M40 35l48 114q24 -10 78.5 -21t110.5 -11q55 0 89 26.5t34 68.5q0 31 -17.5 50t-72.5 31.5t-152 12.5h-74l20 376h386v-118h-275l-10 -138q179 0 253.5 -51t74.5 -157q0 -110 -74 -169.5t-203 -59.5q-59 0 -113 11.5t-79 23.5z" />
<glyph d="M538 217q0 -100 -57.5 -165t-175.5 -65q-68 0 -117 23t-76 66t-39 96.5t-12 122.5q0 209 71 303t223 94q41 0 85 -14.5t64 -29.5l-55 -99q-38 25 -98 25q-70 0 -107.5 -39t-49.5 -131q62 31 133 31q106 0 158.5 -61t52.5 -157zM306 104q46 0 71.5 26.5t25.5 73.5 q0 51 -24.5 82.5t-73.5 31.5q-63 0 -117 -34q5 -180 118 -180z" />
<glyph d="M67 560v123h459v-123l-275 -560h-153l274 560h-305z" />
<glyph d="M298 -13q-64 0 -115 17t-86.5 59.5t-35.5 106.5q0 71 28 111.5t81 68.5q-88 61 -88 165q0 81 65 130.5t157 49.5q91 0 152 -47.5t61 -123.5q0 -112 -90 -175q52 -24 80.5 -64.5t28.5 -111.5q0 -90 -67 -138t-171 -48zM207 496q1 -41 23 -63.5t67 -38.5q94 32 94 102 q0 82 -93 82q-41 0 -66.5 -19.5t-24.5 -62.5zM298 101q109 0 109 83q0 38 -27 62.5t-83 44.5q-52 -18 -79 -42t-27 -65q0 -39 27.5 -61t79.5 -22z" />
<glyph d="M285 361q62 0 119 35q-2 96 -31.5 137t-88.5 41q-42 0 -65.5 -24.5t-23.5 -73.5q0 -54 23.5 -84.5t66.5 -30.5zM223 -13q-59 0 -118 16l14 117q50 -11 105 -11q73 0 115 37.5t57 123.5q-54 -24 -133 -24q-99 0 -150 62.5t-51 154.5q0 45 12.5 85t38 73t70 52.5 t102.5 19.5q137 0 194.5 -80.5t57.5 -227.5q0 -208 -75 -303t-239 -95z" />
<glyph horiz-adv-x="608" d="M304 -13q-256 0 -256 283q0 148 64.5 225t191.5 77t191.5 -77t64.5 -225q0 -283 -256 -283zM304 105q65 0 93 38t28 127q0 98 -28 141t-93 43t-93 -43t-28 -141q0 -89 28 -127t93 -38z" />
<glyph horiz-adv-x="397" d="M183 0v406h-11l-89 -52l-60 102l160 100h132v-556h-132z" />
<glyph horiz-adv-x="562" d="M231 443q-78 0 -126 -35l-53 101q82 63 201 63q108 0 167 -46t59 -132q0 -47 -15.5 -84t-46.5 -65.5t-59.5 -47.5t-73 -44.5t-68.5 -42.5q99 11 131 11h127v-121h-420v128q40 31 123 80t124.5 85t41.5 74q0 37 -30 56.5t-82 19.5z" />
<glyph horiz-adv-x="530" d="M132 278q57 3 97 13q36 9 62.5 31.5t26.5 56.5q0 28 -27 48t-81 20q-34 0 -63.5 -6.5t-42.5 -12.5l-13 -6l-45 108q8 5 22.5 12t60.5 18.5t94 11.5q55 0 97.5 -12.5t67 -31t40 -43t21 -45.5t5.5 -42q0 -59 -30.5 -104t-81.5 -60v-2q57 -15 94.5 -57.5t37.5 -104.5 q0 -87 -64.5 -145.5t-186.5 -58.5q-54 0 -104.5 15t-73.5 29l-23 15l40 103q67 -41 140 -41q59 0 97 22t38 68q0 75 -108 90q-58 8 -97 9v102z" />
<glyph horiz-adv-x="592" d="M341 -126v151h-325v121l326 410h131v-410h110v-121h-110v-151h-132zM341 146v234l-185 -234h185z" />
<glyph horiz-adv-x="582" d="M40 -91l48 114q90 -36 189 -36q55 0 89 28t34 71q0 31 -17.5 50t-72.5 31.5t-152 12.5h-74l20 376h386v-118h-275l-10 -138q179 0 253.5 -51t74.5 -157q0 -110 -74 -169.5t-203 -59.5q-59 0 -113 11.5t-79 23.5z" />
<glyph horiz-adv-x="582" d="M532 217q0 -100 -57.5 -165t-175.5 -65q-68 0 -117 23t-76 66t-39 96.5t-12 122.5q0 210 71 305t223 95q40 0 84.5 -15.5t64.5 -31.5l-55 -99q-38 25 -98 25q-70 0 -107.5 -39t-49.5 -131q62 31 133 31q106 0 158.5 -61t52.5 -157zM300 104q46 0 71.5 26.5t25.5 73.5 q0 51 -24.5 82.5t-73.5 31.5q-63 0 -117 -34q5 -180 118 -180z" />
<glyph horiz-adv-x="515" d="M24 433v123h459v-123l-280 -560h-147l279 560h-311z" />
<glyph d="M297 -13q-64 0 -115 17t-86.5 59.5t-35.5 106.5q0 71 28 111.5t81 68.5q-88 61 -88 165q0 81 65 130.5t157 49.5q91 0 152 -47.5t61 -123.5q0 -112 -90 -175q52 -24 80.5 -64.5t28.5 -111.5q0 -90 -67 -138t-171 -48zM206 496q1 -41 23 -63.5t66 -38.5q95 32 95 102 q0 82 -93 82q-41 0 -66.5 -19.5t-24.5 -62.5zM297 101q109 0 109 83q0 38 -27 62.5t-83 44.5q-52 -18 -79 -41.5t-27 -65.5q0 -39 27.5 -61t79.5 -22z" />
<glyph horiz-adv-x="580" d="M273 241q62 0 119 35q-2 96 -31.5 137t-88.5 41q-42 0 -65.5 -24.5t-23.5 -73.5q0 -54 23.5 -84.5t66.5 -30.5zM211 -133q-59 0 -118 16l14 117q58 -13 105 -13q72 0 114.5 38t57.5 125q-54 -24 -133 -24q-99 0 -150 62.5t-51 154.5q0 45 12.5 85t38 73t70 52.5 t102.5 19.5q137 0 194.5 -80.5t57.5 -227.5q0 -208 -75 -303t-239 -95z" />
</font>
</defs>
</svg>
